<svg xmlns="http://www.w3.org/2000/svg" viewBox="0 0 70.99 88.38"><defs><style>.cls-1{fill:#efa126;}</style></defs><g id="Capa_2" data-name="Capa 2"><g id="Capa_1-2" data-name="Capa 1"><path d="M66.55,17.75H4.44A4.44,4.44,0,0,1,0,13.31V4.44A4.44,4.44,0,0,1,4.44,0H66.55A4.44,4.44,0,0,1,71,4.44v8.87a4.44,4.44,0,0,1-4.44,4.44ZM4.44,3A1.48,1.48,0,0,0,3,4.44v8.87a1.48,1.48,0,0,0,1.48,1.48H66.55A1.48,1.48,0,0,0,68,13.31V4.44A1.48,1.48,0,0,0,66.55,3Z"/><path d="M66.55,67.64H4.44A4.44,4.44,0,0,1,0,63.2V54.33a4.44,4.44,0,0,1,4.44-4.44H66.55A4.44,4.44,0,0,1,71,54.33V63.2a4.44,4.44,0,0,1-4.44,4.44ZM4.44,52.85A1.48,1.48,0,0,0,3,54.33V63.2a1.48,1.48,0,0,0,1.48,1.48H66.55A1.48,1.48,0,0,0,68,63.2V54.33a1.48,1.48,0,0,0-1.48-1.48Z"/><path d="M66.55,88.38H4.44A4.44,4.44,0,0,1,0,84V75.07a4.45,4.45,0,0,1,4.44-4.44H66.55A4.45,4.45,0,0,1,71,75.07V84a4.44,4.44,0,0,1-4.44,4.43ZM4.44,73.59A1.48,1.48,0,0,0,3,75.07V84a1.47,1.47,0,0,0,1.48,1.47H66.55A1.47,1.47,0,0,0,68,84V75.07a1.48,1.48,0,0,0-1.48-1.48Z"/><path class="cls-1" d="M66.38,26.62H4.61a1.48,1.48,0,0,1,0-3H66.38a1.48,1.48,0,1,1,0,3Z"/><path class="cls-1" d="M66.38,35.5H4.61a1.48,1.48,0,0,1,0-3H66.38a1.48,1.48,0,1,1,0,3Z"/><path class="cls-1" d="M66.38,44.37H4.61a1.48,1.48,0,1,1,0-3H66.38a1.48,1.48,0,1,1,0,3Z"/></g></g></svg>