<svg xmlns="http://www.w3.org/2000/svg" viewBox="0 0 77.06 77.06"><defs><style>.cls-1{fill:#efa126;}</style></defs><g id="Capa_2" data-name="Capa 2"><g id="Capa_1-2" data-name="Capa 1"><path d="M72.24,19.26H4.82A4.82,4.82,0,0,1,0,14.45V4.82A4.82,4.82,0,0,1,4.82,0H72.24a4.82,4.82,0,0,1,4.82,4.82v9.63a4.82,4.82,0,0,1-4.82,4.81Z"/><rect class="cls-1" x="3.21" y="3.21" width="70.63" height="12.84" rx="1.61"/><path class="cls-1" d="M33.71,28.9H1.61a1.61,1.61,0,1,1,0-3.21h32.1a1.61,1.61,0,1,1,0,3.21Z"/><path class="cls-1" d="M33.71,38.53H1.61a1.61,1.61,0,1,1,0-3.21h32.1a1.61,1.61,0,1,1,0,3.21Z"/><path class="cls-1" d="M33.71,48.16H1.61a1.61,1.61,0,1,1,0-3.21h32.1a1.61,1.61,0,1,1,0,3.21Z"/><path class="cls-1" d="M33.71,57.79H1.61a1.61,1.61,0,1,1,0-3.21h32.1a1.61,1.61,0,1,1,0,3.21Z"/><path class="cls-1" d="M33.71,67.42H1.61a1.61,1.61,0,1,1,0-3.21h32.1a1.61,1.61,0,1,1,0,3.21Z"/><path class="cls-1" d="M75.45,28.9H43.34a1.61,1.61,0,0,1,0-3.21H75.45a1.61,1.61,0,1,1,0,3.21Z"/><path class="cls-1" d="M75.45,38.53H43.34a1.61,1.61,0,0,1,0-3.21H75.45a1.61,1.61,0,1,1,0,3.21Z"/><path class="cls-1" d="M75.45,48.16H43.34a1.61,1.61,0,0,1,0-3.21H75.45a1.61,1.61,0,1,1,0,3.21Z"/><path class="cls-1" d="M75.45,57.79H43.34a1.61,1.61,0,0,1,0-3.21H75.45a1.61,1.61,0,1,1,0,3.21Z"/><path class="cls-1" d="M75.45,67.42H43.34a1.61,1.61,0,0,1,0-3.21H75.45a1.61,1.61,0,1,1,0,3.21Z"/><path class="cls-1" d="M33.71,77.06H1.61a1.61,1.61,0,1,1,0-3.21h32.1a1.61,1.61,0,1,1,0,3.21Z"/><path class="cls-1" d="M75.45,77.06H43.34a1.61,1.61,0,0,1,0-3.21H75.45a1.61,1.61,0,1,1,0,3.21Z"/></g></g></svg>