<svg xmlns="http://www.w3.org/2000/svg" viewBox="0 0 86.43 77.54"><defs><style>.cls-1{fill:#efa126;}.cls-2{fill:none;stroke:#010101;stroke-miterlimit:10;stroke-width:2px;}</style></defs><g id="Capa_2" data-name="Capa 2"><g id="Capa_1-2" data-name="Capa 1"><path class="cls-1" d="M76.25,77.54H10.18A10.16,10.16,0,0,1,1.38,62.3l33-57.22a10.16,10.16,0,0,1,17.6,0l33,57.22a10.16,10.16,0,0,1-8.8,15.24Zm-33-72.48A5.05,5.05,0,0,0,38.8,7.61l-33,57.22a5.1,5.1,0,0,0,4.42,7.65H76.25a5.1,5.1,0,0,0,4.41-7.65l-33-57.22A5.06,5.06,0,0,0,43.21,5.06Z"/><rect class="cls-2" x="40.2" y="19.74" width="6.03" height="30.13"/><path class="cls-2" d="M43.21,63.93a4,4,0,1,1,4-4A4,4,0,0,1,43.21,63.93Z"/></g></g></svg>