<svg xmlns="http://www.w3.org/2000/svg" viewBox="0 0 75.31 102.01"><defs><style>.cls-1{fill:#efa126;}</style></defs><g id="Capa_2" data-name="Capa 2"><g id="Capa_1-2" data-name="Capa 1"><path class="cls-1" d="M33.31,80.69a5,5,0,0,1-1.06-1.4l-2.48-4.83a1.5,1.5,0,0,0-2-.64,1.49,1.49,0,0,0-.65,2l2.48,4.83a8,8,0,0,0,1.69,2.23l9.7,9v8.6a1.5,1.5,0,1,0,3,0V91.26a1.51,1.51,0,0,0-.48-1.1Z"/><path class="cls-1" d="M26.83,68.76,20.18,55.83v0a2.46,2.46,0,0,1,3.85-3L32.81,61a1.49,1.49,0,0,0,1.62.28,1.52,1.52,0,0,0,.9-1.38V40.68a1.5,1.5,0,1,0-3,0v15.8l-6.27-5.84a5.46,5.46,0,0,0-8.54,6.57l6.65,12.92a1.48,1.48,0,0,0,1.33.81,1.55,1.55,0,0,0,.69-.16,1.5,1.5,0,0,0,.64-2Z"/><path class="cls-1" d="M68.82,36a6.5,6.5,0,0,0-5,2.35,6.49,6.49,0,0,0-10,0A6.48,6.48,0,0,0,45.32,37V25.09a6.5,6.5,0,0,0-13,0V34.3a1.5,1.5,0,0,0,3,0V25.09a3.5,3.5,0,0,1,7,0V51.71a1.5,1.5,0,1,0,3,0V42.49a3.5,3.5,0,0,1,7,0V51.7a1.5,1.5,0,0,0,3,0V42.49a3.5,3.5,0,0,1,7,0V51.7a1.5,1.5,0,0,0,3,0V42.49a3.5,3.5,0,0,1,7,0V82.64a4.36,4.36,0,0,1-.59,2.17L69.32,89a1.53,1.53,0,0,0-.2.75v10.61a1.5,1.5,0,0,0,3,0V90.11l2.2-3.79a7.33,7.33,0,0,0,1-3.68V42.49A6.5,6.5,0,0,0,68.82,36Z"/><path d="M51.2,21.08a12.31,12.31,0,0,1-2.57,7.56,1.5,1.5,0,0,0,.28,2.1,1.47,1.47,0,0,0,.91.31A1.52,1.52,0,0,0,51,30.46a15.44,15.44,0,0,0,1.63-16.13,1.5,1.5,0,0,0-2.7,1.31,12.3,12.3,0,0,1,1.26,5.44Z"/><path d="M26.66,30.6a1.47,1.47,0,0,0,1.18.57,1.45,1.45,0,0,0,.92-.32,1.5,1.5,0,0,0,.25-2.1A12.42,12.42,0,0,1,46.33,11.22a1.5,1.5,0,1,0,1.82-2.38,15.26,15.26,0,0,0-9.37-3.18A15.44,15.44,0,0,0,23.36,21.08a15.23,15.23,0,0,0,3.3,9.52Z"/><path d="M24,41.88a1.49,1.49,0,0,0,2.09-.35,1.5,1.5,0,0,0-.35-2.09,22.52,22.52,0,0,1,0-36.72A1.5,1.5,0,1,0,24,.28a25.53,25.53,0,0,0,0,41.6Z"/><path d="M51.83,2.72A22.58,22.58,0,0,1,61.3,21.08a22.3,22.3,0,0,1-1.62,8.4,1.5,1.5,0,0,0,.83,1.95,1.64,1.64,0,0,0,.56.11,1.49,1.49,0,0,0,1.39-.94A25.52,25.52,0,0,0,53.56.28a1.5,1.5,0,1,0-1.73,2.44Z"/><path d="M4.38,11.68a1.5,1.5,0,0,0,1.1.48,1.48,1.48,0,0,0,1-.4,1.5,1.5,0,0,0,.08-2.12L3.32,6.14a1.5,1.5,0,0,0-2.19,2Z"/><path d="M4.38,26.54,1.13,30a1.5,1.5,0,1,0,2.19,2l3.26-3.5a1.5,1.5,0,0,0-2.2-2Z"/><path d="M5.48,17h-4a1.5,1.5,0,0,0,0,3h4a1.5,1.5,0,0,0,0-3Z"/></g></g></svg>