<svg xmlns="http://www.w3.org/2000/svg" viewBox="0 0 82.76 84.58"><defs><style>.cls-1{fill:#efa126;}</style></defs><g id="Capa_2" data-name="Capa 2"><g id="Capa_1-2" data-name="Capa 1"><path d="M20.48,84.58H5.29A5.29,5.29,0,0,1,0,79.29v-74A5.29,5.29,0,0,1,5.29,0H20.48a5.3,5.3,0,0,1,5.29,5.29v74a5.3,5.3,0,0,1-5.29,5.29ZM5.29,3.52A1.77,1.77,0,0,0,3.52,5.29v74a1.77,1.77,0,0,0,1.77,1.77H20.48a1.76,1.76,0,0,0,1.76-1.77v-74a1.76,1.76,0,0,0-1.76-1.77Z"/><path class="cls-1" d="M49.15,84.58H34a5.29,5.29,0,0,1-5.28-5.29v-74A5.29,5.29,0,0,1,34,0h15.2a5.29,5.29,0,0,1,5.28,5.29v74a5.29,5.29,0,0,1-5.28,5.29ZM34,3.52a1.76,1.76,0,0,0-1.76,1.77v74A1.76,1.76,0,0,0,34,81.06h15.2a1.76,1.76,0,0,0,1.76-1.77v-74a1.76,1.76,0,0,0-1.76-1.77Z"/><path d="M77.48,84.58H62.29A5.29,5.29,0,0,1,57,79.29v-74A5.29,5.29,0,0,1,62.29,0H77.48a5.29,5.29,0,0,1,5.28,5.29v74a5.29,5.29,0,0,1-5.28,5.29ZM62.29,3.52a1.77,1.77,0,0,0-1.77,1.77v74a1.77,1.77,0,0,0,1.77,1.77H77.48a1.76,1.76,0,0,0,1.76-1.77v-74a1.76,1.76,0,0,0-1.76-1.77Z"/></g></g></svg>