<svg xmlns="http://www.w3.org/2000/svg" viewBox="0 0 103.47 58.37"><defs><style>.cls-1{fill:#efa126;}</style></defs><g id="Capa_2" data-name="Capa 2"><g id="Capa_1-2" data-name="Capa 1"><path d="M100.83,58.37H2.64A2.64,2.64,0,0,1,0,55.73V2.64A2.64,2.64,0,0,1,2.64,0h98.19a2.64,2.64,0,0,1,2.64,2.64V55.73a2.64,2.64,0,0,1-2.64,2.64ZM4.27,54.1H99.2V4.27H4.27Z"/><path class="cls-1" d="M20.09,46.82a2.63,2.63,0,0,1-2.63-2.63v-30a2.64,2.64,0,0,1,5.27,0v30a2.64,2.64,0,0,1-2.64,2.63Z"/><path class="cls-1" d="M41.19,46.82a2.64,2.64,0,0,1-2.64-2.63v-30a2.64,2.64,0,0,1,5.27,0v30a2.63,2.63,0,0,1-2.63,2.63Z"/><path class="cls-1" d="M62.28,46.82a2.64,2.64,0,0,1-2.64-2.63v-30a2.64,2.64,0,0,1,5.28,0v30a2.64,2.64,0,0,1-2.64,2.63Z"/><path class="cls-1" d="M83.37,46.82a2.63,2.63,0,0,1-2.63-2.63v-30a2.64,2.64,0,0,1,5.27,0v30a2.64,2.64,0,0,1-2.64,2.63Z"/></g></g></svg>