<svg xmlns="http://www.w3.org/2000/svg" viewBox="0 0 55.42 53.05"><defs><style>.cls-1{fill:none;stroke:#efa126;stroke-linejoin:round;stroke-width:3px;}</style></defs><g id="Capa_2" data-name="Capa 2"><g id="Capa_1-2" data-name="Capa 1"><path d="M51.32,53.05H4.1A4.11,4.11,0,0,1,0,48.94V4.1A4.11,4.11,0,0,1,4.1,0H51.32a4.11,4.11,0,0,1,4.1,4.1V48.94a4.11,4.11,0,0,1-4.1,4.11ZM4.1,2.74A1.36,1.36,0,0,0,2.74,4.1V48.94A1.36,1.36,0,0,0,4.1,50.31H51.32a1.37,1.37,0,0,0,1.37-1.37V4.1a1.36,1.36,0,0,0-1.37-1.36Z"/><polygon class="cls-1" points="27.71 11.47 31.95 20.07 41.43 21.44 34.57 28.13 36.19 37.58 27.71 33.12 19.23 37.58 20.85 28.13 13.99 21.44 23.47 20.07 27.71 11.47"/></g></g></svg>