<svg xmlns="http://www.w3.org/2000/svg" viewBox="0 0 76.15 76.15"><defs><style>.cls-1{fill:#efa126;}</style></defs><g id="Capa_2" data-name="Capa 2"><g id="Capa_1-2" data-name="Capa 1"><path d="M14.28,19H4.76A4.77,4.77,0,0,1,0,14.28V4.76A4.77,4.77,0,0,1,4.76,0h9.52A4.77,4.77,0,0,1,19,4.76v9.52A4.77,4.77,0,0,1,14.28,19ZM4.76,3.17A1.59,1.59,0,0,0,3.17,4.76v9.52a1.59,1.59,0,0,0,1.59,1.58h9.52a1.58,1.58,0,0,0,1.58-1.58V4.76a1.59,1.59,0,0,0-1.58-1.59Z"/><path class="cls-1" d="M14.28,47.59H4.76A4.76,4.76,0,0,1,0,42.83V33.32a4.76,4.76,0,0,1,4.76-4.76h9.52A4.76,4.76,0,0,1,19,33.32v9.51a4.76,4.76,0,0,1-4.76,4.76ZM4.76,31.73a1.59,1.59,0,0,0-1.59,1.59v9.51a1.59,1.59,0,0,0,1.59,1.59h9.52a1.59,1.59,0,0,0,1.58-1.59V33.32a1.59,1.59,0,0,0-1.58-1.59Z"/><path d="M14.28,76.15H4.76A4.77,4.77,0,0,1,0,71.39V61.87a4.77,4.77,0,0,1,4.76-4.76h9.52A4.77,4.77,0,0,1,19,61.87v9.52a4.77,4.77,0,0,1-4.76,4.76ZM4.76,60.28a1.59,1.59,0,0,0-1.59,1.59v9.52A1.59,1.59,0,0,0,4.76,73h9.52a1.59,1.59,0,0,0,1.58-1.59V61.87a1.59,1.59,0,0,0-1.58-1.59Z"/><path d="M42.83,19H33.32a4.76,4.76,0,0,1-4.76-4.76V4.76A4.76,4.76,0,0,1,33.32,0h9.51a4.76,4.76,0,0,1,4.76,4.76v9.52A4.76,4.76,0,0,1,42.83,19ZM33.32,3.17a1.59,1.59,0,0,0-1.59,1.59v9.52a1.59,1.59,0,0,0,1.59,1.58h9.51a1.59,1.59,0,0,0,1.59-1.58V4.76a1.59,1.59,0,0,0-1.59-1.59Z"/><path d="M42.83,47.59H33.32a4.76,4.76,0,0,1-4.76-4.76V33.32a4.76,4.76,0,0,1,4.76-4.76h9.51a4.76,4.76,0,0,1,4.76,4.76v9.51a4.76,4.76,0,0,1-4.76,4.76ZM33.32,31.73a1.59,1.59,0,0,0-1.59,1.59v9.51a1.59,1.59,0,0,0,1.59,1.59h9.51a1.59,1.59,0,0,0,1.59-1.59V33.32a1.59,1.59,0,0,0-1.59-1.59Z"/><path d="M42.83,76.15H33.32a4.76,4.76,0,0,1-4.76-4.76V61.87a4.76,4.76,0,0,1,4.76-4.76h9.51a4.76,4.76,0,0,1,4.76,4.76v9.52a4.76,4.76,0,0,1-4.76,4.76ZM33.32,60.28a1.59,1.59,0,0,0-1.59,1.59v9.52A1.59,1.59,0,0,0,33.32,73h9.51a1.59,1.59,0,0,0,1.59-1.59V61.87a1.59,1.59,0,0,0-1.59-1.59Z"/><path d="M71.39,19H61.87a4.77,4.77,0,0,1-4.76-4.76V4.76A4.77,4.77,0,0,1,61.87,0h9.52a4.77,4.77,0,0,1,4.76,4.76v9.52A4.77,4.77,0,0,1,71.39,19ZM61.87,3.17a1.6,1.6,0,0,0-1.59,1.59v9.52a1.59,1.59,0,0,0,1.59,1.58h9.52A1.59,1.59,0,0,0,73,14.28V4.76a1.59,1.59,0,0,0-1.59-1.59Z"/><path d="M71.39,47.59H61.87a4.76,4.76,0,0,1-4.76-4.76V33.32a4.76,4.76,0,0,1,4.76-4.76h9.52a4.76,4.76,0,0,1,4.76,4.76v9.51a4.76,4.76,0,0,1-4.76,4.76ZM61.87,31.73a1.59,1.59,0,0,0-1.59,1.59v9.51a1.59,1.59,0,0,0,1.59,1.59h9.52A1.59,1.59,0,0,0,73,42.83V33.32a1.59,1.59,0,0,0-1.59-1.59Z"/><path class="cls-1" d="M71.39,76.15H61.87a4.77,4.77,0,0,1-4.76-4.76V61.87a4.77,4.77,0,0,1,4.76-4.76h9.52a4.77,4.77,0,0,1,4.76,4.76v9.52a4.77,4.77,0,0,1-4.76,4.76ZM61.87,60.28a1.6,1.6,0,0,0-1.59,1.59v9.52A1.6,1.6,0,0,0,61.87,73h9.52A1.59,1.59,0,0,0,73,71.39V61.87a1.59,1.59,0,0,0-1.59-1.59Z"/></g></g></svg>