<svg xmlns="http://www.w3.org/2000/svg" viewBox="0 0 70.31 53.27"><defs><style>.cls-1{fill:#db9f36;}</style></defs><g id="Capa_2" data-name="Capa 2"><g id="Capa_1-2" data-name="Capa 1"><path d="M65.49,53.27H4.82A4.83,4.83,0,0,1,0,48.45V4.82A4.82,4.82,0,0,1,4.82,0H65.49a4.82,4.82,0,0,1,4.82,4.82V48.45a4.83,4.83,0,0,1-4.82,4.82ZM4.82,3.21A1.61,1.61,0,0,0,3.21,4.82V48.45a1.6,1.6,0,0,0,1.61,1.6H65.49a1.6,1.6,0,0,0,1.61-1.6V4.82a1.61,1.61,0,0,0-1.61-1.61Z"/><path d="M9.74,42.46,19.17,33,20.5,34.4l-9.31,9.33.08.17H41.18v2H7.83V7.39H62.44V45.86H44.29V44h6.48L31,24.14c-2.66,2.68-5.46,5.48-8.28,8.31L21.39,31l9.72-9.74,10,10,9.14-9.17,10.26,10.3V9.31H9.74Zm50.83,1.48v-.76c0-2.47,0-4.94,0-7.41a1.36,1.36,0,0,0-.45-1.05q-4.68-4.66-9.35-9.36l-.31-.29-7.75,7.75s0,0,0,0c3.59,3.6,7.18,7.21,10.79,10.79a1.13,1.13,0,0,0,.72.28c1.35,0,2.7,0,4,0Z"/><path class="cls-1" d="M41.24,23.5a6,6,0,1,1,6-6.05A6,6,0,0,1,41.24,23.5Zm4.06-6a4.08,4.08,0,1,0-4.1,4.09A4.07,4.07,0,0,0,45.3,17.47Z"/><path class="cls-1" d="M11.89,11.43h6v1.89H13.77v6.16H11.89Z"/><path class="cls-1" d="M25.4,34.15l1.19,1.2-6,6-1.18-1.16Z"/><path class="cls-1" d="M29.41,30.09l1.28,1.25-2,1.95L27.46,32Z"/><path class="cls-1" d="M11.89,21.56h1.82v2H11.89Z"/><path class="cls-1" d="M11.89,25.63h1.82v2H11.89Z"/></g></g></svg>