<svg xmlns="http://www.w3.org/2000/svg" viewBox="0 0 78.68 81.53"><defs><style>.cls-1{fill:#efa126;}.cls-2{fill:#010101;}</style></defs><g id="Capa_2" data-name="Capa 2"><g id="Capa_1-2" data-name="Capa 1"><path class="cls-1" d="M17.51,69.11a37.48,37.48,0,0,1-11.06-13A36.93,36.93,0,0,1,39.34,2.39a36.22,36.22,0,0,1,16.54,4,1.19,1.19,0,0,0,1.61-.52A1.21,1.21,0,0,0,57,4.22,38.61,38.61,0,0,0,39.34,0a39.3,39.3,0,0,0-35,57.23A39.82,39.82,0,0,0,16.09,71a1.17,1.17,0,0,0,.71.24,1.2,1.2,0,0,0,.71-2.16Z"/><path class="cls-1" d="M69.64,64.44A39.26,39.26,0,0,0,62.12,7.35a1.2,1.2,0,0,0-1.39,2A36.85,36.85,0,0,1,67.8,62.91,13.35,13.35,0,0,0,64.92,69a14.23,14.23,0,0,0,.19,7,2.4,2.4,0,0,1-.58,2.44,2.32,2.32,0,0,1-2.35.63,32.89,32.89,0,0,1-7.24-3.11,8.21,8.21,0,0,0-6.25-.83A37.45,37.45,0,0,1,39,76.29a36.4,36.4,0,0,1-16.7-4.21,1.19,1.19,0,1,0-1.11,2.11,38.79,38.79,0,0,0,17.79,4.49,39.58,39.58,0,0,0,10.36-1.27,5.85,5.85,0,0,1,4.45.59,35.28,35.28,0,0,0,7.77,3.33,4.91,4.91,0,0,0,1.35.2,4.71,4.71,0,0,0,3.39-1.46,4.81,4.81,0,0,0,1.13-4.83,11.6,11.6,0,0,1-.12-5.83A11,11,0,0,1,69.64,64.44Z"/><path class="cls-2" d="M40.19,23.45a6,6,0,1,0-6-6A6,6,0,0,0,40.19,23.45Zm0-9.64a3.63,3.63,0,1,1-3.63,3.62A3.62,3.62,0,0,1,40.19,13.81ZM32,53.46a4.15,4.15,0,0,0-4.14,4.14v1.2A4.14,4.14,0,0,0,32,62.93H48.39a4.14,4.14,0,0,0,4.14-4.13V57.6a4.15,4.15,0,0,0-4.14-4.14H46.2V30.52a4.07,4.07,0,0,0-5.67-3.74,18,18,0,0,1-6.22,1.43l-3.76.19a2.85,2.85,0,0,0-2.71,2.84V33.6a2.86,2.86,0,0,0,2.85,2.85H34a.17.17,0,0,1,.18.17V53.46Zm2-19.4h-3.3a.47.47,0,0,1-.46-.46V31.24a.45.45,0,0,1,.44-.45l3.76-.19a20.37,20.37,0,0,0,7-1.63,1.67,1.67,0,0,1,1.59.15,1.64,1.64,0,0,1,.75,1.4V54.65a1.2,1.2,0,0,0,1.2,1.2h3.38a1.75,1.75,0,0,1,1.75,1.75v1.2a1.76,1.76,0,0,1-1.75,1.75H32a1.76,1.76,0,0,1-1.75-1.75V57.6A1.75,1.75,0,0,1,32,55.85h3.38a1.2,1.2,0,0,0,1.2-1.2v-18A2.57,2.57,0,0,0,34,34.06Z"/></g></g></svg>