<svg xmlns="http://www.w3.org/2000/svg" viewBox="0 0 72.66 88.37"><defs><style>.cls-1{fill:#efa126;}</style></defs><g id="Capa_2" data-name="Capa 2"><g id="Capa_1-2" data-name="Capa 1"><path class="cls-1" d="M72.66,19.6v-.06a.57.57,0,0,0,0-.13c-.07-3.82-.55-5.29-3.79-8.81L63.2,4.44c-.32-.35-.61-.67-.87-1C60,.83,59,0,54.85,0H5.66A5.67,5.67,0,0,0,0,5.66V41a1.31,1.31,0,1,0,2.61,0V5.66A3.06,3.06,0,0,1,5.66,2.61H53.55V15.18a5.67,5.67,0,0,0,5.66,5.66H70.06V82.7a3.06,3.06,0,0,1-3,3.06H5.66A3.06,3.06,0,0,1,2.61,82.7V47A1.31,1.31,0,0,0,0,47V82.7a5.67,5.67,0,0,0,5.66,5.67H67a5.66,5.66,0,0,0,5.65-5.67V19.6ZM59.2,18.23a3,3,0,0,1-3.05-3.05V2.64c2,.12,2.52.67,4.24,2.58l.89,1,5.66,6.15c2.34,2.54,2.92,3.57,3.07,5.87Z"/><path d="M37.87,17.44a5.45,5.45,0,0,0-5.1.11,4.86,4.86,0,0,0-1.71,1.75,4.21,4.21,0,0,0-.59,2.1,1.51,1.51,0,0,0,.4,1,1.29,1.29,0,0,0,1,.48c.79,0,1.14-.56,1.23-1.31A5.16,5.16,0,0,1,34,20a2,2,0,0,1,2.66,0,1.75,1.75,0,0,1,.49,1.27,1.52,1.52,0,0,1-.16.72,2.51,2.51,0,0,1-.42.62c-.26.3-.56.58-.85.87s-.75.76-1.09,1.16A4.29,4.29,0,0,0,34,25.77a4.47,4.47,0,0,0-.25,1.58,1.65,1.65,0,0,0,.38,1.18,1.23,1.23,0,0,0,.95.41,1.26,1.26,0,0,0,1.29-1.23c0-.23.09-.47.15-.71a1.55,1.55,0,0,1,.13-.36,2,2,0,0,1,.26-.42,5.17,5.17,0,0,1,.5-.55c.53-.53,1.07-1.08,1.58-1.64a5,5,0,0,0,.79-1.19,3.86,3.86,0,0,0,.34-1.64A4.24,4.24,0,0,0,39.53,19a4.16,4.16,0,0,0-1.66-1.59Z"/><path d="M35.18,29.94a1.52,1.52,0,0,0-1.14.51,1.92,1.92,0,0,0,0,2.52,1.58,1.58,0,0,0,1.12.47,1.55,1.55,0,0,0,1.1-.48,1.76,1.76,0,0,0,.47-1.28,1.84,1.84,0,0,0-.44-1.23,1.48,1.48,0,0,0-1.13-.51Z"/><path d="M10.21,48v4.67a2.07,2.07,0,0,0,2.07,2.07h8a2.07,2.07,0,0,0,2.07-2.07V48a2.07,2.07,0,0,0-2.07-2.07h-8A2.07,2.07,0,0,0,10.21,48Zm2.61.54h6.93V52.1H12.82Z"/><path d="M10.21,65.09a2.07,2.07,0,0,0,2.07,2.07h8a2.07,2.07,0,0,0,2.07-2.07V60.43a2.07,2.07,0,0,0-2.07-2.07h-8a2.07,2.07,0,0,0-2.07,2.07ZM12.82,61h6.93v3.58H12.82Z"/><path d="M10.21,77.54a2.08,2.08,0,0,0,2.07,2.08h8a2.08,2.08,0,0,0,2.07-2.08V72.88a2.07,2.07,0,0,0-2.07-2.06h-8a2.07,2.07,0,0,0-2.07,2.06Zm2.61-4.12h6.93V77H12.82Z"/><path d="M62.35,49.15H28a1.31,1.31,0,1,0,0,2.61H62.35a1.31,1.31,0,0,0,0-2.61Z"/><path class="cls-1" d="M62.35,61.45H48.22a1.31,1.31,0,0,0,0,2.61H62.35a1.31,1.31,0,0,0,0-2.61Z"/><path class="cls-1" d="M28,64.06H42.25a1.31,1.31,0,0,0,0-2.61H28a1.31,1.31,0,1,0,0,2.61Z"/><path d="M28,76.52H62.35a1.31,1.31,0,0,0,0-2.61H28a1.31,1.31,0,1,0,0,2.61Z"/><path d="M35.29,9.1a16,16,0,1,0,16,16,16.06,16.06,0,0,0-16-16Zm0,29.48A13.44,13.44,0,1,1,48.72,25.14,13.45,13.45,0,0,1,35.29,38.58Z"/></g></g></svg>