<svg xmlns="http://www.w3.org/2000/svg" viewBox="0 0 77.06 53.27"><defs><style>.cls-1{fill:#efa126;}</style></defs><g id="Capa_2" data-name="Capa 2"><g id="Capa_1-2" data-name="Capa 1"><path d="M72.24,53.27H4.82A4.83,4.83,0,0,1,0,48.45V4.82A4.82,4.82,0,0,1,4.82,0H72.24a4.82,4.82,0,0,1,4.82,4.82V48.45a4.83,4.83,0,0,1-4.82,4.82ZM4.82,3.21A1.61,1.61,0,0,0,3.21,4.82V48.45a1.6,1.6,0,0,0,1.61,1.6H72.24a1.6,1.6,0,0,0,1.61-1.6V4.82a1.61,1.61,0,0,0-1.61-1.61Z"/><path class="cls-1" d="M65.89,13.74H11.17c-.55,0-1-.67-1-1.48s.45-1.48,1-1.48H65.89c.55,0,1,.66,1,1.48s-.45,1.48-1,1.48Z"/><path class="cls-1" d="M65.89,22.61H11.17c-.55,0-1-.66-1-1.48s.45-1.48,1-1.48H65.89c.55,0,1,.67,1,1.48s-.45,1.48-1,1.48Z"/><path class="cls-1" d="M65.89,31.49H11.17c-.55,0-1-.67-1-1.48s.45-1.48,1-1.48H65.89c.55,0,1,.66,1,1.48s-.45,1.48-1,1.48Z"/><path class="cls-1" d="M65.89,40.46H11.17c-.55,0-1-.67-1-1.48s.45-1.48,1-1.48H65.89c.55,0,1,.66,1,1.48s-.45,1.48-1,1.48Z"/></g></g></svg>