<svg xmlns="http://www.w3.org/2000/svg" viewBox="0 0 77.06 70.71"><defs><style>.cls-1{fill:#efa126;}</style></defs><g id="Capa_2" data-name="Capa 2"><g id="Capa_1-2" data-name="Capa 1"><path d="M72.24,42.27H4.82A4.83,4.83,0,0,1,0,37.45V4.82A4.82,4.82,0,0,1,4.82,0H72.24a4.82,4.82,0,0,1,4.82,4.82V37.45a4.83,4.83,0,0,1-4.82,4.82ZM4.82,3.21A1.61,1.61,0,0,0,3.21,4.82V37.45a1.6,1.6,0,0,0,1.61,1.6H72.24a1.6,1.6,0,0,0,1.61-1.6V4.82a1.61,1.61,0,0,0-1.61-1.61Z"/><path class="cls-1" d="M14.73,70.71H5.21A4.77,4.77,0,0,1,.45,66V56.43a4.77,4.77,0,0,1,4.76-4.76h9.52a4.77,4.77,0,0,1,4.76,4.76V66a4.77,4.77,0,0,1-4.76,4.76ZM5.21,54.84a1.59,1.59,0,0,0-1.58,1.59V66a1.59,1.59,0,0,0,1.58,1.59h9.52A1.59,1.59,0,0,0,16.32,66V56.43a1.59,1.59,0,0,0-1.59-1.59Z"/><path d="M43.29,70.71H33.77A4.77,4.77,0,0,1,29,66V56.43a4.77,4.77,0,0,1,4.76-4.76h9.52a4.77,4.77,0,0,1,4.76,4.76V66a4.77,4.77,0,0,1-4.76,4.76ZM33.77,54.84a1.59,1.59,0,0,0-1.59,1.59V66a1.59,1.59,0,0,0,1.59,1.59h9.52A1.59,1.59,0,0,0,44.87,66V56.43a1.59,1.59,0,0,0-1.58-1.59Z"/><path d="M71.84,70.71H62.32A4.76,4.76,0,0,1,57.57,66V56.43a4.76,4.76,0,0,1,4.75-4.76h9.52a4.76,4.76,0,0,1,4.76,4.76V66a4.76,4.76,0,0,1-4.76,4.76ZM62.32,54.84a1.59,1.59,0,0,0-1.58,1.59V66a1.59,1.59,0,0,0,1.58,1.59h9.52A1.59,1.59,0,0,0,73.43,66V56.43a1.59,1.59,0,0,0-1.59-1.59Z"/></g></g></svg>