<svg xmlns="http://www.w3.org/2000/svg" xmlns:xlink="http://www.w3.org/1999/xlink" viewBox="0 0 339.51 352.45"><defs><style>.cls-1{isolation:isolate;}.cls-2{fill:#fff;}.cls-3{fill:#efa126;}.cls-4{fill:#fdfad9;}.cls-5{fill:#f6a328;}.cls-6{fill:none;}.cls-7{fill:#1d1d1b;}.cls-8{fill:#f3f4d2;}.cls-9{mix-blend-mode:multiply;}.cls-10{opacity:0;}.cls-11{opacity:0.03;}.cls-12{fill:#faf8f5;}.cls-13{opacity:0.06;}.cls-14{fill:#f6f0eb;}.cls-15{opacity:0.1;}.cls-16{fill:#f0e8e1;}.cls-17{opacity:0.13;}.cls-18{fill:#ebe0d7;}.cls-19{opacity:0.16;}.cls-20{fill:#e6d9cd;}.cls-21{opacity:0.19;}.cls-22{fill:#e2d2c4;}.cls-23{opacity:0.23;}.cls-24{fill:#ddcbbb;}.cls-25{opacity:0.26;}.cls-26{fill:#d8c4b1;}.cls-27{opacity:0.29;}.cls-28{fill:#d4bda8;}.cls-29{opacity:0.32;}.cls-30{fill:#cfb69f;}.cls-31{opacity:0.35;}.cls-32{fill:#cbaf97;}.cls-33{opacity:0.39;}.cls-34{fill:#c6a88e;}.cls-35{opacity:0.42;}.cls-36{fill:#c2a286;}.cls-37{opacity:0.45;}.cls-38{fill:#bd9b7d;}.cls-39{opacity:0.48;}.cls-40{fill:#b99575;}.cls-41{opacity:0.52;}.cls-42{fill:#b58e6d;}.cls-43{opacity:0.55;}.cls-44{fill:#b08866;}.cls-45{opacity:0.58;}.cls-46{fill:#ac825e;}.cls-47{opacity:0.61;}.cls-48{fill:#a87c57;}.cls-49{opacity:0.65;}.cls-50{fill:#a47650;}.cls-51{opacity:0.68;}.cls-52{fill:#a07149;}.cls-53{opacity:0.71;}.cls-54{fill:#9b6b42;}.cls-55{opacity:0.74;}.cls-56{fill:#97663b;}.cls-57{opacity:0.77;}.cls-58{fill:#946035;}.cls-59{opacity:0.81;}.cls-60{fill:#905b2f;}.cls-61{opacity:0.84;}.cls-62{fill:#8c5629;}.cls-63{opacity:0.87;}.cls-64{fill:#885124;}.cls-65{opacity:0.9;}.cls-66{fill:#844c1f;}.cls-67{opacity:0.94;}.cls-68{fill:#81481a;}.cls-69{opacity:0.97;}.cls-70{fill:#7d4316;}.cls-71{fill:#793f11;}.cls-72{fill:url(#Degradado_sin_nombre_11);}</style><linearGradient id="Degradado_sin_nombre_11" x1="155.07" y1="124.2" x2="182.29" y2="431.72" gradientUnits="userSpaceOnUse"><stop offset="0" stop-color="#f7a82a"/><stop offset="0.99" stop-color="#7b4109"/></linearGradient></defs><g class="cls-1"><g id="Capa_2" data-name="Capa 2"><g id="Capa_1-2" data-name="Capa 1"><path class="cls-2" d="M264.78,295.6c-37.79,74.75-172.1,67.9-200.15,0V103.17l51.24-42.71h96.49l52.42,42.71Z"/><path class="cls-3" d="M163.9,352.45c-1.88,0-3.74,0-5.57-.1-45.59-1.74-83.58-23.52-96.78-55.48l-.26-.61V101.61l53.37-44.48h98.89l54.57,44.45V296.39l-.36.71C247.06,338,201.58,352.45,163.9,352.45ZM68,294.93c12.44,29.23,47.92,49.13,90.62,50.76C194.92,347,241,334.41,261.45,294.8v-190l-50.27-41h-94.1L68,104.73Z"/><path class="cls-4" d="M164.06,338.26c-40.94,0-75.62-17.43-88.34-44.42l-.23-.5V108.25L119.8,71.32h88.7l45.42,37V292.93l-.31.55C235.12,326.5,195.23,338.26,164.06,338.26Z"/><path class="cls-5" d="M126.16,160.44a16.67,16.67,0,0,1-16.66-16.66v-.59A16.7,16.7,0,0,1,122.15,127l1.5-22.5A31.81,31.81,0,0,1,96.19,73a31.48,31.48,0,0,1,10.89-23.93,18.24,18.24,0,0,1-.46-4.11,18.84,18.84,0,0,1,10.23-16.75,26.31,26.31,0,0,1-.15-2.81,25.42,25.42,0,0,1,47.43-12.75,18.75,18.75,0,0,1,15.75,4.77,20,20,0,0,1,3.71-.35,19.48,19.48,0,0,1,18.93,24l.75,11.31h5.64a16.68,16.68,0,0,1,16.66,16.66V99.16a16.68,16.68,0,0,1-16.66,16.66h-1.43l.75,11.32a16.69,16.69,0,0,1,12.21,16v.59a16.68,16.68,0,0,1-16.66,16.66Z"/><path class="cls-6" d="M208.91,60.78H195.48l-1.37-20.54a11.32,11.32,0,0,0,.62-3.65,11.13,11.13,0,0,0-17.76-9,10.49,10.49,0,0,0-17.78-3.21,17.09,17.09,0,1,0-31.38,10.35,10.81,10.81,0,0,0-2.36-.27A10.49,10.49,0,0,0,117.66,52a23.43,23.43,0,0,0,14.9,44l0,.45L130,134.86h-3.82a8.32,8.32,0,0,0-8.33,8.33v.59a8.32,8.32,0,0,0,8.33,8.33h77.62a8.33,8.33,0,0,0,8.33-8.33v-.59a8.33,8.33,0,0,0-8.33-8.33h-3.39l-1.82-27.37h10.34a8.33,8.33,0,0,0,8.33-8.33v-30A8.33,8.33,0,0,0,208.91,60.78Z"/><path class="cls-7" d="M208.91,110.82H190.78v-6.67h18.13a5,5,0,0,0,5-5v-30a5,5,0,0,0-5-5H186.52V57.45h22.39a11.68,11.68,0,0,1,11.67,11.66V99.16A11.68,11.68,0,0,1,208.91,110.82Z"/><path class="cls-7" d="M200.39,134.86H130l2.55-38.39h0c.4-.37,5.32-4.53,14-6.91a48.39,48.39,0,0,1,18.6-1.27c20.51,2.43,30.29-22.23,30.57-23h0Z"/><path class="cls-5" d="M195.78,65.31h0c-.28.73-10.06,25.39-30.57,23a48.39,48.39,0,0,0-18.6,1.27c-8.71,2.38-13.63,6.54-14,6.91h0l4.12-62h57.08Z"/><rect class="cls-7" x="117.83" y="134.86" width="94.28" height="17.24" rx="8.33"/><path class="cls-2" d="M151.39,73A23.44,23.44,0,1,1,128,49.61,23.43,23.43,0,0,1,151.39,73Z"/><path class="cls-2" d="M135.94,45a10.5,10.5,0,1,1-10.49-10.5A10.49,10.49,0,0,1,135.94,45Z"/><path class="cls-2" d="M177.63,31.28a10.5,10.5,0,1,1-10.5-10.5A10.5,10.5,0,0,1,177.63,31.28Z"/><path class="cls-2" d="M194.73,36.59a11.15,11.15,0,1,1-11.14-11.15A11.14,11.14,0,0,1,194.73,36.59Z"/><path class="cls-2" d="M174,43.64a12.37,12.37,0,1,1-12.36-12.36A12.36,12.36,0,0,1,174,43.64Z"/><path class="cls-2" d="M153.9,49.61a11.77,11.77,0,1,1-11.77-11.77A11.77,11.77,0,0,1,153.9,49.61Z"/><path class="cls-2" d="M159.24,25.44a17.11,17.11,0,1,1-17.1-17.11A17.11,17.11,0,0,1,159.24,25.44Z"/><path class="cls-8" d="M172.44,108.52a6.6,6.6,0,1,1-6.6-6.6A6.59,6.59,0,0,1,172.44,108.52Z"/><path class="cls-8" d="M184.17,85.67a5.07,5.07,0,1,1-5.07-5.06A5.07,5.07,0,0,1,184.17,85.67Z"/><path class="cls-8" d="M165.79,70.19a2.86,2.86,0,1,1-2.86-2.86A2.86,2.86,0,0,1,165.79,70.19Z"/><path class="cls-7" d="M87.69,304.48v-37.4L99.06,267a24.57,24.57,0,0,1,4.76.42,11.21,11.21,0,0,1,3.71,1.38,6.55,6.55,0,0,1,2.45,2.61,8.69,8.69,0,0,1,.85,4.07,8.55,8.55,0,0,1-1,4.15,8.17,8.17,0,0,1-3.22,3.13v.09a13.1,13.1,0,0,1,2.45,1.35,5.74,5.74,0,0,1,1.44,1.48,5.27,5.27,0,0,1,.71,1.93,15,15,0,0,1,.18,2.69,10.14,10.14,0,0,1-3,7.64,16.61,16.61,0,0,1-8.44,3.89C95,302.81,92.57,303.34,87.69,304.48ZM96.43,281c.16,0,.43-.06.79-.11a9.88,9.88,0,0,0,3.83-1.09c.67-.48,1-1.59,1-3.34,0-1.44-.41-2.32-1.26-2.66a12,12,0,0,0-4.35-.38C96.44,276.46,96.44,278,96.43,281Zm0,15.16.79-.13c1.21-.22,2.11-.43,2.67-.58a4.11,4.11,0,0,0,1.49-.75,2.91,2.91,0,0,0,1-1.45,8.89,8.89,0,0,0,.31-2.54,4.69,4.69,0,0,0-.39-2.12,2.22,2.22,0,0,0-1.11-1.07,4.5,4.5,0,0,0-1.66-.32c-.63,0-1.48,0-2.53.14l-.5.06C96.4,290.91,96.4,292.66,96.39,296.17Z"/><path class="cls-7" d="M114.87,299.27q.09-16.15.19-32.31l8.78,0c-.06,10-.09,14.95-.16,24.92,4.29-.43,6.44-.61,10.74-.92,0,2.4,0,3.6,0,6C126.56,297.64,122.66,298.11,114.87,299.27Z"/><path class="cls-7" d="M161.13,286.43c0,3.37-.91,5.85-2.72,7.48s-4.87,2.5-9.19,2.7-7.44-.38-9.26-1.91-2.73-4-2.72-7.5c0-4.85,0-7.27.07-12.12a7.77,7.77,0,0,1,3.15-6.61c2.09-1.54,5-2.29,8.86-2.29s6.75.75,8.78,2.23a7.4,7.4,0,0,1,3,6.35C161.13,279.43,161.13,281.76,161.13,286.43Zm-8.79-11.15a10.68,10.68,0,0,0-.09-1.48,3.45,3.45,0,0,0-.4-1.17,2.24,2.24,0,0,0-.92-.88,3.35,3.35,0,0,0-1.67-.34,3.6,3.6,0,0,0-1.65.36,2.25,2.25,0,0,0-1,.93,4.28,4.28,0,0,0-.43,1.23,7.2,7.2,0,0,0-.13,1.44l0,12a8.57,8.57,0,0,0,.12,1.44,4.54,4.54,0,0,0,.44,1.3,2.41,2.41,0,0,0,1,1,3.16,3.16,0,0,0,1.65.32,3.35,3.35,0,0,0,1.65-.45,2.27,2.27,0,0,0,.93-1,4.31,4.31,0,0,0,.38-1.28,9.73,9.73,0,0,0,.11-1.49C152.32,282.41,152.33,280,152.34,275.28Z"/><path class="cls-7" d="M180,277v-1.86a4.5,4.5,0,0,0-.75-2.79,2.48,2.48,0,0,0-2.06-1,3.72,3.72,0,0,0-2.66.71,3,3,0,0,0-.72,2.26c0,5.7,0,8.55,0,14.25a2.48,2.48,0,0,0,.75,1.94,3.78,3.78,0,0,0,2.41.71,3.35,3.35,0,0,0,1.73-.32,2.44,2.44,0,0,0,1-1,3.86,3.86,0,0,0,.42-1.28,10.08,10.08,0,0,0,.09-1.5c0-1.05,0-1.58,0-2.63,3.53.1,5.29.16,8.81.32,0,1.45,0,2.17,0,3.62a6.88,6.88,0,0,1-3.08,6.12c-2.06,1.4-5.27,2-9.62,1.81-4-.13-6.82-.94-8.61-2.5S165,290.11,165,287.1V275.32q0-4.67,2.87-6.9t8.9-2.24c3.86,0,6.82.68,8.89,2.06s3.11,3.55,3.12,6.48v2.48C185.31,277.11,183.55,277.08,180,277Z"/><path class="cls-7" d="M193.17,296.74q-.07-14.91-.16-29.84l8.78,0c0,4.91,0,7.36.07,12.27h.1c2.57-4.79,3.85-7.24,6.41-12.26l9,0c-3.16,5.76-4.74,8.53-7.89,13.91,3.43,7.26,5.15,11,8.57,18.88-3.7-.59-5.55-.86-9.26-1.34-2-4.64-3-6.9-4.91-11.35l-1.93,3,0,7.57C198.46,297.21,196.7,297,193.17,296.74Z"/><path class="cls-7" d="M227.56,289.91c0,1,0,1.46,0,2.43a5,5,0,0,0,.78,2.83,3.88,3.88,0,0,0,2.71,1.46,2.1,2.1,0,0,0,2.17-.67,3.65,3.65,0,0,0,.74-2.39,4.37,4.37,0,0,0-1.05-3,16.79,16.79,0,0,0-3.13-2.6l-.7-.45c-1.56-1-2.86-1.9-3.91-2.68a19.25,19.25,0,0,1-2.72-2.43,10.57,10.57,0,0,1-1.91-3.1,10.15,10.15,0,0,1-.66-3.72,8.42,8.42,0,0,1,2.87-7c1.94-1.61,4.64-2.45,8.1-2.45s6.31,1,8.25,3A11.31,11.31,0,0,1,242,277.3l-.05.5v.5c-3.22-.24-4.83-.35-8-.56v-.43c0-.7-.09-1.29-.16-1.77a5.6,5.6,0,0,0-.37-1.39,2.8,2.8,0,0,0-.85-1.13,2.84,2.84,0,0,0-1.52-.52,3.19,3.19,0,0,0-2.14.53,2.4,2.4,0,0,0-.89,1.67,1.2,1.2,0,0,1,0,.27,2,2,0,0,0-.05.28,3.2,3.2,0,0,0,.68,2,9.81,9.81,0,0,0,2,1.82c.65.46,1.71,1.13,3.14,2a31.43,31.43,0,0,1,5,3.77,10.44,10.44,0,0,1,2.42,3.84,16.16,16.16,0,0,1,.8,5.45c0,3.59-1,6.17-2.86,7.65s-4.66,1.78-8.29,1a20.23,20.23,0,0,1-5-1.67,13.17,13.17,0,0,1-3.58-2.49,9.56,9.56,0,0,1-2.08-3,8.53,8.53,0,0,1-.69-3.27c0-1.41,0-2.11,0-3.52C222.71,289.31,224.33,289.5,227.56,289.91Z"/><g class="cls-9"><g class="cls-10"><path class="cls-2" d="M86.16,226.16A214.83,214.83,0,0,0,81,247.72c-2.14,12-7.15,23.81-1.42,22.46,9.28-1.88,22.75-12,27.9-30.72C113.48,217.33,100.49,220.46,86.16,226.16Zm-27.83,9.15C60.52,234,50,253.12,48.11,253.67,26.52,260,3.31,241.89,18.68,205.31c13.36-32.15,53.23-67.2,95.23-79.49,27-7.9,45.26,0,36.12,31-6.49,22.11-25.82,44.14-46.7,57.44,16.37-3.46,30.91-1.2,25.09,19.05-7,23.77-37.3,43.16-54.71,42.07-7.09-.42-16.92-8.24-12.11-28.53,4.8-20.95,22.59-84.13,26.55-102.83.17-.72,25.65-6,23.49,1.65-.83,2.74-9.35,25.79-17.16,52-2.5,8.25-4.5,15-6.16,21,18.38-8.22,34.31-32.26,40.79-55.71,7.81-28,1.7-35.58-18.54-29.66C72.62,144.41,53.13,167.16,39.75,196,23.35,231,23,257.35,58.33,235.31Z"/><path class="cls-2" d="M152.5,220.78c18.82-22,32-54,26.94-55.16-6.92-1.49-18.65,20.32-24.29,41.52A102.39,102.39,0,0,0,152.5,220.78Zm-.48,6c-.12,9.56,2.6,14.95,7.33,14.4,7.09-.74,25.43-16.47,35-37.47,3.18-6.77,4-7.52,4-4.52,0,1-.49,3.48-2.5,7.59-9.7,19.71-29.37,41-43.2,45-15.18,4.44-25.23-14.34-18.41-38.56,10.31-36.43,39.08-59,46.71-53.93,2.2,1.7,14.2,4.2,12.89,11.93C191.85,182.37,172,207.38,152,226.77Z"/><path class="cls-2" d="M208.33,204.45c18.82-22,32-54,26.94-55.17-6.93-1.48-18.65,20.33-24.3,41.53A103.53,103.53,0,0,0,208.33,204.45Zm-.48,6c-.13,9.57,2.6,14.95,7.33,14.4,7.09-.74,25.42-16.47,35-37.47,3.18-6.77,4-7.52,4-4.52,0,1-.49,3.49-2.5,7.59-9.71,19.71-29.37,41-43.2,45-15.18,4.44-25.23-14.33-18.41-38.55,10.3-36.43,39.08-59.06,46.7-53.93,2.21,1.69,14.21,4.19,12.9,11.93C247.68,166,227.86,191.05,207.85,210.43Z"/><path class="cls-2" d="M279.4,229.38c-2,38.36,4.71,69.8,20.73,65.12,22.26-6.52,33.07-45.43,10.53-61.06C303.37,228.38,292.22,227.3,279.4,229.38Zm-20.24,5.1c-29.52,9.64-63.88,30.21-88.44,52.77-2.69,2.46-9.36-16.47,11.69-31,18.35-12.71,48.36-25,77-31.23a238.44,238.44,0,0,1,7.73-46.87c8.14-30.45,10.17-28,5.78-28.42a27.85,27.85,0,0,1-5.07-.69c-4.5,13.34-10.85,28.23-16,39.61-1.84,4.05-3.52,6.21-4.36,7-2.53,2.4-2.53,1.41.65-5.2,7.86-16.18,12-31.26,13.65-43.27-5.58-2.37-9.48-6.08-10.35-10.5-2.06-7.91,21.72-14.71,21.73-14.21.52,4.19-.46,10-2.3,16.71a52.16,52.16,0,0,0,5.41.42c15.88,1,21.79-.86,16.79,15.47-2.16,6.82-3.49,12.05-4.82,17.12a279.93,279.93,0,0,0-8.39,49.57c19.25-2.12,36.31-.44,47,7,25.76,17.86,10.41,60.27-29.9,72.07C269.29,308.86,258.32,274.82,259.16,234.48Z"/></g><g class="cls-11"><path class="cls-12" d="M85.79,225.8a220.39,220.39,0,0,0-5.14,21.55c-2.14,12-7.17,23.72-1.41,22.47,9.24-2,22.78-12,27.89-30.72C113.16,217,100.12,220.1,85.79,225.8ZM58,234.94c2.19-1.31-8.37,17.82-10.23,18.36-21.59,6.32-44.8-11.78-29.43-48.36,13.37-32.15,53.24-67.2,95.24-79.49,27-7.9,45.26,0,36.11,31-6.49,22.12-25.81,44.15-46.7,57.44,16.37-3.45,31-1.17,25.09,19.06-6.92,23.78-37.3,43.16-54.7,42.07-7.1-.43-16.85-8.23-12.12-28.53,4.88-20.94,22.59-84.13,26.56-102.84.16-.72,25.64-6,23.48,1.65-.83,2.74-9.34,25.79-17.16,52-2.5,8.25-4.49,15-6.16,21,18.38-8.22,34.32-32.26,40.79-55.71,7.82-28,1.7-35.58-18.54-29.66-37.95,11.11-57.44,33.85-70.82,62.67C23,230.64,22.6,257,58,234.94Z"/><path class="cls-12" d="M152.13,220.42c18.82-22,32-54,27-55.17-6.92-1.55-18.66,20.32-24.3,41.53A103.39,103.39,0,0,0,152.13,220.42Zm-.47,6c-.13,9.56,2.59,14.92,7.32,14.4,7.09-.78,25.43-16.46,35-37.46,3.17-6.78,4-7.53,4-4.53,0,1-.49,3.49-2.5,7.59-9.71,19.71-29.37,41-43.21,45-15.18,4.44-25.22-14.34-18.41-38.55C144.17,176.47,173,153.85,180.57,159c2.2,1.7,14.24,4.2,12.89,11.94C191.53,182,171.67,207,151.66,226.4Z"/><path class="cls-12" d="M208,204.08c18.82-22.05,32-54,26.94-55.17-6.91-1.54-18.65,20.33-24.3,41.53A103.53,103.53,0,0,0,208,204.08Zm-.48,6c-.12,9.57,2.6,14.93,7.33,14.4,7.09-.78,25.43-16.46,35-37.46,3.18-6.77,4-7.53,4-4.53,0,1-.5,3.49-2.51,7.59-9.71,19.72-29.37,41-43.2,45.05-15.18,4.45-25.23-14.33-18.41-38.55,10.31-36.43,39.08-59.05,46.71-53.93,2.2,1.69,14.23,4.2,12.89,11.93C247.36,165.68,227.49,190.68,207.48,210.06Z"/><path class="cls-12" d="M279,229c-2,38.35,4.71,69.8,20.73,65.11,22.27-6.52,33.07-45.43,10.54-61.06C303,228,291.86,226.94,279,229Zm-20.24,5.09c-29.51,9.64-63.88,30.22-88.43,52.77-2.69,2.47-9.37-16.47,11.68-31,18.35-12.72,48.36-25,77-31.23a239.68,239.68,0,0,1,7.73-46.87c8.14-30.45,10.18-28.09,5.79-28.43a29.72,29.72,0,0,1-5.07-.69c-4.5,13.35-10.86,28.24-16,39.61-1.84,4.05-3.52,6.21-4.36,7-2.52,2.41-2.53,1.41.65-5.2a145.86,145.86,0,0,0,13.66-43.26c-5.59-2.37-9.35-6.11-10.35-10.51-1.82-8,21.72-14.7,21.72-14.21.53,4.2-.46,10-2.29,16.72,1.52.22,3.38.34,5.41.42,15.88,1,21.78-.86,16.79,15.47-2.17,6.81-3.49,12-4.82,17.12a278.92,278.92,0,0,0-8.39,49.56c19.24-2.12,36.31-.43,47,7,25.75,17.86,10.4,60.28-29.91,72.07C268.92,308.49,258,274.45,258.79,234.11Z"/></g><g class="cls-13"><path class="cls-14" d="M85.42,225.43A217.13,217.13,0,0,0,80.29,247c-2.14,12-7.18,23.73-1.42,22.47,9.25-2,22.79-12,27.9-30.72C112.8,216.61,99.76,219.73,85.42,225.43ZM57.6,234.57c2.19-1.3-8.37,17.82-10.22,18.36-21.59,6.32-44.81-11.78-29.44-48.35,13.37-32.15,53.24-67.21,95.24-79.5,27-7.89,45.26,0,36.11,31-6.48,22.12-25.81,44.15-46.69,57.44,16.36-3.45,31-1.17,25.08,19.06-6.91,23.79-37.3,43.16-54.7,42.07-7.09-.43-16.85-8.23-12.12-28.53C65.74,225.22,83.45,162,87.42,143.31c.17-.71,25.65-6,23.48,1.65-.83,2.75-9.34,25.79-17.16,52-2.49,8.25-4.49,15-6.15,21,18.37-8.22,34.31-32.27,40.79-55.71,7.81-28,1.7-35.59-18.54-29.66C71.89,143.68,52.39,166.43,39,195.24,22.62,230.27,22.23,256.62,57.6,234.57Z"/><path class="cls-14" d="M151.77,220.05c18.82-22.05,32-54,26.94-55.16-6.91-1.55-18.65,20.32-24.3,41.52A103.53,103.53,0,0,0,151.77,220.05Zm-.48,6c-.13,9.56,2.6,14.91,7.32,14.39,7.09-.78,25.43-16.46,35-37.46,3.17-6.78,4-7.53,4-4.52,0,1-.49,3.48-2.5,7.58-9.71,19.72-29.37,41-43.2,45.05-15.18,4.45-25.23-14.33-18.41-38.55,10.3-36.43,39.08-59.05,46.7-53.93,2.21,1.69,14.24,4.2,12.89,11.93C191.16,181.64,171.3,206.65,151.29,226Z"/><path class="cls-14" d="M207.6,203.71c18.81-22,32-54,26.94-55.16-6.92-1.55-18.66,20.32-24.3,41.53A101.8,101.8,0,0,0,207.6,203.71Zm-.48,6c-.13,9.56,2.59,14.92,7.32,14.4,7.09-.78,25.43-16.47,35-37.47,3.17-6.77,4-7.53,4-4.52,0,1-.49,3.49-2.5,7.58-9.71,19.72-29.37,41-43.2,45.06-15.18,4.44-25.24-14.34-18.42-38.56,10.31-36.43,39.08-59.05,46.71-53.93,2.2,1.69,14.24,4.2,12.89,11.94C247,165.31,227.13,190.31,207.12,209.7Z"/><path class="cls-14" d="M278.67,228.65c-2,38.35,4.7,69.8,20.72,65.11,22.27-6.52,33.07-45.43,10.54-61.06C302.64,227.65,291.49,226.57,278.67,228.65Zm-20.25,5.09C228.91,243.38,194.55,264,170,286.52c-2.69,2.46-9.36-16.48,11.69-31,18.35-12.72,48.35-25,77-31.23a239.17,239.17,0,0,1,7.72-46.87c8.14-30.45,10.18-28.09,5.79-28.42a30.76,30.76,0,0,1-5.07-.69c-4.5,13.34-10.85,28.23-16,39.61-1.85,4-3.53,6.21-4.37,6.95-2.52,2.41-2.52,1.41.65-5.2a145.86,145.86,0,0,0,13.66-43.26c-5.58-2.37-9.35-6.11-10.35-10.5-1.82-8,21.72-14.71,21.73-14.21.52,4.19-.47,10-2.3,16.71a52.16,52.16,0,0,0,5.41.42c15.88,1,21.78-.86,16.79,15.47-2.17,6.82-3.49,12.05-4.82,17.12A278.92,278.92,0,0,0,279.14,221c19.24-2.12,36.31-.43,47,7,25.76,17.85,10.41,60.27-29.91,72.06C268.56,308.13,257.59,274.08,258.42,233.74Z"/></g><g class="cls-15"><path class="cls-16" d="M85.06,225.06a217.63,217.63,0,0,0-5.14,21.56c-2.14,12-7.17,23.72-1.42,22.46,9.25-2,22.79-12,27.9-30.72C112.43,216.25,99.39,219.36,85.06,225.06Zm-27.83,9.15C59.42,232.9,48.87,252,47,252.57c-21.59,6.32-44.8-11.78-29.43-48.36,13.36-32.15,53.23-67.2,95.23-79.49,27-7.9,45.27,0,36.12,31-6.49,22.12-25.81,44.14-46.7,57.44,16.37-3.46,31-1.18,25.09,19.05C120.4,256,90,275.4,72.61,274.31c-7.09-.42-16.85-8.22-12.11-28.53C65.38,224.85,83.09,161.65,87.05,143c.17-.72,25.65-6,23.49,1.65-.83,2.74-9.35,25.79-17.16,52-2.5,8.26-4.49,15-6.16,21,18.38-8.22,34.31-32.26,40.79-55.71,7.81-28,1.7-35.58-18.54-29.66C71.52,143.31,52,166.06,38.65,194.87,22.25,229.91,21.87,256.25,57.23,234.21Z"/><path class="cls-16" d="M151.4,219.68c18.82-22,32-54,26.94-55.16-6.91-1.55-18.65,20.32-24.29,41.52A102.39,102.39,0,0,0,151.4,219.68Zm-.48,6c-.12,9.56,2.6,14.92,7.33,14.4,7.09-.79,25.43-16.47,35-37.47,3.18-6.77,4-7.52,4-4.52,0,1-.49,3.48-2.5,7.59-9.7,19.71-29.37,41-43.2,45.05-15.18,4.44-25.23-14.34-18.41-38.56,10.31-36.43,39.08-59,46.71-53.93,2.2,1.7,14.23,4.2,12.89,11.93C190.8,181.28,170.93,206.28,150.92,225.67Z"/><path class="cls-16" d="M207.23,203.35c18.82-22,32-54,26.94-55.17-6.92-1.55-18.65,20.33-24.3,41.53A103.53,103.53,0,0,0,207.23,203.35Zm-.48,6c-.13,9.57,2.6,14.92,7.33,14.4,7.08-.78,25.42-16.47,35-37.46,3.18-6.78,4-7.53,4-4.53,0,1-.49,3.49-2.5,7.59-9.71,19.71-29.37,41-43.2,45-15.18,4.44-25.23-14.33-18.41-38.55,10.3-36.43,39.08-59.06,46.7-53.93,2.21,1.69,14.24,4.2,12.9,11.93C246.62,164.94,226.76,190,206.75,209.33Z"/><path class="cls-16" d="M278.3,228.28c-2,38.36,4.71,69.8,20.73,65.12,22.26-6.52,33.07-45.43,10.53-61.06C302.28,227.28,291.12,226.2,278.3,228.28Zm-20.24,5.1c-29.52,9.64-63.88,30.21-88.44,52.77-2.69,2.46-9.36-16.47,11.69-31,18.35-12.71,48.36-25,77-31.23a238.22,238.22,0,0,1,7.73-46.86c8.14-30.46,10.18-28.09,5.78-28.43a29.86,29.86,0,0,1-5.07-.69c-4.49,13.34-10.85,28.24-16,39.61-1.84,4.05-3.52,6.21-4.36,7-2.53,2.4-2.53,1.41.65-5.2,7.86-16.18,12-31.26,13.65-43.27-5.58-2.37-9.34-6.11-10.35-10.5-1.81-8,21.73-14.71,21.73-14.21.53,4.19-.46,10-2.29,16.71a49.13,49.13,0,0,0,5.4.42c15.88,1,21.79-.86,16.79,15.47-2.16,6.82-3.49,12.05-4.81,17.12a279,279,0,0,0-8.4,49.57c19.25-2.12,36.31-.44,47,7,25.76,17.86,10.41,60.27-29.9,72.07C268.19,307.76,257.22,273.72,258.06,233.38Z"/></g><g class="cls-17"><path class="cls-18" d="M84.69,224.7a220.39,220.39,0,0,0-5.14,21.55c-2.14,12-7.17,23.72-1.41,22.47,9.24-2,22.78-12,27.89-30.72C112.06,215.88,99,219,84.69,224.7Zm-27.82,9.14c2.19-1.31-8.37,17.82-10.22,18.36-21.6,6.32-44.81-11.78-29.44-48.36,13.37-32.15,53.24-67.2,95.24-79.49,27-7.9,45.26,0,36.11,31-6.49,22.12-25.81,44.15-46.69,57.44,16.36-3.45,31-1.17,25.08,19.06C120,255.66,89.65,275,72.25,274c-7.1-.43-16.85-8.23-12.12-28.53C65,224.48,82.72,161.29,86.69,142.58c.16-.72,25.64-6,23.48,1.65-.83,2.75-9.34,25.79-17.16,52-2.5,8.25-4.49,15-6.16,21C105.23,209,121.17,185,127.64,161.5c7.82-28,1.7-35.58-18.54-29.66C71.15,143,51.66,165.7,38.28,194.51,21.89,229.54,21.5,255.89,56.87,233.84Z"/><path class="cls-18" d="M151,219.32c18.83-22,32-54,26.95-55.17-6.92-1.55-18.66,20.32-24.3,41.53A103.39,103.39,0,0,0,151,219.32Zm-.47,6c-.13,9.56,2.59,14.92,7.32,14.4,7.09-.78,25.43-16.46,35-37.46,3.17-6.78,4-7.53,4-4.53,0,1-.49,3.49-2.5,7.59-9.71,19.71-29.37,41-43.21,45C136,254.79,126,236,132.76,211.8c10.31-36.43,39.09-59.05,46.71-53.94,2.2,1.7,14.24,4.2,12.89,11.94C190.43,180.91,170.57,205.92,150.56,225.3Z"/><path class="cls-18" d="M206.86,203c18.82-22,32-54,26.94-55.17-6.91-1.54-18.65,20.33-24.29,41.53A102.08,102.08,0,0,0,206.86,203Zm-.48,6c-.12,9.57,2.6,14.93,7.33,14.4,7.09-.78,25.43-16.46,35-37.46,3.18-6.77,4-7.53,4-4.53,0,1-.49,3.49-2.51,7.59-9.71,19.72-29.37,41-43.2,45-15.18,4.45-25.23-14.33-18.41-38.55,10.31-36.43,39.08-59.05,46.71-53.93,2.2,1.69,14.23,4.2,12.89,11.93C246.26,164.58,226.39,189.58,206.38,209Z"/><path class="cls-18" d="M277.93,227.92c-2,38.35,4.71,69.8,20.73,65.11,22.27-6.52,33.07-45.43,10.54-61.06C301.91,226.91,290.76,225.84,277.93,227.92ZM257.69,233c-29.51,9.64-63.88,30.22-88.43,52.77-2.69,2.47-9.36-16.47,11.68-31,18.35-12.72,48.36-25,77.05-31.23a238.93,238.93,0,0,1,7.72-46.87c8.14-30.45,10.18-28.09,5.79-28.43a29.72,29.72,0,0,1-5.07-.69c-4.5,13.35-10.86,28.24-16,39.61-1.84,4.05-3.52,6.21-4.36,7-2.52,2.41-2.53,1.41.65-5.2a145.86,145.86,0,0,0,13.66-43.26c-5.59-2.37-9.35-6.11-10.35-10.51-1.82-8,21.72-14.7,21.72-14.21.53,4.2-.46,10-2.29,16.72,1.52.22,3.38.34,5.41.42,15.88,1,21.78-.86,16.79,15.47-2.17,6.81-3.49,12-4.82,17.12a278.92,278.92,0,0,0-8.39,49.56c19.24-2.12,36.31-.43,47,7,25.75,17.86,10.4,60.28-29.91,72.07C267.82,307.4,256.86,273.35,257.69,233Z"/></g><g class="cls-19"><path class="cls-20" d="M84.32,224.33a217.13,217.13,0,0,0-5.13,21.55c-2.14,12-7.18,23.73-1.42,22.47,9.25-2,22.79-12,27.9-30.72C111.7,215.51,98.66,218.63,84.32,224.33ZM56.5,233.47c2.19-1.3-8.37,17.82-10.22,18.36-21.59,6.32-44.81-11.78-29.44-48.35,13.37-32.15,53.24-67.21,95.24-79.5,27-7.89,45.26,0,36.11,31-6.48,22.12-25.81,44.15-46.69,57.44,16.37-3.45,31-1.17,25.08,19.06-6.91,23.79-37.29,43.16-54.7,42.07-7.09-.43-16.85-8.23-12.12-28.53,4.88-20.93,22.59-84.13,26.56-102.84.17-.71,25.65-6,23.49,1.65-.84,2.75-9.35,25.79-17.17,52-2.49,8.25-4.49,15-6.15,21,18.37-8.22,34.31-32.26,40.79-55.71,7.81-28,1.7-35.59-18.54-29.66-37.95,11.1-57.45,33.85-70.83,62.66C21.52,229.18,21.13,255.52,56.5,233.47Z"/><path class="cls-20" d="M150.67,219c18.82-22,32-54,26.94-55.16-6.91-1.55-18.65,20.32-24.3,41.52A103.53,103.53,0,0,0,150.67,219Zm-.48,6c-.13,9.56,2.6,14.91,7.33,14.39,7.08-.78,25.42-16.46,35-37.46,3.17-6.78,4-7.53,4-4.52,0,1-.49,3.48-2.5,7.58-9.71,19.72-29.37,41-43.2,45.06-15.18,4.44-25.23-14.34-18.41-38.56,10.3-36.43,39.08-59.05,46.7-53.93,2.21,1.69,14.24,4.2,12.89,11.93C190.06,180.54,170.2,205.55,150.19,224.94Z"/><path class="cls-20" d="M206.5,202.61c18.81-22,32-54,26.94-55.16-6.92-1.55-18.66,20.32-24.3,41.53A101.8,101.8,0,0,0,206.5,202.61Zm-.48,6c-.13,9.56,2.59,14.92,7.33,14.4,7.08-.78,25.42-16.47,35-37.47,3.17-6.77,4-7.53,4-4.52,0,1-.49,3.49-2.5,7.58-9.71,19.72-29.37,41-43.2,45.06-15.18,4.44-25.23-14.34-18.42-38.56,10.31-36.43,39.08-59.05,46.71-53.93,2.21,1.69,14.24,4.2,12.89,11.94C245.89,164.21,226,189.21,206,208.6Z"/><path class="cls-20" d="M277.57,227.55c-2,38.35,4.7,69.8,20.72,65.11,22.27-6.52,33.07-45.43,10.54-61.06C301.54,226.55,290.39,225.47,277.57,227.55Zm-20.25,5.09c-29.51,9.64-63.87,30.22-88.43,52.78-2.69,2.46-9.36-16.48,11.69-31,18.35-12.72,48.35-25,77-31.23a239.17,239.17,0,0,1,7.72-46.87c8.14-30.45,10.18-28.09,5.79-28.42a30.76,30.76,0,0,1-5.07-.69c-4.5,13.34-10.85,28.23-16,39.61-1.85,4-3.53,6.21-4.37,6.95-2.52,2.41-2.52,1.41.65-5.2A145.86,145.86,0,0,0,260,145.32c-5.58-2.37-9.35-6.11-10.35-10.5-1.82-8,21.72-14.71,21.73-14.21.52,4.19-.47,10-2.3,16.71a52.16,52.16,0,0,0,5.41.42c15.88,1,21.78-.86,16.79,15.47-2.17,6.82-3.49,12-4.82,17.12A279.82,279.82,0,0,0,278,219.89c19.24-2.12,36.31-.43,47,7,25.76,17.85,10.41,60.27-29.91,72.07C267.46,307,256.49,273,257.32,232.64Z"/></g><g class="cls-21"><path class="cls-22" d="M84,224a217.63,217.63,0,0,0-5.14,21.56c-2.14,12-7.17,23.72-1.42,22.46,9.25-2,22.79-12,27.9-30.72C111.33,215.15,98.29,218.26,84,224Zm-27.83,9.15c2.19-1.31-8.36,17.81-10.22,18.36-21.59,6.32-44.8-11.78-29.43-48.36,13.36-32.15,53.23-67.2,95.23-79.49,27-7.9,45.27-.05,36.12,31-6.49,22.12-25.81,44.14-46.7,57.44,16.37-3.45,31-1.18,25.09,19-6.92,23.79-37.3,43.17-54.71,42.07-7.09-.42-16.85-8.22-12.11-28.53C64.28,223.75,82,160.55,86,141.85c.16-.72,25.64-6,23.48,1.65-.83,2.74-9.35,25.79-17.16,52-2.5,8.26-4.49,15-6.16,21,18.38-8.22,34.31-32.26,40.79-55.71,7.81-28,1.7-35.58-18.54-29.66C70.42,142.21,50.93,165,37.55,193.77,21.15,228.81,20.77,255.15,56.13,233.11Z"/><path class="cls-22" d="M150.3,218.58c18.82-22,32-54,26.94-55.16-6.91-1.55-18.65,20.32-24.29,41.52A102.39,102.39,0,0,0,150.3,218.58Zm-.48,6c-.12,9.56,2.6,14.92,7.33,14.4,7.09-.79,25.43-16.47,35-37.47,3.18-6.77,4-7.52,4-4.52,0,1-.49,3.48-2.5,7.59-9.7,19.71-29.37,41-43.2,45.05-15.18,4.44-25.23-14.34-18.41-38.55,10.31-36.44,39.08-59.06,46.71-53.94,2.2,1.7,14.23,4.2,12.89,11.93C189.7,180.18,169.83,205.18,149.82,224.57Z"/><path class="cls-22" d="M206.13,202.25c18.82-22.05,32-54,26.94-55.17-6.92-1.55-18.65,20.33-24.3,41.53A103.53,103.53,0,0,0,206.13,202.25Zm-.48,6c-.13,9.57,2.6,14.92,7.33,14.4,7.08-.78,25.42-16.47,35-37.46,3.18-6.78,4-7.53,4-4.53,0,1-.49,3.49-2.5,7.59-9.71,19.71-29.37,41-43.2,45.05C191.09,237.72,181,219,187.86,194.73c10.3-36.43,39.08-59.06,46.71-53.93,2.2,1.69,14.23,4.2,12.89,11.93C245.52,163.84,225.66,188.85,205.65,208.23Z"/><path class="cls-22" d="M277.2,227.18c-2,38.36,4.71,69.8,20.73,65.12,22.26-6.52,33.07-45.43,10.54-61.06C301.18,226.18,290,225.11,277.2,227.18ZM257,232.28c-29.52,9.64-63.88,30.21-88.43,52.77-2.69,2.46-9.37-16.47,11.68-31,18.35-12.71,48.36-25,77-31.23A238.22,238.22,0,0,1,265,176c8.14-30.46,10.18-28.09,5.78-28.43a29.86,29.86,0,0,1-5.07-.69c-4.49,13.34-10.85,28.24-16,39.61-1.84,4-3.52,6.21-4.36,7-2.53,2.4-2.53,1.41.65-5.2A145.64,145.64,0,0,0,259.6,145c-5.58-2.37-9.34-6.11-10.34-10.5-1.82-8,21.72-14.71,21.72-14.21.53,4.19-.46,10-2.29,16.71a49.13,49.13,0,0,0,5.4.42c15.88,1,21.79-.86,16.79,15.47-2.16,6.82-3.49,12-4.81,17.12a279,279,0,0,0-8.4,49.57c19.25-2.12,36.31-.44,47,7,25.76,17.86,10.41,60.27-29.9,72.07C267.09,306.66,256.12,272.62,257,232.28Z"/></g><g class="cls-23"><path class="cls-24" d="M83.59,223.6a220.39,220.39,0,0,0-5.14,21.55c-2.14,12-7.17,23.73-1.41,22.47,9.25-2,22.78-12,27.89-30.72C111,214.78,97.93,217.9,83.59,223.6Zm-27.82,9.14c2.19-1.31-8.37,17.82-10.22,18.36C24,257.42.74,239.32,16.11,202.74c13.37-32.14,53.24-67.2,95.24-79.49,27-7.9,45.26,0,36.11,31-6.49,22.12-25.81,44.15-46.69,57.44,16.36-3.45,31-1.17,25.08,19.06-6.92,23.78-37.3,43.16-54.7,42.07-7.1-.43-16.85-8.23-12.12-28.53,4.88-20.93,22.59-84.13,26.56-102.84.16-.72,25.64-6,23.48,1.65-.83,2.75-9.34,25.79-17.16,52-2.5,8.25-4.49,15-6.16,21,18.38-8.22,34.32-32.26,40.79-55.71,7.82-28,1.7-35.58-18.54-29.66-37.95,11.11-57.44,33.86-70.82,62.67C20.79,228.44,20.4,254.79,55.77,232.74Z"/><path class="cls-24" d="M149.93,218.22c18.83-22.05,32-54,26.95-55.17-6.92-1.55-18.65,20.32-24.3,41.53A103.39,103.39,0,0,0,149.93,218.22Zm-.47,6c-.13,9.56,2.59,14.92,7.32,14.4,7.09-.78,25.43-16.46,35-37.46,3.17-6.78,4-7.53,4-4.53,0,1-.49,3.49-2.5,7.59-9.71,19.71-29.37,41-43.21,45.05-15.18,4.44-25.22-14.33-18.41-38.55,10.31-36.43,39.09-59,46.71-53.94,2.2,1.7,14.24,4.21,12.89,11.94C189.33,179.81,169.47,204.82,149.46,224.2Z"/><path class="cls-24" d="M205.76,201.88c18.82-22,32-54,26.94-55.16-6.91-1.55-18.65,20.32-24.29,41.52A102.08,102.08,0,0,0,205.76,201.88Zm-.48,6c-.12,9.56,2.6,14.92,7.33,14.4,7.09-.78,25.43-16.47,35-37.47,3.18-6.77,4-7.53,4-4.52,0,1-.49,3.48-2.51,7.58-9.71,19.72-29.37,41-43.2,45-15.18,4.45-25.23-14.33-18.41-38.55,10.31-36.43,39.08-59.05,46.71-53.93,2.2,1.69,14.23,4.2,12.89,11.93C245.16,163.48,225.29,188.48,205.28,207.87Z"/><path class="cls-24" d="M276.83,226.82c-2,38.35,4.71,69.8,20.73,65.11,22.27-6.52,33.07-45.43,10.54-61.06C300.81,225.82,289.66,224.74,276.83,226.82Zm-20.24,5.09c-29.51,9.64-63.88,30.22-88.43,52.77-2.69,2.47-9.36-16.47,11.68-31,18.35-12.72,48.36-25,77-31.23a238.93,238.93,0,0,1,7.72-46.87c8.14-30.45,10.18-28.09,5.79-28.43a30.81,30.81,0,0,1-5.07-.68c-4.5,13.34-10.86,28.23-16,39.6-1.84,4-3.52,6.21-4.36,7-2.52,2.41-2.53,1.41.65-5.2a145.86,145.86,0,0,0,13.66-43.26c-5.59-2.37-9.35-6.11-10.35-10.51-1.82-8,21.72-14.7,21.72-14.2.53,4.19-.46,10-2.29,16.71,1.52.22,3.38.34,5.41.42,15.88,1,21.78-.86,16.79,15.47-2.17,6.81-3.49,12.05-4.82,17.12a278.92,278.92,0,0,0-8.39,49.56c19.24-2.12,36.31-.43,47,7C350,244,334.69,286.41,294.38,298.2,266.72,306.3,255.76,272.25,256.59,231.91Z"/></g><g class="cls-25"><path class="cls-26" d="M83.22,223.23a217.13,217.13,0,0,0-5.13,21.55c-2.14,12-7.18,23.73-1.42,22.47,9.25-2,22.79-12,27.9-30.72C110.6,214.41,97.56,217.53,83.22,223.23ZM55.4,232.37c2.19-1.3-8.36,17.82-10.22,18.36C23.59,257.05.37,239,15.74,202.38,29.11,170.23,69,135.17,111,122.88c27-7.89,45.26,0,36.11,31-6.48,22.12-25.81,44.15-46.69,57.44,16.37-3.45,31-1.17,25.08,19.06-6.91,23.79-37.29,43.16-54.7,42.07-7.09-.42-16.85-8.23-12.12-28.53,4.88-20.93,22.6-84.13,26.56-102.84.17-.71,25.65-6,23.49,1.65-.84,2.75-9.35,25.79-17.17,52-2.49,8.25-4.49,15-6.15,21,18.37-8.22,34.31-32.26,40.79-55.71,7.81-28,1.7-35.59-18.54-29.66C69.69,141.48,50.19,164.23,36.82,193,20.42,228.08,20,254.42,55.4,232.37Z"/><path class="cls-26" d="M149.57,217.85c18.82-22,32-54,26.94-55.16-6.91-1.55-18.65,20.32-24.3,41.52A103.53,103.53,0,0,0,149.57,217.85Zm-.48,6c-.13,9.56,2.6,14.92,7.33,14.39,7.08-.78,25.43-16.46,35-37.46,3.18-6.78,4-7.53,4-4.52,0,1-.49,3.48-2.5,7.58-9.71,19.72-29.37,41-43.2,45.06-15.18,4.44-25.23-14.34-18.41-38.56,10.3-36.43,39.08-59.05,46.7-53.93,2.21,1.69,14.24,4.2,12.89,11.93C189,179.44,169.1,204.45,149.09,223.84Z"/><path class="cls-26" d="M205.4,201.51c18.81-22,32-54,26.94-55.16-6.92-1.55-18.66,20.32-24.3,41.53A101.8,101.8,0,0,0,205.4,201.51Zm-.48,6c-.13,9.56,2.59,14.92,7.33,14.4,7.08-.78,25.42-16.47,35-37.47,3.17-6.77,4-7.52,4-4.52,0,1-.49,3.49-2.5,7.59-9.71,19.71-29.37,41-43.2,45.05C190.36,237,180.31,218.21,187.12,194c10.31-36.43,39.08-59.05,46.71-53.93,2.21,1.69,14.24,4.2,12.89,11.94C244.79,163.11,224.93,188.11,204.92,207.5Z"/><path class="cls-26" d="M276.47,226.45c-2,38.35,4.7,69.8,20.72,65.11,22.27-6.51,33.07-45.43,10.54-61.06C300.44,225.45,289.29,224.37,276.47,226.45Zm-20.25,5.09c-29.51,9.64-63.87,30.22-88.43,52.78-2.69,2.46-9.36-16.47,11.69-31,18.35-12.72,48.35-25,77-31.23a239.17,239.17,0,0,1,7.72-46.87c8.14-30.45,10.19-28.09,5.79-28.42a30.76,30.76,0,0,1-5.07-.69c-4.5,13.34-10.85,28.23-16,39.61-1.85,4.05-3.53,6.21-4.37,7-2.52,2.41-2.52,1.41.66-5.2a146.09,146.09,0,0,0,13.65-43.26c-5.58-2.37-9.35-6.11-10.35-10.5-1.82-8,21.72-14.71,21.73-14.21.52,4.19-.47,10-2.3,16.71a52.16,52.16,0,0,0,5.41.42c15.88,1,21.78-.86,16.79,15.47-2.17,6.82-3.49,12-4.82,17.12a279.82,279.82,0,0,0-8.39,49.56c19.24-2.12,36.31-.43,47,7C349.68,243.62,334.33,286,294,297.84,266.36,305.93,255.39,271.88,256.22,231.54Z"/></g><g class="cls-27"><path class="cls-28" d="M82.86,222.86a217.63,217.63,0,0,0-5.14,21.56c-2.14,12-7.17,23.72-1.42,22.46,9.25-2,22.79-12,27.9-30.72C110.23,214.05,97.19,217.16,82.86,222.86ZM55,232c2.19-1.31-8.36,17.81-10.22,18.36C23.22,256.69,0,238.59,15.38,202c13.36-32.15,53.23-67.2,95.23-79.49,27-7.9,45.27,0,36.12,31-6.49,22.12-25.81,44.14-46.7,57.44,16.37-3.45,31-1.18,25.09,19-6.92,23.79-37.3,43.17-54.7,42.07-7.1-.42-16.86-8.22-12.12-28.53,4.88-20.93,22.59-84.13,26.56-102.83.16-.72,25.64-6,23.48,1.65-.83,2.74-9.34,25.79-17.16,52-2.5,8.26-4.49,15-6.16,21,18.38-8.22,34.31-32.26,40.79-55.71,7.81-28,1.7-35.58-18.54-29.66-37.95,11.1-57.44,33.85-70.82,62.66C20.05,227.71,19.67,254.05,55,232Z"/><path class="cls-28" d="M149.2,217.49c18.82-22.05,32-54,26.94-55.17-6.91-1.55-18.65,20.32-24.29,41.52A102.2,102.2,0,0,0,149.2,217.49Zm-.48,6c-.12,9.56,2.6,14.92,7.33,14.4,7.09-.79,25.43-16.47,35-37.47,3.18-6.77,4-7.52,4-4.52,0,1-.49,3.48-2.5,7.59-9.7,19.71-29.37,41-43.2,45.05C134.16,253,124.11,234.18,130.93,210,141.24,173.54,170,150.91,177.64,156c2.2,1.7,14.23,4.2,12.89,11.93C188.6,179.08,168.73,204.08,148.72,223.47Z"/><path class="cls-28" d="M205,201.15c18.82-22.05,32-54,26.94-55.17-6.92-1.55-18.65,20.33-24.3,41.53A103.53,103.53,0,0,0,205,201.15Zm-.48,6c-.13,9.57,2.6,14.92,7.33,14.4,7.08-.78,25.42-16.47,35-37.46,3.18-6.78,4-7.53,4-4.53,0,1-.49,3.49-2.5,7.59-9.71,19.71-29.37,41-43.2,45.05-15.18,4.44-25.23-14.33-18.41-38.55,10.3-36.43,39.08-59.06,46.71-53.93,2.2,1.69,14.23,4.2,12.89,11.93C244.42,162.74,224.56,187.75,204.55,207.13Z"/><path class="cls-28" d="M276.1,226.08c-2,38.36,4.71,69.8,20.73,65.12,22.26-6.52,33.07-45.43,10.54-61.06C300.08,225.08,288.92,224,276.1,226.08Zm-20.24,5.1C226.35,240.82,192,261.39,167.43,284c-2.69,2.46-9.37-16.47,11.68-31,18.35-12.71,48.36-25,77-31.23a239,239,0,0,1,7.73-46.86c8.14-30.46,10.18-28.09,5.78-28.43a29.86,29.86,0,0,1-5.07-.69c-4.49,13.34-10.85,28.24-16,39.61-1.84,4-3.52,6.21-4.36,7-2.53,2.41-2.53,1.41.65-5.2a145.55,145.55,0,0,0,13.65-43.27c-5.58-2.37-9.34-6.11-10.34-10.5-1.82-8,21.72-14.71,21.72-14.21.53,4.19-.46,10-2.29,16.71a51.5,51.5,0,0,0,5.4.43c15.88,1,21.79-.87,16.79,15.46-2.16,6.82-3.49,12.06-4.81,17.12a280,280,0,0,0-8.4,49.57c19.25-2.12,36.31-.43,47,7,25.75,17.86,10.4,60.27-29.91,72.07C266,305.56,255,271.52,255.86,231.18Z"/></g><g class="cls-29"><path class="cls-30" d="M82.49,222.5a220.39,220.39,0,0,0-5.14,21.55c-2.14,12-7.17,23.73-1.41,22.47,9.25-2,22.78-12,27.89-30.72C109.86,213.68,96.83,216.8,82.49,222.5Zm-27.82,9.14c2.19-1.31-8.37,17.82-10.22,18.36C22.86,256.32-.36,238.22,15,201.64c13.37-32.14,53.24-67.2,95.24-79.49,27-7.9,45.26,0,36.11,31-6.49,22.12-25.81,44.15-46.69,57.44,16.36-3.45,31-1.17,25.08,19.06-6.92,23.78-37.3,43.16-54.7,42.07-7.1-.43-16.85-8.23-12.12-28.53,4.88-20.93,22.59-84.13,26.56-102.84.16-.72,25.64-6,23.48,1.65-.83,2.75-9.34,25.79-17.16,52-2.5,8.25-4.49,15-6.16,21,18.38-8.21,34.32-32.26,40.79-55.7,7.82-28,1.7-35.59-18.54-29.67C69,140.75,49.46,163.5,36.08,192.31,19.69,227.34,19.3,253.69,54.67,231.64Z"/><path class="cls-30" d="M148.83,217.12c18.83-22.05,32-54,26.95-55.17-6.92-1.54-18.65,20.33-24.3,41.53A103.39,103.39,0,0,0,148.83,217.12Zm-.47,6c-.13,9.57,2.59,14.92,7.32,14.4,7.09-.78,25.43-16.46,35-37.46,3.17-6.78,4-7.53,4-4.53,0,1-.49,3.49-2.5,7.59-9.71,19.71-29.37,41-43.21,45.05-15.17,4.44-25.22-14.33-18.41-38.55,10.31-36.43,39.09-59,46.71-53.93,2.2,1.69,14.24,4.2,12.89,11.93C188.23,178.71,168.37,203.72,148.36,223.1Z"/><path class="cls-30" d="M204.66,200.78c18.82-22,32-54,26.94-55.16-6.91-1.55-18.65,20.32-24.29,41.52A102.08,102.08,0,0,0,204.66,200.78Zm-.48,6c-.12,9.56,2.6,14.92,7.33,14.4,7.09-.78,25.43-16.47,35-37.47,3.18-6.77,4-7.53,4-4.52,0,1-.49,3.48-2.51,7.58-9.7,19.72-29.37,41-43.2,45.05-15.18,4.45-25.23-14.33-18.41-38.55,10.31-36.43,39.08-59,46.71-53.93,2.2,1.69,14.23,4.2,12.89,11.93C244.06,162.38,224.19,187.38,204.18,206.77Z"/><path class="cls-30" d="M275.73,225.72c-2,38.35,4.71,69.8,20.73,65.11,22.27-6.52,33.07-45.43,10.54-61.06C299.71,224.72,288.56,223.64,275.73,225.72Zm-20.24,5.09C226,240.45,191.62,261,167.06,283.58c-2.69,2.47-9.36-16.47,11.68-31,18.35-12.72,48.36-25,77-31.23a239.17,239.17,0,0,1,7.72-46.87c8.14-30.45,10.18-28.09,5.79-28.43a30.81,30.81,0,0,1-5.07-.68c-4.5,13.34-10.86,28.23-16,39.6-1.84,4-3.52,6.21-4.36,7-2.52,2.41-2.53,1.41.65-5.2a145.86,145.86,0,0,0,13.66-43.26c-5.59-2.37-9.35-6.11-10.35-10.51-1.82-8,21.72-14.7,21.72-14.2.53,4.19-.46,10-2.29,16.71,1.52.22,3.38.34,5.41.42,15.88,1,21.78-.86,16.79,15.47-2.17,6.81-3.49,12.05-4.82,17.12a278.92,278.92,0,0,0-8.39,49.56c19.24-2.12,36.31-.43,47,7,25.75,17.86,10.4,60.28-29.91,72.07C265.62,305.2,254.66,271.15,255.49,230.81Z"/></g><g class="cls-31"><path class="cls-32" d="M82.13,222.13A214.72,214.72,0,0,0,77,243.68c-2.14,12-7.17,23.73-1.42,22.47,9.25-2,22.79-12,27.9-30.72C109.5,213.32,96.46,216.43,82.13,222.13ZM54.3,231.27c2.19-1.3-8.36,17.82-10.22,18.37C22.49,256-.73,237.85,14.65,201.28c13.36-32.15,53.23-67.21,95.23-79.5,27-7.89,45.26,0,36.11,31-6.48,22.12-25.81,44.15-46.69,57.44,16.37-3.45,31-1.17,25.08,19.06-6.91,23.79-37.29,43.16-54.7,42.07-7.09-.42-16.85-8.23-12.12-28.53,4.88-20.93,22.6-84.13,26.56-102.83.17-.72,25.65-6,23.49,1.64-.83,2.75-9.35,25.79-17.17,52-2.49,8.25-4.49,15-6.15,21,18.37-8.22,34.31-32.26,40.79-55.71,7.81-28,1.7-35.59-18.54-29.66-37.95,11.1-57.45,33.85-70.82,62.66C19.32,227,18.93,253.32,54.3,231.27Z"/><path class="cls-32" d="M148.47,216.75c18.82-22.05,32-54,26.94-55.16-6.91-1.55-18.65,20.32-24.3,41.52A103.53,103.53,0,0,0,148.47,216.75Zm-.48,6c-.13,9.56,2.6,14.92,7.33,14.39,7.08-.78,25.43-16.46,35-37.46,3.18-6.78,4-7.53,4-4.52,0,1-.49,3.48-2.5,7.58-9.71,19.72-29.37,41-43.2,45.06-15.18,4.44-25.23-14.34-18.41-38.56,10.3-36.43,39.08-59,46.7-53.93,2.21,1.69,14.24,4.2,12.89,11.93C187.86,178.34,168,203.35,148,222.74Z"/><path class="cls-32" d="M204.3,200.41c18.81-22,32-54,26.94-55.16-6.92-1.55-18.66,20.32-24.3,41.53A101.8,101.8,0,0,0,204.3,200.41Zm-.48,6c-.13,9.56,2.59,14.92,7.33,14.4,7.08-.78,25.42-16.47,35-37.47,3.17-6.77,4-7.52,4-4.52,0,1-.49,3.49-2.5,7.59-9.71,19.71-29.37,41-43.2,45-15.18,4.44-25.23-14.34-18.42-38.56,10.31-36.43,39.08-59,46.71-53.93,2.21,1.69,14.24,4.2,12.89,11.94C243.69,162,223.83,187,203.82,206.4Z"/><path class="cls-32" d="M275.37,225.35c-2,38.35,4.7,69.8,20.72,65.11,22.27-6.51,33.08-45.43,10.54-61C299.34,224.35,288.19,223.27,275.37,225.35Zm-20.25,5.09c-29.51,9.64-63.87,30.22-88.43,52.78-2.69,2.46-9.36-16.47,11.69-31,18.35-12.72,48.36-25,77-31.23a239.17,239.17,0,0,1,7.72-46.87c8.14-30.45,10.19-28.09,5.79-28.42a30.76,30.76,0,0,1-5.07-.69c-4.5,13.34-10.85,28.23-16,39.61-1.85,4.05-3.53,6.21-4.37,7-2.52,2.41-2.52,1.41.66-5.2a146.09,146.09,0,0,0,13.65-43.26c-5.58-2.37-9.35-6.11-10.35-10.5-1.82-8,21.72-14.71,21.73-14.21.52,4.19-.47,10-2.3,16.71a52.16,52.16,0,0,0,5.41.42c15.88,1,21.78-.86,16.79,15.47-2.17,6.82-3.49,12.05-4.82,17.12a279.82,279.82,0,0,0-8.39,49.56c19.24-2.11,36.31-.43,47,7,25.76,17.86,10.41,60.27-29.91,72.07C265.26,304.83,254.29,270.78,255.12,230.44Z"/></g><g class="cls-33"><path class="cls-34" d="M81.76,221.76a218.29,218.29,0,0,0-5.14,21.56c-2.14,12-7.17,23.72-1.42,22.46,9.25-2,22.79-12,27.9-30.72C109.13,213,96.09,216.06,81.76,221.76Zm-27.83,9.15c2.19-1.31-8.36,17.81-10.22,18.36-21.59,6.32-44.8-11.78-29.43-48.36,13.36-32.15,53.23-67.2,95.23-79.49,27-7.9,45.27,0,36.12,31-6.49,22.12-25.81,44.14-46.7,57.44,16.37-3.45,31-1.18,25.09,19.05-6.92,23.79-37.3,43.17-54.7,42.07-7.1-.42-16.86-8.22-12.12-28.53,4.88-20.93,22.59-84.13,26.56-102.83.16-.72,25.64-6,23.48,1.65-.83,2.74-9.34,25.79-17.16,52-2.5,8.26-4.49,15-6.16,21,18.38-8.22,34.31-32.26,40.79-55.71,7.81-28,1.7-35.58-18.54-29.66C68.22,140,48.73,162.76,35.35,191.57,19,226.61,18.57,253,53.93,230.91Z"/><path class="cls-34" d="M148.1,216.39c18.82-22,32-54,26.94-55.17-6.91-1.55-18.65,20.32-24.29,41.52A102.2,102.2,0,0,0,148.1,216.39Zm-.48,6c-.12,9.56,2.6,14.92,7.33,14.4,7.09-.79,25.43-16.47,35-37.47,3.17-6.77,4-7.52,4-4.52,0,1-.5,3.48-2.51,7.59-9.7,19.71-29.37,41-43.2,45-15.18,4.44-25.23-14.34-18.41-38.55,10.31-36.43,39.08-59.06,46.71-53.94,2.2,1.7,14.23,4.2,12.89,11.93C187.5,178,167.63,203,147.62,222.37Z"/><path class="cls-34" d="M203.93,200.05c18.82-22.05,32-54,26.94-55.17-6.91-1.55-18.65,20.33-24.3,41.53A103.53,103.53,0,0,0,203.93,200.05Zm-.48,6c-.13,9.57,2.6,14.92,7.33,14.4,7.08-.78,25.42-16.47,35-37.46,3.18-6.78,4-7.53,4-4.53,0,1-.49,3.49-2.5,7.59-9.71,19.71-29.37,41-43.2,45.05-15.18,4.44-25.23-14.33-18.41-38.55,10.3-36.43,39.08-59.06,46.71-53.93,2.2,1.69,14.23,4.2,12.89,11.93C243.32,161.64,223.46,186.65,203.45,206Z"/><path class="cls-34" d="M275,225c-2,38.36,4.71,69.8,20.73,65.12C318,283.58,328.8,244.67,306.27,229,299,224,287.83,222.91,275,225Zm-20.24,5.1c-29.51,9.64-63.88,30.21-88.43,52.77-2.69,2.46-9.37-16.47,11.68-31,18.35-12.71,48.36-25,77-31.23a239.71,239.71,0,0,1,7.73-46.86c8.14-30.46,10.18-28.09,5.78-28.43a29.86,29.86,0,0,1-5.07-.69c-4.49,13.34-10.85,28.24-16,39.61-1.84,4.05-3.52,6.21-4.36,7-2.53,2.41-2.53,1.41.65-5.2a145.91,145.91,0,0,0,13.66-43.27c-5.59-2.37-9.35-6.11-10.35-10.5-1.82-8,21.72-14.71,21.72-14.21.53,4.19-.46,10-2.29,16.71a51.5,51.5,0,0,0,5.4.43c15.88,1,21.79-.87,16.8,15.46-2.17,6.82-3.5,12.06-4.82,17.12a280,280,0,0,0-8.4,49.57c19.25-2.12,36.31-.43,47,7,25.75,17.86,10.4,60.27-29.91,72.07C264.89,304.46,253.93,270.42,254.76,230.08Z"/></g><g class="cls-35"><path class="cls-36" d="M81.39,221.4A220.39,220.39,0,0,0,76.25,243c-2.14,12-7.17,23.73-1.41,22.47,9.25-2,22.78-12,27.89-30.72C108.77,212.58,95.73,215.7,81.39,221.4Zm-27.82,9.14c2.19-1.31-8.37,17.82-10.22,18.36-21.59,6.32-44.81-11.78-29.44-48.36,13.37-32.14,53.24-67.2,95.24-79.49,27-7.9,45.26,0,36.11,31-6.49,22.12-25.81,44.15-46.69,57.44,16.36-3.45,31-1.17,25.08,19.06-6.92,23.78-37.3,43.16-54.7,42.07-7.1-.43-16.85-8.23-12.12-28.53C61.71,221.19,79.42,158,83.39,139.28c.16-.72,25.64-6,23.48,1.65-.83,2.75-9.34,25.79-17.16,52-2.5,8.25-4.49,15-6.16,21,18.38-8.21,34.32-32.26,40.79-55.7,7.82-28,1.7-35.59-18.54-29.67C67.85,139.65,48.36,162.4,35,191.21,18.59,226.24,18.2,252.59,53.57,230.54Z"/><path class="cls-36" d="M147.73,216c18.83-22.05,32-54,27-55.17-6.92-1.54-18.65,20.33-24.3,41.53A103.39,103.39,0,0,0,147.73,216Zm-.47,6c-.13,9.57,2.59,14.92,7.32,14.4,7.09-.78,25.43-16.46,35-37.46,3.17-6.78,4-7.53,4-4.53,0,1-.49,3.49-2.5,7.59-9.71,19.72-29.37,41-43.21,45.05-15.17,4.44-25.22-14.33-18.41-38.55,10.31-36.43,39.09-59.05,46.71-53.93,2.2,1.69,14.24,4.2,12.89,11.93C187.13,177.61,167.27,202.62,147.26,222Z"/><path class="cls-36" d="M203.56,199.68c18.82-22,32-54,26.94-55.16-6.91-1.55-18.65,20.32-24.29,41.52A102.08,102.08,0,0,0,203.56,199.68Zm-.48,6c-.12,9.56,2.6,14.92,7.33,14.4,7.09-.78,25.43-16.47,35-37.47,3.18-6.77,4-7.53,4-4.52,0,1-.49,3.48-2.51,7.58-9.7,19.72-29.37,41-43.2,45.05-15.18,4.45-25.23-14.33-18.41-38.55,10.31-36.43,39.08-59,46.71-53.93,2.2,1.69,14.23,4.2,12.89,11.93C243,161.28,223.1,186.28,203.08,205.67Z"/><path class="cls-36" d="M274.63,224.62c-2,38.35,4.71,69.8,20.73,65.11,22.27-6.52,33.07-45.43,10.54-61.06C298.61,223.62,287.46,222.54,274.63,224.62Zm-20.24,5.09c-29.51,9.64-63.87,30.22-88.43,52.77-2.69,2.47-9.36-16.47,11.68-31,18.35-12.72,48.36-25,77.05-31.23a239.17,239.17,0,0,1,7.72-46.87c8.14-30.45,10.18-28.09,5.79-28.43a30.81,30.81,0,0,1-5.07-.68c-4.5,13.34-10.86,28.23-16,39.6-1.84,4.05-3.52,6.21-4.36,7-2.52,2.41-2.53,1.41.65-5.2A145.86,145.86,0,0,0,257,142.39c-5.59-2.37-9.35-6.11-10.35-10.51-1.82-8,21.72-14.7,21.72-14.2.53,4.19-.46,10-2.29,16.71a51.71,51.71,0,0,0,5.41.42c15.88,1,21.78-.86,16.79,15.47-2.17,6.81-3.49,12.05-4.82,17.12A278.92,278.92,0,0,0,275.11,217c19.24-2.12,36.31-.43,47,7,25.75,17.86,10.4,60.28-29.91,72.07C264.52,304.1,253.56,270.05,254.39,229.71Z"/></g><g class="cls-37"><path class="cls-38" d="M81,221a214.72,214.72,0,0,0-5.14,21.55c-2.14,12-7.17,23.73-1.42,22.47,9.25-2,22.79-12,27.9-30.72C108.4,212.22,95.36,215.33,81,221ZM53.2,230.17c2.19-1.3-8.36,17.82-10.22,18.37-21.59,6.31-44.81-11.79-29.43-48.36C26.91,168,66.78,133,108.78,120.68c27-7.89,45.26,0,36.12,31-6.49,22.12-25.82,44.15-46.7,57.44,16.37-3.45,31-1.17,25.08,19.06C116.37,252,86,271.37,68.58,270.28c-7.09-.42-16.85-8.23-12.12-28.53,4.88-20.93,22.6-84.13,26.56-102.83.17-.72,25.65-6,23.49,1.64-.83,2.75-9.35,25.79-17.17,52-2.49,8.25-4.49,15-6.15,21,18.37-8.22,34.31-32.26,40.79-55.71,7.81-28,1.7-35.59-18.54-29.66C67.49,139.28,48,162,34.62,190.84,18.22,225.88,17.83,252.22,53.2,230.17Z"/><path class="cls-38" d="M147.37,215.65c18.82-22.05,32-54,26.94-55.16-6.91-1.55-18.65,20.32-24.3,41.52A103.53,103.53,0,0,0,147.37,215.65Zm-.48,6c-.13,9.56,2.6,14.92,7.33,14.39,7.08-.78,25.43-16.46,35-37.46,3.18-6.78,4-7.53,4-4.52,0,1-.49,3.48-2.5,7.58-9.71,19.72-29.37,41-43.2,45.06-15.18,4.44-25.23-14.34-18.41-38.56,10.3-36.43,39.08-59,46.7-53.93,2.21,1.69,14.24,4.2,12.9,11.93C186.76,177.24,166.9,202.25,146.89,221.64Z"/><path class="cls-38" d="M203.2,199.31c18.81-22,32-54,26.94-55.16-6.92-1.55-18.66,20.32-24.3,41.53A101.8,101.8,0,0,0,203.2,199.31Zm-.48,6c-.13,9.56,2.59,14.92,7.33,14.4,7.08-.78,25.42-16.47,35-37.47,3.17-6.77,4-7.52,4-4.52,0,1-.49,3.49-2.5,7.59-9.71,19.71-29.37,41-43.2,45-15.18,4.44-25.23-14.34-18.42-38.56,10.31-36.43,39.09-59,46.71-53.93,2.21,1.7,14.24,4.2,12.89,11.94C242.59,160.91,222.73,185.91,202.72,205.3Z"/><path class="cls-38" d="M274.27,224.25c-2,38.36,4.7,69.8,20.72,65.11,22.27-6.51,33.08-45.43,10.54-61.05C298.24,223.25,287.09,222.17,274.27,224.25ZM254,229.34c-29.51,9.64-63.87,30.22-88.43,52.78-2.69,2.46-9.36-16.47,11.69-31,18.35-12.72,48.36-25,77-31.23A238.44,238.44,0,0,1,262.05,173c8.13-30.45,10.18-28.09,5.78-28.42a30.76,30.76,0,0,1-5.07-.69c-4.5,13.34-10.85,28.23-16,39.61-1.84,4.05-3.53,6.21-4.37,6.95-2.52,2.41-2.52,1.41.66-5.2A146.09,146.09,0,0,0,256.67,142c-5.58-2.37-9.35-6.11-10.35-10.5-1.82-8,21.72-14.71,21.73-14.21.52,4.19-.47,10-2.3,16.71a52.16,52.16,0,0,0,5.41.42c15.88,1,21.78-.86,16.79,15.47-2.17,6.82-3.49,12.05-4.82,17.12a279.82,279.82,0,0,0-8.39,49.56c19.25-2.11,36.31-.43,47,7,25.76,17.86,10.41,60.27-29.91,72.07C264.16,303.73,253.19,269.68,254,229.34Z"/></g><g class="cls-39"><path class="cls-40" d="M80.66,220.66a218.29,218.29,0,0,0-5.14,21.56c-2.14,12-7.17,23.72-1.42,22.46,9.25-2,22.79-12,27.9-30.71C108,211.85,95,215,80.66,220.66Zm-27.82,9.15c2.18-1.31-8.37,17.82-10.23,18.36C21,254.49-2.19,236.39,13.18,199.81c13.37-32.15,53.23-67.2,95.23-79.49,27-7.9,45.27,0,36.12,31-6.49,22.12-25.81,44.14-46.7,57.44,16.37-3.45,31-1.18,25.09,19.05C116,251.63,85.62,271,68.22,269.91c-7.1-.42-16.86-8.22-12.12-28.52C61,220.45,78.69,157.25,82.66,138.55c.16-.72,25.64-6,23.48,1.65-.83,2.74-9.34,25.79-17.16,52-2.5,8.26-4.49,15-6.16,21,18.38-8.22,34.31-32.26,40.79-55.71,7.81-28,1.7-35.58-18.54-29.66-37.95,11.1-57.44,33.85-70.82,62.66C17.85,225.51,17.47,251.85,52.84,229.81Z"/><path class="cls-40" d="M147,215.29c18.82-22,32-54,26.95-55.17-6.92-1.55-18.66,20.32-24.3,41.52A103.82,103.82,0,0,0,147,215.29Zm-.48,6c-.12,9.56,2.6,14.92,7.33,14.4,7.09-.79,25.43-16.47,35-37.47,3.17-6.77,4-7.52,4-4.52,0,1-.5,3.48-2.51,7.59-9.7,19.71-29.37,41-43.2,45C132,250.76,121.92,232,128.73,207.77c10.31-36.43,39.08-59.06,46.71-53.94,2.2,1.7,14.23,4.2,12.89,11.94C186.4,176.88,166.53,201.88,146.52,221.27Z"/><path class="cls-40" d="M202.83,199c18.82-22,32-54,26.94-55.17-6.91-1.55-18.65,20.33-24.3,41.53A103.53,103.53,0,0,0,202.83,199Zm-.48,6c-.13,9.57,2.6,14.92,7.33,14.4,7.08-.78,25.42-16.47,35-37.46,3.18-6.78,4-7.53,4-4.53,0,1-.49,3.49-2.5,7.59-9.71,19.71-29.37,41-43.2,45-15.18,4.44-25.23-14.33-18.41-38.55,10.3-36.43,39.08-59.05,46.71-53.93,2.2,1.69,14.23,4.2,12.89,11.93C242.22,160.54,222.36,185.55,202.35,204.93Z"/><path class="cls-40" d="M273.9,223.88c-2,38.36,4.71,69.8,20.73,65.12,22.26-6.52,33.07-45.43,10.54-61.06C297.88,222.88,286.73,221.81,273.9,223.88ZM253.66,229c-29.51,9.64-63.88,30.21-88.43,52.77-2.69,2.46-9.37-16.47,11.68-31,18.35-12.71,48.36-25,77-31.23a239.71,239.71,0,0,1,7.73-46.86c8.14-30.46,10.18-28.09,5.78-28.43a29.86,29.86,0,0,1-5.07-.69c-4.49,13.34-10.85,28.24-16,39.61-1.84,4.05-3.52,6.21-4.36,7-2.52,2.41-2.53,1.41.65-5.2a145.82,145.82,0,0,0,13.66-43.27c-5.59-2.37-9.35-6.11-10.35-10.5-1.82-8,21.72-14.71,21.72-14.21.53,4.19-.46,10-2.29,16.71a51.5,51.5,0,0,0,5.4.43c15.88,1,21.79-.87,16.8,15.46-2.17,6.82-3.5,12.06-4.82,17.12a280,280,0,0,0-8.4,49.57c19.25-2.12,36.31-.43,47,7,25.75,17.86,10.4,60.27-29.91,72.07C263.79,303.36,252.83,269.32,253.66,229Z"/></g><g class="cls-41"><path class="cls-42" d="M80.29,220.3a220.39,220.39,0,0,0-5.14,21.55c-2.14,12-7.17,23.73-1.41,22.47,9.25-2,22.78-12,27.89-30.72C107.67,211.48,94.63,214.6,80.29,220.3Zm-27.82,9.14c2.19-1.3-8.37,17.82-10.22,18.36C20.66,254.12-2.56,236,12.81,199.44c13.37-32.14,53.24-67.2,95.24-79.49,27-7.9,45.26,0,36.11,31-6.49,22.12-25.81,44.15-46.69,57.44,16.36-3.45,31-1.17,25.08,19.06-6.92,23.78-37.3,43.16-54.7,42.07-7.1-.43-16.85-8.23-12.12-28.53,4.88-20.93,22.59-84.13,26.56-102.84.16-.72,25.64-6,23.48,1.65-.83,2.75-9.34,25.79-17.16,52-2.5,8.25-4.49,15-6.16,21,18.38-8.21,34.32-32.26,40.79-55.7,7.82-28,1.7-35.59-18.54-29.67-37.95,11.11-57.44,33.86-70.82,62.67C17.49,225.14,17.1,251.49,52.47,229.44Z"/><path class="cls-42" d="M146.63,214.92c18.83-22,32-54,27-55.17-6.92-1.54-18.65,20.33-24.3,41.53A103.7,103.7,0,0,0,146.63,214.92Zm-.47,6c-.13,9.57,2.59,14.92,7.32,14.4,7.09-.78,25.43-16.46,35-37.46,3.17-6.78,4-7.53,4-4.53,0,1-.49,3.49-2.5,7.59-9.71,19.72-29.37,41-43.21,45-15.17,4.45-25.22-14.33-18.4-38.55,10.3-36.43,39.08-59.05,46.7-53.93,2.2,1.69,14.24,4.2,12.89,11.93C186,176.51,166.17,201.52,146.16,220.9Z"/><path class="cls-42" d="M202.46,198.58c18.82-22,32-54,26.94-55.16-6.91-1.55-18.65,20.32-24.29,41.52A102.08,102.08,0,0,0,202.46,198.58Zm-.48,6c-.12,9.56,2.6,14.92,7.33,14.4,7.09-.78,25.43-16.47,35-37.47,3.18-6.77,4-7.53,4-4.52,0,1-.49,3.48-2.5,7.58-9.71,19.72-29.38,41-43.21,45.05-15.18,4.45-25.23-14.33-18.41-38.55,10.31-36.43,39.08-59.05,46.71-53.93,2.2,1.69,14.23,4.2,12.89,11.93C241.86,160.18,222,185.18,202,204.57Z"/><path class="cls-42" d="M273.54,223.52c-2,38.35,4.7,69.8,20.72,65.11,22.27-6.52,33.07-45.43,10.54-61.06C297.51,222.52,286.36,221.44,273.54,223.52Zm-20.25,5.09c-29.51,9.64-63.87,30.22-88.43,52.77-2.69,2.47-9.36-16.47,11.68-31,18.35-12.72,48.36-25,77.05-31.23a239.17,239.17,0,0,1,7.72-46.87c8.14-30.45,10.18-28.09,5.79-28.43a30.81,30.81,0,0,1-5.07-.68c-4.5,13.34-10.86,28.23-16,39.6-1.84,4.05-3.52,6.21-4.36,7-2.52,2.41-2.53,1.41.65-5.2a145.86,145.86,0,0,0,13.66-43.26c-5.59-2.37-9.35-6.11-10.35-10.51-1.82-8,21.72-14.7,21.72-14.2.53,4.19-.46,10-2.29,16.71a51.94,51.94,0,0,0,5.41.42c15.88,1,21.78-.86,16.79,15.47-2.17,6.82-3.49,12-4.82,17.12A278.92,278.92,0,0,0,274,215.86c19.24-2.12,36.31-.43,47,7,25.75,17.86,10.4,60.28-29.91,72.07C263.43,303,252.46,269,253.29,228.61Z"/></g><g class="cls-43"><path class="cls-44" d="M79.93,219.93a214.72,214.72,0,0,0-5.14,21.55c-2.14,12-7.17,23.73-1.42,22.47,9.25-2,22.79-12,27.9-30.72C107.3,211.12,94.26,214.23,79.93,219.93ZM52.1,229.07c2.19-1.3-8.36,17.82-10.22,18.37-21.59,6.31-44.81-11.79-29.43-48.36,13.36-32.15,53.23-67.2,95.23-79.5,27-7.89,45.26,0,36.12,31-6.49,22.12-25.82,44.15-46.7,57.44,16.37-3.45,31-1.17,25.08,19.06-6.91,23.79-37.29,43.16-54.7,42.07-7.09-.42-16.85-8.23-12.12-28.53,4.88-20.93,22.6-84.13,26.56-102.83.17-.72,25.65-6,23.49,1.65-.83,2.74-9.35,25.78-17.17,52-2.49,8.25-4.49,15-6.15,21,18.37-8.22,34.31-32.26,40.79-55.71,7.81-28,1.7-35.59-18.54-29.66-37.95,11.1-57.44,33.85-70.82,62.66C17.12,224.78,16.73,251.12,52.1,229.07Z"/><path class="cls-44" d="M146.27,214.55c18.82-22.05,32-54,26.94-55.16-6.91-1.55-18.65,20.32-24.3,41.52A103.84,103.84,0,0,0,146.27,214.55Zm-.48,6c-.13,9.56,2.6,14.92,7.33,14.39,7.08-.78,25.43-16.46,35-37.46,3.18-6.78,4-7.53,4-4.52,0,1-.49,3.48-2.5,7.58-9.7,19.72-29.37,41-43.2,45.06C131.23,250,121.18,231.25,128,207c10.3-36.43,39.08-59.05,46.7-53.93,2.21,1.69,14.24,4.2,12.9,11.93C185.66,176.14,165.8,201.15,145.79,220.54Z"/><path class="cls-44" d="M202.1,198.21c18.81-22,32-54,26.94-55.16-6.92-1.55-18.66,20.32-24.3,41.53A101.8,101.8,0,0,0,202.1,198.21Zm-.48,6c-.13,9.56,2.59,14.92,7.33,14.4,7.08-.78,25.42-16.47,35-37.47,3.17-6.77,4-7.52,4-4.52,0,1-.49,3.49-2.5,7.59-9.71,19.71-29.37,41-43.2,45.05-15.18,4.44-25.23-14.33-18.42-38.56,10.31-36.43,39.09-59.05,46.71-53.93,2.21,1.7,14.24,4.21,12.89,11.94C241.49,159.81,221.63,184.81,201.62,204.2Z"/><path class="cls-44" d="M273.17,223.15c-2,38.36,4.7,69.8,20.72,65.11,22.27-6.51,33.08-45.43,10.54-61C297.14,222.15,286,221.07,273.17,223.15Zm-20.25,5.1c-29.51,9.63-63.87,30.21-88.43,52.77-2.69,2.46-9.36-16.47,11.69-31,18.35-12.72,48.36-25,77-31.23A238.44,238.44,0,0,1,261,171.93c8.13-30.45,10.18-28.09,5.78-28.42a30.76,30.76,0,0,1-5.07-.69c-4.5,13.34-10.85,28.23-16,39.61-1.84,4-3.53,6.21-4.37,6.95-2.52,2.41-2.52,1.41.66-5.2a146.09,146.09,0,0,0,13.65-43.26c-5.58-2.37-9.35-6.11-10.35-10.5-1.81-8,21.72-14.71,21.73-14.21.52,4.19-.47,10-2.3,16.71a52.16,52.16,0,0,0,5.41.42c15.88,1,21.78-.86,16.79,15.47-2.17,6.82-3.49,12.05-4.82,17.12a279.78,279.78,0,0,0-8.39,49.57c19.25-2.12,36.31-.44,47,7,25.76,17.86,10.41,60.27-29.91,72.07C263.06,302.63,252.09,268.58,252.92,228.25Z"/></g><g class="cls-45"><path class="cls-46" d="M79.56,219.56a218.29,218.29,0,0,0-5.14,21.56c-2.14,12-7.17,23.72-1.42,22.46,9.25-2,22.79-12,27.9-30.71C106.93,210.75,93.89,213.86,79.56,219.56Zm-27.82,9.15c2.18-1.31-8.37,17.82-10.23,18.36-21.59,6.32-44.8-11.78-29.43-48.36,13.37-32.15,53.24-67.2,95.23-79.49,27-7.9,45.27,0,36.12,31-6.49,22.12-25.81,44.14-46.7,57.44,16.37-3.45,31-1.18,25.09,19.05-6.92,23.79-37.3,43.17-54.7,42.08-7.1-.43-16.85-8.23-12.12-28.53,4.88-20.94,22.59-84.14,26.56-102.84.16-.72,25.64-6,23.48,1.65-.83,2.74-9.34,25.79-17.16,52-2.5,8.26-4.49,15-6.16,21,18.38-8.22,34.31-32.26,40.79-55.71,7.81-28,1.7-35.58-18.54-29.66C66,137.82,46.53,160.56,33.15,189.37,16.76,224.41,16.37,250.75,51.74,228.71Z"/><path class="cls-46" d="M145.9,214.19c18.82-22.05,32-54,26.95-55.17-6.92-1.55-18.66,20.32-24.3,41.52A103.82,103.82,0,0,0,145.9,214.19Zm-.48,6c-.12,9.56,2.6,14.92,7.33,14.4,7.09-.79,25.43-16.47,35-37.47,3.17-6.77,4-7.52,4-4.52,0,1-.5,3.49-2.51,7.59-9.7,19.71-29.37,41-43.2,45.05-15.18,4.44-25.22-14.34-18.41-38.55,10.31-36.43,39.08-59.06,46.71-53.94,2.2,1.7,14.23,4.2,12.89,11.94C185.3,175.78,165.43,200.79,145.42,220.17Z"/><path class="cls-46" d="M201.73,197.85c18.82-22,32-54,26.94-55.17-6.91-1.55-18.65,20.33-24.3,41.53A103.53,103.53,0,0,0,201.73,197.85Zm-.48,6c-.12,9.57,2.6,14.92,7.33,14.4,7.09-.78,25.42-16.46,35-37.46,3.18-6.78,4-7.53,4-4.53,0,1-.49,3.49-2.5,7.59-9.71,19.71-29.37,41-43.2,45-15.18,4.44-25.23-14.33-18.41-38.55,10.3-36.43,39.08-59.05,46.71-53.93,2.2,1.69,14.23,4.2,12.89,11.93C241.12,159.44,221.26,184.45,201.25,203.83Z"/><path class="cls-46" d="M272.8,222.79c-2,38.35,4.71,69.79,20.73,65.11,22.26-6.52,33.07-45.43,10.54-61.06C296.78,221.78,285.63,220.71,272.8,222.79Zm-20.24,5.09c-29.51,9.64-63.88,30.21-88.43,52.77-2.69,2.46-9.37-16.47,11.68-31,18.35-12.71,48.36-25,77-31.22a239.68,239.68,0,0,1,7.73-46.87c8.14-30.46,10.18-28.09,5.78-28.43a29.86,29.86,0,0,1-5.07-.69c-4.49,13.34-10.85,28.24-16,39.61-1.84,4.05-3.52,6.21-4.36,7-2.52,2.41-2.53,1.41.65-5.2a145.86,145.86,0,0,0,13.66-43.26c-5.59-2.38-9.35-6.12-10.35-10.51-1.82-8,21.72-14.71,21.72-14.21.53,4.19-.46,10-2.29,16.71a51.48,51.48,0,0,0,5.41.43c15.87,1,21.78-.87,16.79,15.46-2.17,6.82-3.5,12.06-4.82,17.12a280,280,0,0,0-8.4,49.57c19.25-2.12,36.31-.43,47,7,25.75,17.86,10.4,60.27-29.91,72.07C262.69,302.26,251.73,268.22,252.56,227.88Z"/></g><g class="cls-47"><path class="cls-48" d="M79.19,219.2a220.39,220.39,0,0,0-5.14,21.55c-2.14,12-7.17,23.73-1.41,22.47,9.25-2,22.78-12,27.89-30.72C106.57,210.38,93.53,213.5,79.19,219.2Zm-27.82,9.14C53.56,227,43,246.16,41.15,246.7,19.56,253-3.66,234.92,11.71,198.34,25.08,166.2,65,131.14,107,118.85c27-7.9,45.26,0,36.11,31C136.57,172,117.25,194,96.37,207.32c16.36-3.45,31-1.17,25.08,19.06-6.92,23.78-37.3,43.16-54.7,42.07-7.1-.43-16.85-8.23-12.12-28.53C59.51,219,77.22,155.79,81.19,137.08c.16-.72,25.64-6,23.48,1.65-.83,2.75-9.34,25.79-17.16,52-2.5,8.25-4.49,15-6.16,21,18.38-8.21,34.32-32.26,40.79-55.7,7.82-28,1.7-35.59-18.54-29.67C65.65,137.45,46.16,160.2,32.78,189,16.39,224,16,250.39,51.37,228.34Z"/><path class="cls-48" d="M145.54,213.82c18.82-22,32-54,26.94-55.17-6.92-1.54-18.65,20.33-24.3,41.53A101.92,101.92,0,0,0,145.54,213.82Zm-.48,6c-.13,9.57,2.59,14.92,7.32,14.4,7.09-.78,25.43-16.46,35-37.46,3.17-6.78,4-7.53,4-4.53,0,1-.49,3.49-2.5,7.59-9.71,19.72-29.37,41-43.21,45-15.17,4.45-25.22-14.33-18.4-38.55,10.3-36.43,39.08-59.05,46.7-53.93,2.2,1.69,14.24,4.2,12.89,11.93C184.93,175.41,165.07,200.42,145.06,219.8Z"/><path class="cls-48" d="M201.36,197.48c18.82-22,32-54,26.94-55.16-6.91-1.55-18.65,20.32-24.29,41.52A103.7,103.7,0,0,0,201.36,197.48Zm-.48,6c-.12,9.56,2.6,14.92,7.33,14.4,7.09-.78,25.43-16.47,35-37.47,3.18-6.77,4-7.53,4-4.52,0,1-.49,3.48-2.5,7.58-9.71,19.72-29.38,41-43.21,45.06C186.32,233,176.27,214.18,183.09,190c10.31-36.43,39.08-59.05,46.71-53.93,2.2,1.69,14.24,4.2,12.89,11.93C240.76,159.08,220.9,184.08,200.88,203.47Z"/><path class="cls-48" d="M272.44,222.42c-2,38.35,4.7,69.8,20.72,65.11,22.27-6.52,33.07-45.43,10.54-61.06C296.41,221.42,285.26,220.34,272.44,222.42Zm-20.25,5.09c-29.51,9.64-63.87,30.22-88.43,52.77-2.69,2.47-9.36-16.47,11.68-31,18.36-12.72,48.36-25,77.05-31.23a239.17,239.17,0,0,1,7.72-46.87c8.14-30.45,10.18-28.09,5.79-28.43a30.81,30.81,0,0,1-5.07-.68c-4.5,13.34-10.86,28.23-16,39.6-1.84,4.05-3.52,6.21-4.36,7-2.52,2.41-2.53,1.41.65-5.2a145.86,145.86,0,0,0,13.66-43.26c-5.59-2.37-9.35-6.11-10.35-10.51-1.82-8,21.72-14.7,21.72-14.2.53,4.19-.46,10-2.29,16.71a51.94,51.94,0,0,0,5.41.42c15.88,1,21.78-.86,16.79,15.47-2.17,6.82-3.49,12-4.82,17.12a278.92,278.92,0,0,0-8.39,49.56c19.24-2.12,36.31-.43,47,7C345.64,239.59,330.29,282,290,293.8,262.33,301.9,251.36,267.85,252.19,227.51Z"/></g><g class="cls-49"><path class="cls-50" d="M78.83,218.83a214.72,214.72,0,0,0-5.14,21.55c-2.14,12-7.17,23.73-1.42,22.47,9.25-2,22.79-12,27.9-30.72C106.2,210,93.16,213.13,78.83,218.83ZM51,228c2.19-1.3-8.36,17.82-10.22,18.37C19.19,252.65-4,234.56,11.35,198c13.36-32.15,53.23-67.2,95.23-79.5,27-7.89,45.26,0,36.12,31C136.21,171.63,116.88,193.66,96,207c16.37-3.45,31-1.17,25.08,19.06-6.91,23.79-37.29,43.16-54.7,42.07-7.09-.42-16.85-8.23-12.12-28.53,4.88-20.93,22.6-84.13,26.56-102.83.17-.72,25.65-6,23.49,1.65-.83,2.74-9.35,25.78-17.17,52-2.49,8.25-4.49,15-6.15,21,18.37-8.22,34.31-32.26,40.79-55.71,7.81-28,1.7-35.59-18.54-29.66-37.95,11.1-57.44,33.85-70.82,62.66C16,223.68,15.63,250,51,228Z"/><path class="cls-50" d="M145.17,213.45c18.82-22,32-54,26.94-55.16-6.91-1.55-18.65,20.32-24.3,41.52A103.84,103.84,0,0,0,145.17,213.45Zm-.48,6c-.13,9.56,2.6,14.92,7.33,14.39,7.08-.78,25.43-16.46,35-37.46,3.18-6.77,4-7.53,4-4.52,0,1-.49,3.48-2.5,7.58-9.7,19.72-29.37,41-43.2,45.06-15.18,4.44-25.23-14.34-18.41-38.56C137.21,169.5,166,146.88,173.61,152c2.2,1.69,14.23,4.2,12.89,11.93C184.56,175,164.7,200.05,144.69,219.44Z"/><path class="cls-50" d="M201,197.12c18.81-22.05,32-54,26.94-55.17-6.92-1.55-18.66,20.33-24.3,41.53A101.62,101.62,0,0,0,201,197.12Zm-.48,6c-.13,9.57,2.59,14.92,7.33,14.4,7.08-.78,25.42-16.47,35-37.47,3.17-6.77,4-7.52,4-4.52,0,1-.49,3.49-2.5,7.59-9.71,19.71-29.37,41-43.2,45.05-15.18,4.44-25.23-14.33-18.41-38.55,10.3-36.44,39.08-59.06,46.7-53.93,2.21,1.69,14.24,4.2,12.89,11.93C240.39,158.71,220.53,183.71,200.52,203.1Z"/><path class="cls-50" d="M272.07,222.05c-2,38.36,4.7,69.8,20.73,65.11,22.26-6.51,33.07-45.43,10.53-61.05C296,221.05,284.89,220,272.07,222.05Zm-20.24,5.1c-29.52,9.63-63.88,30.21-88.44,52.77-2.69,2.46-9.36-16.47,11.69-31,18.35-12.71,48.36-25,77-31.23a238.44,238.44,0,0,1,7.73-46.87c8.13-30.45,10.18-28.09,5.78-28.42a29.72,29.72,0,0,1-5.07-.69c-4.5,13.34-10.85,28.23-16,39.61-1.84,4-3.53,6.21-4.37,6.95-2.52,2.41-2.52,1.41.66-5.2a146.09,146.09,0,0,0,13.65-43.26c-5.58-2.37-9.34-6.11-10.35-10.5-1.81-8,21.72-14.71,21.73-14.21.52,4.19-.47,10-2.3,16.71a52.16,52.16,0,0,0,5.41.42c15.88,1,21.78-.86,16.79,15.47-2.17,6.82-3.49,12-4.82,17.12a279.78,279.78,0,0,0-8.39,49.57c19.25-2.12,36.31-.44,47,7,25.76,17.86,10.41,60.27-29.91,72.07C262,301.53,251,267.49,251.83,227.15Z"/></g><g class="cls-51"><path class="cls-52" d="M78.46,218.46A218.29,218.29,0,0,0,73.32,240c-2.14,12-7.17,23.72-1.42,22.47,9.25-2,22.79-12,27.9-30.72C105.83,209.65,92.79,212.76,78.46,218.46Zm-27.82,9.15c2.19-1.31-8.37,17.82-10.23,18.36C18.82,252.29-4.39,234.19,11,197.61c13.37-32.15,53.24-67.2,95.23-79.49,27-7.9,45.27-.05,36.12,31-6.49,22.12-25.81,44.14-46.7,57.44,16.37-3.45,31-1.18,25.09,19-6.92,23.79-37.3,43.17-54.7,42.08-7.1-.43-16.85-8.23-12.12-28.53,4.88-20.94,22.59-84.14,26.56-102.84.16-.72,25.64-6,23.48,1.65-.83,2.74-9.34,25.79-17.16,52-2.5,8.26-4.49,15-6.16,21,18.38-8.22,34.31-32.26,40.79-55.71,7.81-28,1.7-35.58-18.54-29.66-37.95,11.11-57.44,33.85-70.82,62.66C15.66,223.31,15.27,249.65,50.64,227.61Z"/><path class="cls-52" d="M144.8,213.09c18.82-22.05,32-54,26.95-55.17-6.92-1.55-18.66,20.32-24.3,41.52A103.82,103.82,0,0,0,144.8,213.09Zm-.48,6c-.12,9.56,2.6,14.92,7.33,14.4,7.09-.79,25.43-16.47,35-37.47,3.17-6.77,4-7.52,4-4.52,0,1-.5,3.49-2.51,7.59-9.7,19.71-29.37,41-43.2,45.05-15.18,4.44-25.22-14.34-18.41-38.55,10.31-36.43,39.08-59.06,46.71-53.94,2.2,1.7,14.23,4.2,12.89,11.94C184.2,174.68,164.33,199.69,144.32,219.07Z"/><path class="cls-52" d="M200.63,196.75c18.82-22.05,32-54,26.94-55.17-6.91-1.55-18.65,20.33-24.3,41.53A103.53,103.53,0,0,0,200.63,196.75Zm-.48,6c-.12,9.57,2.6,14.92,7.33,14.4,7.09-.78,25.42-16.46,35-37.46,3.18-6.78,4-7.53,4-4.53,0,1-.49,3.49-2.5,7.59-9.71,19.71-29.37,41-43.2,45.05-15.18,4.44-25.23-14.33-18.41-38.55,10.3-36.43,39.08-59,46.71-53.93,2.2,1.69,14.23,4.2,12.89,11.93C240,158.34,220.16,183.35,200.15,202.73Z"/><path class="cls-52" d="M271.7,221.69c-2,38.35,4.71,69.79,20.73,65.11,22.26-6.52,33.07-45.43,10.54-61.06C295.68,220.68,284.53,219.61,271.7,221.69Zm-20.24,5.09C222,236.42,187.58,257,163,279.55c-2.69,2.46-9.37-16.47,11.68-31,18.35-12.72,48.36-25,77-31.23a239.68,239.68,0,0,1,7.73-46.87c8.14-30.46,10.18-28.09,5.78-28.43a29.86,29.86,0,0,1-5.07-.69c-4.49,13.34-10.85,28.24-16,39.61-1.84,4-3.52,6.21-4.36,7-2.52,2.41-2.53,1.41.65-5.2a145.86,145.86,0,0,0,13.66-43.26c-5.59-2.38-9.35-6.11-10.35-10.51-1.82-8,21.72-14.71,21.72-14.21.53,4.19-.46,10-2.29,16.71a51.48,51.48,0,0,0,5.41.43c15.88,1,21.78-.87,16.79,15.47-2.17,6.81-3.5,12.05-4.82,17.11a280,280,0,0,0-8.4,49.57c19.25-2.12,36.31-.43,47,7,25.75,17.86,10.4,60.27-29.91,72.07C261.59,301.16,250.63,267.12,251.46,226.78Z"/></g><g class="cls-53"><path class="cls-54" d="M78.09,218.1A217.13,217.13,0,0,0,73,239.65c-2.15,12-7.18,23.73-1.42,22.47,9.25-2,22.78-12,27.89-30.72C105.47,209.28,92.43,212.4,78.09,218.1Zm-27.82,9.14c2.19-1.3-8.37,17.82-10.22,18.36-21.59,6.32-44.81-11.78-29.44-48.36C24,165.1,63.85,130,105.85,117.75c27-7.9,45.26,0,36.11,31-6.49,22.12-25.81,44.15-46.69,57.44,16.36-3.45,31-1.17,25.08,19.06-6.91,23.78-37.3,43.16-54.7,42.07-7.1-.43-16.85-8.23-12.12-28.53C58.41,217.89,76.12,154.69,80.09,136c.17-.71,25.64-6,23.48,1.65-.83,2.75-9.34,25.79-17.16,52-2.5,8.25-4.49,15-6.15,21,18.37-8.22,34.31-32.27,40.78-55.71,7.82-28,1.7-35.59-18.53-29.67-38,11.11-57.45,33.86-70.83,62.67C15.29,222.94,14.9,249.29,50.27,227.24Z"/><path class="cls-54" d="M144.44,212.72c18.82-22.05,32-54,26.94-55.17-6.92-1.54-18.65,20.33-24.3,41.53A101.92,101.92,0,0,0,144.44,212.72Zm-.48,6c-.13,9.57,2.6,14.92,7.32,14.4,7.09-.78,25.43-16.46,35-37.46,3.17-6.78,4-7.53,4-4.53,0,1-.49,3.49-2.5,7.59-9.71,19.72-29.37,41-43.21,45.05-15.17,4.45-25.22-14.33-18.4-38.55,10.3-36.43,39.08-59,46.7-53.93,2.21,1.69,14.24,4.2,12.89,11.93C183.83,174.31,164,199.32,144,218.7Z"/><path class="cls-54" d="M200.26,196.38c18.82-22,32-54,26.94-55.16-6.91-1.55-18.65,20.32-24.29,41.52A103.7,103.7,0,0,0,200.26,196.38Zm-.48,6c-.12,9.56,2.6,14.92,7.33,14.4,7.09-.78,25.43-16.47,35-37.47,3.18-6.77,4-7.53,4-4.52,0,1-.49,3.48-2.5,7.58-9.71,19.72-29.38,41-43.2,45.06-15.19,4.44-25.24-14.34-18.42-38.56,10.31-36.43,39.08-59.05,46.71-53.93,2.2,1.69,14.24,4.2,12.89,11.93C239.66,158,219.8,183,199.78,202.37Z"/><path class="cls-54" d="M271.34,221.32c-2,38.35,4.7,69.8,20.72,65.11,22.27-6.52,33.07-45.43,10.54-61.06C295.31,220.32,284.16,219.24,271.34,221.32Zm-20.25,5.09c-29.51,9.64-63.87,30.22-88.43,52.77-2.69,2.47-9.36-16.47,11.68-31,18.36-12.72,48.36-25,77-31.23a239.17,239.17,0,0,1,7.72-46.87c8.14-30.45,10.18-28.09,5.79-28.43a30.81,30.81,0,0,1-5.07-.68c-4.5,13.34-10.85,28.23-16,39.6-1.84,4-3.52,6.21-4.36,7-2.52,2.41-2.52,1.41.65-5.2a145.86,145.86,0,0,0,13.66-43.26c-5.59-2.37-9.35-6.11-10.35-10.51-1.82-8,21.72-14.7,21.72-14.2.53,4.19-.46,10-2.29,16.71a51.94,51.94,0,0,0,5.41.42c15.88,1,21.78-.86,16.79,15.47-2.17,6.82-3.49,12.05-4.82,17.12a278.92,278.92,0,0,0-8.39,49.56c19.24-2.12,36.31-.43,47,7,25.75,17.86,10.4,60.28-29.91,72.07C261.23,300.8,250.26,266.75,251.09,226.41Z"/></g><g class="cls-55"><path class="cls-56" d="M77.73,217.73a214.72,214.72,0,0,0-5.14,21.55c-2.14,12-7.17,23.73-1.42,22.47,9.25-2,22.79-12,27.9-30.72C105.1,208.92,92.06,212,77.73,217.73ZM49.9,226.88c2.19-1.31-8.36,17.81-10.22,18.36-21.59,6.31-44.8-11.78-29.43-48.36,13.36-32.15,53.23-67.2,95.23-79.5,27-7.89,45.26,0,36.12,31-6.49,22.12-25.82,44.15-46.7,57.44,16.37-3.45,31-1.17,25.08,19.06-6.91,23.79-37.29,43.16-54.7,42.07-7.09-.42-16.85-8.22-12.12-28.53,4.88-20.93,22.6-84.13,26.56-102.83.17-.72,25.65-6,23.49,1.65-.83,2.74-9.35,25.78-17.16,52-2.5,8.25-4.5,15-6.16,21C98.26,202,114.2,178,120.68,154.54c7.81-28,1.7-35.59-18.54-29.66C64.19,136,44.7,158.73,31.32,187.54,14.92,222.58,14.53,248.92,49.9,226.88Z"/><path class="cls-56" d="M144.07,212.35c18.82-22,32-54,26.94-55.16-6.91-1.55-18.65,20.32-24.3,41.52A103.84,103.84,0,0,0,144.07,212.35Zm-.48,6c-.13,9.56,2.6,14.92,7.33,14.39,7.08-.78,25.43-16.46,35-37.46,3.18-6.77,4-7.53,4-4.52,0,1-.49,3.48-2.5,7.58-9.7,19.72-29.37,41-43.2,45.06C129,247.83,119,229.05,125.8,204.83c10.31-36.43,39.08-59.05,46.71-53.93,2.2,1.69,14.23,4.2,12.89,11.93C183.46,173.94,163.6,199,143.59,218.34Z"/><path class="cls-56" d="M199.9,196c18.81-22.05,32-54,26.94-55.17-6.92-1.55-18.66,20.33-24.3,41.53A101.92,101.92,0,0,0,199.9,196Zm-.48,6c-.13,9.57,2.6,14.92,7.33,14.4,7.08-.78,25.42-16.47,35-37.47,3.17-6.77,4-7.52,4-4.52,0,1-.49,3.49-2.5,7.59-9.71,19.71-29.37,41-43.2,45.05-15.18,4.44-25.23-14.33-18.41-38.55,10.3-36.43,39.08-59.06,46.7-53.93,2.21,1.69,14.24,4.2,12.89,11.93C239.29,157.61,219.43,182.61,199.42,202Z"/><path class="cls-56" d="M271,221c-2,38.36,4.7,69.8,20.73,65.11,22.26-6.51,33.07-45.43,10.53-61.05C294.94,220,283.79,218.87,271,221Zm-20.24,5.1c-29.52,9.63-63.88,30.21-88.44,52.77-2.69,2.46-9.36-16.47,11.69-31,18.35-12.71,48.36-25,77-31.23a238.44,238.44,0,0,1,7.73-46.87c8.13-30.45,10.18-28.09,5.78-28.42a29.86,29.86,0,0,1-5.07-.69c-4.5,13.34-10.85,28.23-16,39.61-1.84,4.05-3.53,6.21-4.37,7-2.52,2.4-2.52,1.4.66-5.21,7.86-16.17,12-31.25,13.65-43.26-5.58-2.37-9.34-6.11-10.35-10.5-1.81-8,21.72-14.71,21.73-14.21.52,4.19-.47,10-2.3,16.71a52.16,52.16,0,0,0,5.41.42c15.88,1,21.79-.86,16.79,15.47-2.17,6.82-3.49,12-4.82,17.12a279.78,279.78,0,0,0-8.39,49.57c19.25-2.12,36.31-.44,47,7,25.76,17.86,10.41,60.27-29.91,72.07C260.86,300.43,249.89,266.39,250.73,226.05Z"/></g><g class="cls-57"><path class="cls-58" d="M77.36,217.36a218.29,218.29,0,0,0-5.14,21.56c-2.14,12-7.17,23.72-1.42,22.47,9.25-2,22.79-12,27.9-30.72C104.73,208.55,91.69,211.66,77.36,217.36Zm-27.82,9.15c2.19-1.31-8.37,17.82-10.23,18.36-21.59,6.32-44.8-11.78-29.43-48.36,13.37-32.15,53.24-67.2,95.23-79.49,27-7.9,45.27,0,36.12,31-6.49,22.12-25.81,44.14-46.7,57.44,16.37-3.45,31-1.18,25.09,19-6.92,23.79-37.3,43.17-54.7,42.08-7.1-.43-16.85-8.23-12.12-28.53C57.68,217.15,75.39,154,79.36,135.25c.16-.72,25.64-6,23.48,1.65-.83,2.74-9.34,25.79-17.16,52-2.5,8.26-4.49,15-6.16,21,18.38-8.22,34.31-32.26,40.79-55.71,7.82-28,1.7-35.58-18.54-29.66C63.82,135.62,44.33,158.36,31,187.17,14.56,222.21,14.17,248.55,49.54,226.51Z"/><path class="cls-58" d="M143.7,212c18.82-22.05,32-54,27-55.17-6.92-1.55-18.66,20.32-24.3,41.53A103.39,103.39,0,0,0,143.7,212Zm-.47,6c-.13,9.56,2.59,14.92,7.32,14.4,7.09-.79,25.43-16.47,35-37.46,3.17-6.78,4-7.53,4-4.53,0,1-.49,3.49-2.51,7.59-9.7,19.71-29.36,41-43.2,45.05-15.18,4.44-25.22-14.34-18.41-38.55,10.31-36.43,39.09-59.06,46.71-53.94,2.2,1.7,14.23,4.2,12.89,11.94C183.1,173.58,163.23,198.59,143.23,218Z"/><path class="cls-58" d="M199.53,195.65c18.82-22.05,32-54,26.94-55.17-6.91-1.55-18.65,20.33-24.3,41.53A103.53,103.53,0,0,0,199.53,195.65Zm-.48,6c-.12,9.57,2.6,14.92,7.33,14.4,7.09-.78,25.42-16.46,35-37.46,3.18-6.78,4-7.53,4-4.53,0,1-.49,3.49-2.5,7.59-9.71,19.71-29.37,41-43.2,45.05-15.18,4.44-25.23-14.33-18.41-38.55,10.31-36.43,39.08-59,46.71-53.93,2.2,1.69,14.23,4.2,12.89,11.93C238.93,157.24,219.06,182.25,199.05,201.63Z"/><path class="cls-58" d="M270.6,220.59c-2,38.35,4.71,69.79,20.73,65.11,22.26-6.52,33.07-45.43,10.54-61.06C294.58,219.58,283.43,218.51,270.6,220.59Zm-20.24,5.09c-29.51,9.64-63.88,30.22-88.43,52.77-2.69,2.46-9.37-16.47,11.68-31,18.35-12.72,48.36-25,77-31.23a239.68,239.68,0,0,1,7.73-46.87c8.14-30.46,10.18-28.09,5.78-28.43a29.86,29.86,0,0,1-5.07-.69c-4.49,13.35-10.85,28.24-16,39.61-1.84,4-3.52,6.21-4.36,7-2.52,2.41-2.53,1.41.65-5.2A145.86,145.86,0,0,0,253,138.36c-5.59-2.38-9.35-6.11-10.35-10.51-1.82-8,21.72-14.71,21.72-14.21.53,4.19-.46,10-2.29,16.71a51.48,51.48,0,0,0,5.41.43c15.88,1,21.78-.87,16.79,15.47-2.17,6.81-3.5,12.05-4.82,17.11a280,280,0,0,0-8.4,49.57c19.25-2.12,36.32-.43,47,7,25.75,17.86,10.4,60.27-29.91,72.07C260.49,300.06,249.53,266,250.36,225.68Z"/></g><g class="cls-59"><path class="cls-60" d="M77,217a217.13,217.13,0,0,0-5.13,21.55c-2.15,12-7.18,23.73-1.42,22.47,9.25-2,22.79-12,27.89-30.72C104.37,208.18,91.33,211.3,77,217Zm-27.82,9.14C51.36,224.84,40.8,244,39,244.5c-21.59,6.32-44.81-11.78-29.44-48.36,13.37-32.14,53.24-67.2,95.24-79.49,27-7.9,45.26,0,36.11,31-6.49,22.12-25.81,44.15-46.69,57.44,16.36-3.45,31-1.17,25.08,19.06C112.34,248,82,267.34,64.55,266.25c-7.1-.43-16.85-8.23-12.12-28.53C57.31,216.79,75,153.59,79,134.88c.17-.71,25.64-6,23.48,1.65-.83,2.75-9.34,25.79-17.16,52-2.5,8.25-4.49,15-6.15,21,18.37-8.22,34.31-32.27,40.78-55.71,7.82-28,1.7-35.59-18.53-29.66C63.45,135.25,44,158,30.58,186.81,14.19,221.84,13.8,248.19,49.17,226.14Z"/><path class="cls-60" d="M143.34,211.62c18.82-22.05,32-54,26.94-55.17-6.92-1.54-18.65,20.33-24.3,41.53A101.92,101.92,0,0,0,143.34,211.62Zm-.48,6c-.13,9.57,2.6,14.92,7.32,14.4,7.09-.78,25.43-16.46,35-37.46,3.17-6.78,4-7.53,4-4.53,0,1-.49,3.49-2.5,7.59-9.71,19.72-29.37,41-43.2,45.05-15.18,4.45-25.23-14.33-18.41-38.55,10.3-36.43,39.08-59,46.7-53.93,2.21,1.69,14.24,4.2,12.89,11.93C182.73,173.21,162.87,198.22,142.86,217.6Z"/><path class="cls-60" d="M199.16,195.28c18.82-22,32-54,26.94-55.16-6.91-1.55-18.65,20.32-24.29,41.52A103.7,103.7,0,0,0,199.16,195.28Zm-.48,6c-.12,9.56,2.6,14.92,7.33,14.4,7.09-.78,25.43-16.47,35-37.47,3.18-6.77,4-7.53,4-4.52,0,1-.49,3.49-2.5,7.58-9.71,19.72-29.38,41-43.2,45.06-15.19,4.44-25.24-14.34-18.42-38.56,10.31-36.43,39.08-59,46.71-53.93,2.2,1.69,14.24,4.2,12.89,11.94C238.56,156.88,218.7,181.88,198.68,201.27Z"/><path class="cls-60" d="M270.24,220.22c-2,38.35,4.7,69.8,20.72,65.11,22.27-6.52,33.07-45.43,10.54-61.06C294.21,219.22,283.06,218.14,270.24,220.22ZM250,225.31c-29.51,9.64-63.87,30.22-88.43,52.77-2.69,2.47-9.36-16.47,11.69-31,18.35-12.72,48.35-25,77-31.23A239.17,239.17,0,0,1,258,169c8.14-30.45,10.18-28.09,5.79-28.43a29.77,29.77,0,0,1-5.07-.68c-4.5,13.34-10.85,28.23-16,39.6-1.84,4-3.52,6.21-4.36,7-2.52,2.41-2.52,1.41.65-5.2A145.86,145.86,0,0,0,252.64,138c-5.59-2.37-9.35-6.11-10.35-10.51-1.82-8,21.72-14.7,21.72-14.2.53,4.19-.46,10-2.29,16.71a51.94,51.94,0,0,0,5.41.42c15.88,1,21.78-.86,16.79,15.47-2.17,6.82-3.49,12.05-4.82,17.12a278.92,278.92,0,0,0-8.39,49.56c19.24-2.12,36.31-.43,47,7,25.75,17.85,10.4,60.27-29.91,72.06C260.13,299.7,249.16,265.65,250,225.31Z"/></g><g class="cls-61"><path class="cls-62" d="M76.63,216.63a214.19,214.19,0,0,0-5.14,21.56c-2.14,12-7.17,23.72-1.42,22.46,9.25-2,22.79-12,27.9-30.72C104,207.82,91,210.93,76.63,216.63ZM48.8,225.78c2.19-1.31-8.36,17.81-10.22,18.36C17,250.45-6.22,232.36,9.15,195.78c13.36-32.15,53.23-67.2,95.23-79.5,27-7.89,45.26,0,36.12,31-6.49,22.12-25.82,44.15-46.7,57.44,16.37-3.45,31-1.17,25.08,19.06C112,247.6,81.59,267,64.18,265.88c-7.09-.42-16.85-8.22-12.12-28.53,4.88-20.93,22.6-84.13,26.56-102.83.17-.72,25.65-6,23.49,1.65-.83,2.74-9.35,25.78-17.16,52-2.5,8.25-4.5,15-6.16,21,18.37-8.22,34.31-32.26,40.79-55.71,7.81-28,1.7-35.59-18.54-29.66-37.95,11.1-57.44,33.85-70.82,62.66C13.82,221.48,13.43,247.82,48.8,225.78Z"/><path class="cls-62" d="M143,211.25c18.82-22.05,32-54,26.94-55.16-6.91-1.55-18.65,20.32-24.3,41.52A103.84,103.84,0,0,0,143,211.25Zm-.48,6c-.13,9.56,2.6,14.92,7.33,14.39,7.08-.78,25.43-16.46,35-37.46,3.18-6.77,4-7.53,4-4.52,0,1-.49,3.48-2.5,7.58-9.7,19.72-29.37,41-43.2,45.06-15.18,4.44-25.23-14.34-18.41-38.56,10.31-36.43,39.08-59,46.71-53.93,2.2,1.69,14.23,4.2,12.89,11.93C182.36,172.85,162.5,197.85,142.49,217.24Z"/><path class="cls-62" d="M198.8,194.92c18.82-22,32-54,26.94-55.17-6.92-1.55-18.66,20.33-24.3,41.53A101.92,101.92,0,0,0,198.8,194.92Zm-.48,6c-.13,9.57,2.6,14.92,7.33,14.4,7.08-.78,25.42-16.47,35-37.47,3.18-6.77,4-7.52,4-4.52,0,1-.49,3.49-2.5,7.59-9.71,19.71-29.37,41-43.2,45-15.18,4.44-25.23-14.33-18.41-38.55,10.3-36.43,39.08-59.06,46.7-53.93,2.21,1.69,14.24,4.2,12.89,11.93C238.19,156.51,218.33,181.51,198.32,200.9Z"/><path class="cls-62" d="M269.87,219.85c-2,38.36,4.7,69.8,20.73,65.11,22.26-6.51,33.07-45.43,10.53-61C293.84,218.85,282.69,217.77,269.87,219.85ZM249.63,225c-29.52,9.64-63.88,30.21-88.44,52.77-2.69,2.46-9.36-16.47,11.69-31,18.35-12.71,48.36-25,77-31.23a238.44,238.44,0,0,1,7.73-46.87c8.13-30.45,10.18-28.09,5.78-28.42a29.86,29.86,0,0,1-5.07-.69c-4.5,13.34-10.85,28.23-16,39.61-1.84,4.05-3.53,6.21-4.37,7-2.52,2.4-2.52,1.4.66-5.21,7.86-16.17,12-31.25,13.65-43.26-5.58-2.37-9.34-6.11-10.35-10.5-1.81-8,21.72-14.71,21.73-14.21.52,4.19-.47,10-2.3,16.71a52.16,52.16,0,0,0,5.41.42c15.88,1,21.79-.86,16.79,15.47-2.16,6.82-3.49,12.05-4.82,17.12a279.78,279.78,0,0,0-8.39,49.57c19.25-2.12,36.31-.44,47,7,25.76,17.86,10.41,60.27-29.91,72.07C259.76,299.33,248.79,265.29,249.63,225Z"/></g><g class="cls-63"><path class="cls-64" d="M76.26,216.27a220.39,220.39,0,0,0-5.14,21.55c-2.14,12-7.17,23.72-1.42,22.47,9.25-2,22.79-12,27.9-30.72C103.63,207.45,90.59,210.57,76.26,216.27Zm-27.82,9.14c2.19-1.31-8.37,17.82-10.23,18.36C16.62,250.09-6.59,232,8.78,195.41,22.15,163.26,62,128.21,104,115.92c27-7.9,45.27,0,36.12,31-6.49,22.12-25.81,44.14-46.7,57.44,16.37-3.45,31-1.18,25.09,19.05-6.92,23.79-37.3,43.17-54.7,42.08C56.72,265.09,47,257.29,51.7,237c4.88-20.94,22.59-84.13,26.56-102.84.16-.72,25.64-6,23.48,1.65-.83,2.74-9.34,25.79-17.16,52-2.5,8.25-4.49,15-6.16,21,18.38-8.22,34.31-32.26,40.79-55.71,7.82-28,1.7-35.58-18.54-29.66-37.95,11.11-57.44,33.85-70.82,62.66C13.46,221.11,13.07,247.45,48.44,225.41Z"/><path class="cls-64" d="M142.6,210.89c18.82-22,32-54,27-55.17-6.92-1.55-18.66,20.32-24.3,41.53A103.39,103.39,0,0,0,142.6,210.89Zm-.47,6c-.13,9.56,2.59,14.92,7.32,14.4,7.09-.78,25.43-16.47,35-37.46,3.17-6.78,4-7.53,4-4.53,0,1-.49,3.49-2.51,7.59-9.7,19.71-29.36,41-43.2,45-15.18,4.44-25.22-14.34-18.41-38.55,10.31-36.43,39.09-59.06,46.71-53.94,2.2,1.7,14.23,4.2,12.89,11.94C182,172.48,162.14,197.49,142.13,216.87Z"/><path class="cls-64" d="M198.43,194.55c18.82-22.05,32-54,26.94-55.17-6.91-1.54-18.65,20.33-24.3,41.53A103.53,103.53,0,0,0,198.43,194.55Zm-.48,6c-.12,9.57,2.6,14.92,7.33,14.4,7.09-.78,25.42-16.46,35-37.46,3.18-6.77,4-7.53,4-4.53,0,1-.49,3.49-2.5,7.59-9.71,19.72-29.37,41-43.2,45.05C183.39,230,173.34,211.25,180.16,187c10.31-36.43,39.08-59,46.71-53.93,2.2,1.69,14.23,4.2,12.89,11.93C237.83,156.14,218,181.15,198,200.53Z"/><path class="cls-64" d="M269.5,219.49c-2,38.35,4.71,69.79,20.73,65.11,22.27-6.52,33.07-45.43,10.54-61.06C293.48,218.48,282.33,217.41,269.5,219.49Zm-20.24,5.09c-29.51,9.64-63.88,30.22-88.43,52.77-2.69,2.47-9.37-16.47,11.68-31,18.35-12.72,48.36-25,77-31.23a239.68,239.68,0,0,1,7.73-46.87c8.14-30.46,10.18-28.09,5.79-28.43a29.85,29.85,0,0,1-5.08-.69c-4.49,13.35-10.85,28.24-16,39.61-1.84,4.05-3.52,6.21-4.36,7-2.52,2.41-2.53,1.41.65-5.2a145.86,145.86,0,0,0,13.66-43.26c-5.59-2.37-9.35-6.11-10.35-10.51-1.82-8,21.72-14.71,21.72-14.21.53,4.19-.46,10-2.29,16.72,1.52.22,3.38.34,5.41.42,15.88,1,21.78-.86,16.79,15.47-2.17,6.81-3.5,12-4.82,17.11a280.11,280.11,0,0,0-8.4,49.57c19.25-2.12,36.32-.43,47,7,25.75,17.86,10.4,60.28-29.91,72.07C259.39,299,248.43,264.92,249.26,224.58Z"/></g><g class="cls-65"><path class="cls-66" d="M75.89,215.9a217.13,217.13,0,0,0-5.13,21.55c-2.14,12-7.18,23.73-1.42,22.47,9.25-2,22.79-12,27.89-30.72C103.27,207.08,90.23,210.2,75.89,215.9ZM48.07,225c2.19-1.3-8.37,17.82-10.22,18.36C16.26,249.72-7,231.62,8.41,195c13.37-32.14,53.24-67.2,95.24-79.49,27-7.9,45.26,0,36.11,31C133.27,168.7,114,190.73,93.07,204c16.36-3.45,31-1.17,25.08,19.06-6.91,23.78-37.3,43.16-54.7,42.07-7.1-.43-16.85-8.23-12.12-28.53,4.88-20.93,22.59-84.13,26.56-102.84.17-.71,25.64-6,23.48,1.65-.83,2.75-9.34,25.79-17.16,52-2.5,8.25-4.49,15-6.15,21,18.37-8.22,34.31-32.27,40.78-55.71,7.82-28,1.71-35.59-18.53-29.66-38,11.1-57.45,33.85-70.83,62.66C13.09,220.74,12.7,247.09,48.07,225Z"/><path class="cls-66" d="M142.24,210.52c18.82-22.05,32-54,26.94-55.16-6.92-1.55-18.65,20.32-24.3,41.52A101.92,101.92,0,0,0,142.24,210.52Zm-.48,6c-.13,9.56,2.6,14.91,7.32,14.39,7.09-.78,25.43-16.46,35-37.46,3.17-6.78,4-7.53,4-4.52,0,1-.49,3.48-2.5,7.58-9.71,19.72-29.37,41-43.2,45.05C127.2,246,117.15,227.22,124,203c10.3-36.43,39.08-59.05,46.7-53.93,2.21,1.69,14.24,4.2,12.89,11.93C181.63,172.11,161.77,197.12,141.76,216.51Z"/><path class="cls-66" d="M198.06,194.18c18.82-22,32-54,26.94-55.16-6.91-1.55-18.65,20.32-24.29,41.52A104,104,0,0,0,198.06,194.18Zm-.48,6c-.12,9.56,2.6,14.92,7.33,14.4,7.09-.78,25.43-16.47,35-37.47,3.18-6.77,4-7.53,4-4.52,0,1-.49,3.49-2.5,7.58-9.71,19.72-29.37,41-43.2,45.06C183,229.66,173,210.88,179.79,186.66c10.31-36.43,39.08-59,46.71-53.93,2.2,1.69,14.24,4.2,12.89,11.94C237.46,155.78,217.6,180.78,197.58,200.17Z"/><path class="cls-66" d="M269.14,219.12c-2,38.35,4.7,69.8,20.72,65.11,22.27-6.52,33.07-45.43,10.54-61.06C293.11,218.12,282,217,269.14,219.12Zm-20.25,5.09C219.38,233.85,185,254.43,160.46,277c-2.69,2.47-9.36-16.47,11.69-31,18.35-12.72,48.35-25,77-31.23a239.17,239.17,0,0,1,7.72-46.87c8.14-30.45,10.18-28.09,5.79-28.43a29.77,29.77,0,0,1-5.07-.68c-4.5,13.34-10.85,28.23-16,39.6-1.85,4.06-3.53,6.22-4.37,7-2.52,2.41-2.52,1.41.65-5.2a145.86,145.86,0,0,0,13.66-43.26c-5.59-2.37-9.35-6.11-10.35-10.51-1.82-8,21.72-14.7,21.72-14.2.53,4.19-.46,10-2.29,16.71a51.94,51.94,0,0,0,5.41.42c15.88,1,21.78-.86,16.79,15.47-2.17,6.82-3.49,12.05-4.82,17.12a278.92,278.92,0,0,0-8.39,49.56c19.24-2.12,36.31-.43,47,7,25.75,17.85,10.4,60.27-29.91,72.06C259,298.6,248.06,264.55,248.89,224.21Z"/></g><g class="cls-67"><path class="cls-68" d="M75.53,215.53a214.19,214.19,0,0,0-5.14,21.56c-2.14,12-7.17,23.72-1.42,22.46,9.25-2,22.79-12,27.9-30.72C102.9,206.72,89.86,209.83,75.53,215.53ZM47.7,224.68c2.19-1.31-8.36,17.81-10.22,18.36-21.59,6.31-44.8-11.78-29.43-48.36,13.36-32.15,53.23-67.2,95.23-79.5,27-7.89,45.26,0,36.12,31-6.49,22.12-25.82,44.15-46.7,57.44,16.37-3.45,31-1.17,25.08,19.06-6.91,23.79-37.29,43.16-54.7,42.07C56,264.36,46.23,256.56,51,236.25c4.87-20.93,22.59-84.13,26.55-102.83.17-.72,25.65-6,23.49,1.65-.83,2.74-9.35,25.79-17.16,52-2.5,8.25-4.5,15-6.16,21,18.37-8.22,34.31-32.26,40.79-55.71,7.81-28,1.7-35.58-18.54-29.66C62,133.78,42.5,156.53,29.12,185.34,12.72,220.38,12.33,246.72,47.7,224.68Z"/><path class="cls-68" d="M141.87,210.15c18.82-22.05,32-54,26.94-55.16-6.91-1.55-18.65,20.32-24.3,41.52A103.84,103.84,0,0,0,141.87,210.15Zm-.48,6c-.13,9.56,2.6,14.92,7.33,14.39,7.08-.78,25.43-16.46,35-37.46,3.18-6.77,4-7.52,4-4.52,0,1-.49,3.48-2.5,7.59-9.7,19.71-29.37,41-43.2,45.05-15.18,4.44-25.23-14.34-18.41-38.56,10.31-36.43,39.08-59,46.71-53.93,2.2,1.69,14.23,4.2,12.89,11.93C181.26,171.75,161.4,196.75,141.39,216.14Z"/><path class="cls-68" d="M197.7,193.82c18.82-22,32-54,26.94-55.17-6.92-1.55-18.66,20.33-24.3,41.53A101.92,101.92,0,0,0,197.7,193.82Zm-.48,6c-.13,9.57,2.6,14.92,7.33,14.4,7.08-.78,25.42-16.47,35-37.47,3.18-6.77,4-7.52,4-4.52,0,1-.49,3.49-2.5,7.59-9.71,19.71-29.37,41-43.2,45-15.18,4.44-25.23-14.33-18.41-38.55,10.3-36.43,39.08-59.06,46.7-53.93,2.21,1.69,14.24,4.2,12.89,11.93C237.09,155.41,217.23,180.41,197.22,199.8Z"/><path class="cls-68" d="M268.77,218.75c-2,38.36,4.7,69.8,20.73,65.11,22.26-6.51,33.07-45.43,10.53-61.05C292.74,217.75,281.59,216.67,268.77,218.75Zm-20.24,5.1c-29.52,9.64-63.88,30.21-88.44,52.77-2.69,2.46-9.36-16.47,11.69-31,18.35-12.71,48.36-25,77-31.23a238.44,238.44,0,0,1,7.73-46.87c8.13-30.45,10.18-28.08,5.78-28.42a29.86,29.86,0,0,1-5.07-.69c-4.5,13.34-10.85,28.23-16,39.61-1.84,4.05-3.52,6.21-4.37,7-2.52,2.4-2.52,1.41.66-5.2,7.86-16.18,12-31.26,13.65-43.27-5.58-2.37-9.34-6.11-10.35-10.5-1.81-8,21.72-14.71,21.73-14.21.52,4.19-.47,10-2.3,16.71a52.16,52.16,0,0,0,5.41.42c15.88,1,21.79-.86,16.79,15.47-2.16,6.82-3.49,12.05-4.82,17.12a279.78,279.78,0,0,0-8.39,49.57c19.25-2.12,36.31-.44,47,7,25.76,17.86,10.41,60.27-29.91,72.07C258.66,298.23,247.69,264.19,248.53,223.85Z"/></g><g class="cls-69"><path class="cls-70" d="M75.16,215.17A220.39,220.39,0,0,0,70,236.72c-2.14,12-7.17,23.72-1.42,22.47,9.25-2,22.79-12,27.9-30.72C102.53,206.35,89.49,209.47,75.16,215.17Zm-27.82,9.14C49.53,223,39,242.13,37.11,242.67,15.52,249-7.69,230.89,7.68,194.31c13.37-32.15,53.24-67.2,95.24-79.49,27-7.9,45.26,0,36.11,31C132.54,168,113.22,190,92.33,203.29c16.37-3.45,31-1.18,25.09,19.06-6.92,23.78-37.3,43.16-54.7,42.07-7.1-.43-16.85-8.23-12.12-28.53C55.48,215,73.19,151.76,77.16,133.05c.16-.72,25.64-6,23.48,1.65-.83,2.74-9.34,25.79-17.16,52-2.5,8.25-4.49,15-6.16,21,18.38-8.22,34.31-32.26,40.79-55.71,7.82-28,1.7-35.58-18.54-29.66C61.62,133.42,42.13,156.16,28.75,185,12.36,220,12,246.35,47.34,224.31Z"/><path class="cls-70" d="M141.5,209.79c18.82-22,32-54,26.95-55.17-6.92-1.55-18.66,20.32-24.3,41.53A103.39,103.39,0,0,0,141.5,209.79Zm-.47,6c-.13,9.56,2.59,14.92,7.32,14.4,7.09-.78,25.43-16.47,35-37.46,3.17-6.78,4-7.53,4-4.53,0,1-.49,3.49-2.51,7.59-9.7,19.71-29.36,41-43.2,45-15.18,4.44-25.22-14.34-18.41-38.55,10.31-36.43,39.09-59.06,46.71-53.94,2.2,1.7,14.23,4.2,12.89,11.94C180.9,171.38,161,196.39,141,215.77Z"/><path class="cls-70" d="M197.33,193.45c18.82-22,32-54,26.94-55.17-6.91-1.54-18.65,20.33-24.3,41.53A103.53,103.53,0,0,0,197.33,193.45Zm-.48,6c-.12,9.57,2.6,14.92,7.33,14.4,7.09-.78,25.42-16.46,35-37.46,3.18-6.77,4-7.53,4-4.53,0,1-.49,3.49-2.5,7.59-9.71,19.72-29.37,41-43.2,45-15.18,4.45-25.23-14.33-18.41-38.55,10.31-36.43,39.08-59.05,46.71-53.93,2.2,1.69,14.23,4.2,12.89,11.93C236.73,155,216.86,180.05,196.85,199.43Z"/><path class="cls-70" d="M268.4,218.39c-2,38.35,4.71,69.79,20.73,65.11,22.27-6.52,33.07-45.43,10.54-61.06C292.38,217.38,281.23,216.31,268.4,218.39Zm-20.24,5.09c-29.51,9.64-63.88,30.22-88.43,52.77-2.69,2.47-9.37-16.47,11.68-31,18.35-12.72,48.36-25,77-31.23a239.68,239.68,0,0,1,7.73-46.87c8.14-30.45,10.18-28.09,5.79-28.43a29.85,29.85,0,0,1-5.08-.69c-4.49,13.35-10.85,28.24-16,39.61-1.84,4.05-3.52,6.21-4.36,7-2.52,2.41-2.53,1.41.65-5.2a145.86,145.86,0,0,0,13.66-43.26c-5.59-2.37-9.35-6.11-10.35-10.51-1.82-8,21.72-14.71,21.72-14.21.53,4.19-.46,10-2.29,16.72,1.52.22,3.38.34,5.41.42,15.88,1,21.78-.86,16.79,15.47-2.17,6.81-3.49,12-4.82,17.11a280.11,280.11,0,0,0-8.4,49.57c19.25-2.12,36.32-.43,47,7,25.75,17.86,10.4,60.28-29.91,72.07C258.29,297.86,247.33,263.82,248.16,223.48Z"/></g><path class="cls-71" d="M74.79,214.8a217.13,217.13,0,0,0-5.13,21.55c-2.14,12-7.16,23.82-1.42,22.47,9.28-1.88,22.74-12,27.89-30.72C102.11,206,89.13,209.1,74.79,214.8ZM47,223.94c2.19-1.3-8.37,17.82-10.22,18.36-21.59,6.32-44.81-11.78-29.44-48.36,13.37-32.14,53.24-67.2,95.24-79.49,27-7.9,45.26,0,36.11,31-6.48,22.12-25.81,44.15-46.69,57.44,16.36-3.45,30.9-1.19,25.08,19.06-7,23.76-37.3,43.16-54.7,42.07-7.09-.43-16.93-8.25-12.12-28.53,4.8-21,22.59-84.13,26.56-102.84.17-.71,25.64-6,23.48,1.65-.83,2.75-9.34,25.79-17.16,52-2.5,8.25-4.49,15-6.15,21,18.37-8.22,34.31-32.27,40.78-55.71,7.82-28,1.71-35.59-18.53-29.66-38,11.1-57.45,33.85-70.83,62.66C12,219.64,11.6,246,47,223.94Z"/><path class="cls-71" d="M141.14,209.42c18.82-22,32-54,26.94-55.16-6.93-1.49-18.65,20.32-24.3,41.52A103.53,103.53,0,0,0,141.14,209.42Zm-.48,6c-.13,9.56,2.6,14.94,7.32,14.39,7.1-.74,25.43-16.46,35-37.46,3.17-6.78,4-7.53,4-4.52,0,1-.49,3.48-2.5,7.58-9.71,19.72-29.37,41-43.2,45-15.18,4.45-25.23-14.33-18.41-38.55,10.3-36.43,39.08-59.05,46.7-53.93,2.21,1.69,14.21,4.19,12.89,11.93C180.48,171,160.67,196,140.66,215.41Z"/><path class="cls-71" d="M197,193.08c18.82-22,32-54,26.94-55.16-6.92-1.49-18.65,20.32-24.29,41.53A103.58,103.58,0,0,0,197,193.08Zm-.47,6c-.13,9.56,2.6,14.94,7.32,14.4,7.09-.74,25.43-16.47,35-37.47,3.18-6.77,4-7.53,4-4.52,0,1-.49,3.49-2.5,7.58-9.71,19.72-29.37,41-43.2,45.06-15.18,4.44-25.24-14.34-18.42-38.56,10.31-36.43,39.08-59,46.71-53.93,2.2,1.69,14.2,4.2,12.89,11.94C236.31,154.67,216.5,179.68,196.49,199.07Z"/><path class="cls-71" d="M268,218c-2,38.35,4.7,69.8,20.72,65.11,22.27-6.52,33.07-45.43,10.54-61.06C292,217,280.86,215.94,268,218Zm-20.25,5.09c-29.51,9.64-63.87,30.22-88.43,52.78-2.69,2.46-9.36-16.48,11.69-31,18.35-12.72,48.35-25,77-31.23a239.17,239.17,0,0,1,7.72-46.87c8.14-30.45,10.18-28,5.79-28.42a28.76,28.76,0,0,1-5.07-.69c-4.5,13.34-10.85,28.23-16,39.6-1.85,4.06-3.53,6.22-4.37,7-2.52,2.41-2.52,1.41.65-5.2a145.86,145.86,0,0,0,13.66-43.26c-5.58-2.37-9.48-6.08-10.35-10.51-2.07-7.91,21.72-14.7,21.73-14.2.52,4.19-.47,10-2.3,16.71a52.16,52.16,0,0,0,5.41.42c15.88,1,21.78-.86,16.79,15.47-2.17,6.82-3.49,12-4.82,17.12a278.92,278.92,0,0,0-8.39,49.56c19.24-2.12,36.31-.43,47,7,25.75,17.85,10.41,60.27-29.91,72.06C257.93,297.5,247,263.45,247.79,223.11Z"/></g><path class="cls-72" d="M276.81,291a21.4,21.4,0,0,1-15.74-6.81c-10-10.17-15.39-32.15-14.95-60.4-28.91,9.64-63,30.09-87.23,52.31a1.47,1.47,0,0,1-1,.4c-1.08,0-2.06-1.18-2.7-3.23-1.83-5.89-.84-18.68,14.5-29.26,18.49-12.81,48.57-25,76.77-31.22a239.93,239.93,0,0,1,7.72-46.48c3.13-11.72,5.35-18.54,6.67-22.61.85-2.61,1.46-4.49,1.34-4.88,0,0-.09,0-.2,0l-.56,0c-.25,0-.53,0-.85-.05a31.53,31.53,0,0,1-4.55-.56c-17.16,50.68-37.24,79.71-59.68,86.28a16.36,16.36,0,0,1-4.55.68c-7.63,0-13.62-6-15.91-15.89-11.07,16-25.15,28.55-35.37,31.54a16.08,16.08,0,0,1-4.56.69,14.27,14.27,0,0,1-11.6-6.12c-5.71-7.54-6.91-20.56-3.13-34,9.53-33.68,34.71-55.16,44.69-55.16a5.42,5.42,0,0,1,3.09.84,16.42,16.42,0,0,0,2.73,1.31c4.33,1.81,11.56,4.84,10.46,11.32-2.12,11.89-23.07,37.51-41.8,55.69,0,5.83,1,10.14,3,12.16a4.05,4.05,0,0,0,3,1.27l.57,0c5.73-.6,18.63-11.24,28-25.59a53.26,53.26,0,0,1,2.06-18.14c9.53-33.68,34.7-55.17,44.69-55.17a5.5,5.5,0,0,1,3.09.84,15.47,15.47,0,0,0,2.72,1.31c4.33,1.81,11.57,4.84,10.47,11.33-2.12,11.88-23.07,37.5-41.8,55.68,0,5.83,1,10.15,3,12.16a4.06,4.06,0,0,0,3,1.28,3.73,3.73,0,0,0,.57,0c12.32-1.28,39.69-32.06,45.93-76.54-5.77-2.58-9.41-6.4-10.27-10.81a5.37,5.37,0,0,1,1.25-4.7c4.55-5.89,19.57-10.37,21.08-10.37h.7l.09.73c.47,3.69-.22,9-2.11,16.12,1.23.14,2.73.25,4.55.31s3.56.2,5.12.28c6.68.31,11.09.52,13,3.27,1.59,2.26,1.38,6-.71,12.83-1.95,6.12-3.2,10.91-4.41,15.54l-.41,1.55a279,279,0,0,0-8.3,48.6,132,132,0,0,1,13.8-.76c14.17,0,25.22,2.67,32.82,7.94,9.95,6.91,14.5,18,12.47,30.51-2.57,15.86-16.74,35.25-42.59,42.81a28.46,28.46,0,0,1-8,1.23Zm-9.05-72.68c-1.49,29.52,2.36,52.87,10.07,61a9.39,9.39,0,0,0,6.91,3.27,10.29,10.29,0,0,0,2.88-.44c10.87-3.18,19.7-14.68,22-28.62,2.11-13-2.24-24.67-11.63-31.18-4.71-3.27-11.19-4.93-19.26-4.93A71.38,71.38,0,0,0,267.76,218.31ZM166.44,154.57c-6.16,0-17.3,20-22.93,41.08a107.47,107.47,0,0,0-2.3,11.13c16.71-20.37,27.76-46.8,26.17-51.66-.15-.43-.34-.48-.41-.49A2.2,2.2,0,0,0,166.44,154.57Zm55.83-16.34c-6.17,0-17.31,20-22.93,41.08a102.63,102.63,0,0,0-2.3,11.14c16.71-20.37,27.76-46.81,26.16-51.67-.14-.43-.33-.48-.4-.49A2.26,2.26,0,0,0,222.27,138.23ZM62.84,264.48c-.5,0-1,0-1.48,0a14.12,14.12,0,0,1-10.19-5.83c-2.82-3.8-5.56-11-2.57-23.57,2.25-9.8,7.24-28.48,12.52-48.26,5.87-21.93,11.93-44.62,14-54.56.33-1.44,11.84-3,16.58-3,4.17,0,6.74.71,7.84,2.17a3.07,3.07,0,0,1,.42,2.82c-.2.67-.83,2.48-1.8,5.22-3,8.71-9.41,26.82-15.36,46.76-2.47,8.14-4.26,14.25-5.74,19.52,16.4-8.14,32.31-30.3,39-54.61,3.95-14.16,4.29-23.12,1-27.4-1.66-2.18-4.31-3.25-8.1-3.25a38.67,38.67,0,0,0-10.61,1.86c-33.18,9.7-54.89,28.91-70.39,62.28-9.67,20.67-13,36.83-8.94,43.22,1.36,2.15,3.5,3.2,6.52,3.2h0c4.78,0,11.51-2.69,20-8l.17-.11.38-.06a.82.82,0,0,1,.81.73c.24,1.64-8.78,18.42-11,19.07a31.06,31.06,0,0,1-8.71,1.27c-9.12,0-17.08-4.12-21.85-11.3C-1,223-.87,209,5.72,193.36c14-33.69,55.14-68,95.68-79.9a64,64,0,0,1,17.7-2.89c8.32,0,14.38,2.45,18,7.29,4.47,6,4.9,15.23,1.29,27.51-5.85,19.93-23,41.56-44.06,55.9a50.5,50.5,0,0,1,7.91-.7c6.46,0,11,1.71,13.56,5.08,2.71,3.6,3,9,1,16.21-6.75,22.95-35.3,42.62-53.94,42.62ZM74.43,215a213.87,213.87,0,0,0-5,21.15c-.6,3.38-1.44,6.78-2.18,9.78-1.31,5.31-2.55,10.33-1.5,11.66a.86.86,0,0,0,.76.3,2.67,2.67,0,0,0,.65-.08c8.13-1.65,22.1-11,27.38-30.22,1.93-7.14,1.95-12,.06-14.48-1.07-1.4-2.8-2.09-5.28-2.09C85.1,211,79.45,213,74.43,215Z"/><path class="cls-2" d="M260.78,110.74c.06,0,.09,0,.09,0,.52,4.19-.47,10-2.3,16.71a51.93,51.93,0,0,0,5.41.43c15.88,1,21.79-.87,16.79,15.46-2.16,6.82-3.49,12-4.82,17.12a279.93,279.93,0,0,0-8.39,49.57,132.11,132.11,0,0,1,14.56-.85c13.17,0,24.54,2.35,32.42,7.82,25.76,17.86,10.41,60.27-29.91,72.07a27.89,27.89,0,0,1-7.82,1.2c-21.91,0-30.71-31.2-30-67.49C217.33,232.44,183,253,158.41,275.57a.73.73,0,0,1-.51.22c-2.87,0-7.59-17.56,12.2-31.21,18.35-12.71,48.36-25,77-31.23a238.22,238.22,0,0,1,7.73-46.86C263,136,265,138.44,260.65,138.06a27.85,27.85,0,0,1-5.07-.69c-8.28,24.56-27.74,77.16-59.42,86.43a15.51,15.51,0,0,1-4.35.65c-7.83,0-13.68-6.69-15.56-16.95-10.42,15.46-25,29.44-35.92,32.64a15.59,15.59,0,0,1-4.37.65c-12.64,0-20.18-17.4-14-39.2,9.33-33,33.81-54.66,44-54.66a4.79,4.79,0,0,1,2.7.72c2.2,1.7,14.2,4.2,12.89,11.93-2,11.11-21.8,36.12-41.81,55.51-.12,9.11,2.35,14.43,6.68,14.43l.65,0c5.74-.6,18.84-11,28.68-26.1a52.66,52.66,0,0,1,2-18.14c9.33-33,33.8-54.65,44-54.65a4.7,4.7,0,0,1,2.69.72c2.21,1.69,14.21,4.19,12.89,11.93-2,11.1-21.79,36.12-41.8,55.5-.12,9.12,2.35,14.44,6.68,14.44a4.82,4.82,0,0,0,.65,0c12.83-1.34,40.52-32.89,46.62-77.68-5.58-2.37-9.48-6.08-10.35-10.5-2-7.64,20.1-14.23,21.64-14.23m-64.76,82c18.81-22.05,32-54,26.94-55.17a3.23,3.23,0,0,0-.69-.07c-7,0-18.15,21.08-23.61,41.6A101.92,101.92,0,0,0,196,192.77M140.19,209.1c18.82-22,32-54,26.94-55.16a3.11,3.11,0,0,0-.69-.07c-7,0-18.14,21.08-23.61,41.59a103.84,103.84,0,0,0-2.64,13.64m144.55,74.18a11.07,11.07,0,0,0,3.08-.46c22.26-6.52,33.07-45.43,10.53-61.06-5-3.46-11.77-5.06-19.66-5.06a73.84,73.84,0,0,0-11.6,1c-1.89,35.8,3.85,65.58,17.65,65.58m-165.65-172c16.63,0,25.6,10.2,18.63,33.9-6.49,22.12-25.82,44.14-46.7,57.44a55.41,55.41,0,0,1,11.22-1.33c11,0,18.29,5,13.86,20.38-6.79,23.13-35.68,42.12-53.26,42.12-.49,0-1,0-1.44,0-7.09-.42-16.92-8.24-12.12-28.53,4.81-20.95,22.6-84.13,26.56-102.83.1-.43,9-2.45,15.9-2.45,4.73,0,8.47,1,7.59,4.1-.83,2.74-9.35,25.79-17.16,52-2.5,8.26-4.5,15-6.16,21,18.37-8.22,34.31-32.26,40.79-55.71,6.18-22.18,3.64-31.54-7.73-31.54a39.9,39.9,0,0,0-10.81,1.88c-37.95,11.1-57.44,33.85-70.82,62.66-12.23,26.13-15.56,47.42-1.79,47.42,4.7,0,11.38-2.48,20.37-8.08a.34.34,0,0,1,.18-.07c1.32,0-8.6,17.9-10.4,18.43a30.32,30.32,0,0,1-8.51,1.24C8.77,243.23-7,225.4,6.37,193.63c13.36-32.15,53.23-67.2,95.23-79.49a63.34,63.34,0,0,1,17.49-2.87M66.48,258.61a3.63,3.63,0,0,0,.81-.11c9.28-1.88,22.74-12,27.9-30.72,3.58-13.26.35-17.45-5.9-17.45-4.18,0-9.7,1.87-15.44,4.15A214.83,214.83,0,0,0,68.71,236c-2,11.36-6.64,22.57-2.23,22.57m194.3-149.28h0c-1.61,0-16.85,4.45-21.63,10.64a6,6,0,0,0-1.37,5.35c.87,4.44,4.47,8.34,10.17,11-6.33,43.86-33.15,74.16-45.23,75.42l-.5,0a3.36,3.36,0,0,1-2.47-1.06c-1.82-1.85-2.81-5.88-2.81-11.37,18.75-18.24,39.65-43.87,41.79-55.85,1.19-7.05-6.66-10.34-10.88-12.11a16.67,16.67,0,0,1-2.54-1.19,6.14,6.14,0,0,0-3.55-1c-10.44,0-35.6,21.14-45.37,55.67a54.37,54.37,0,0,0-2.1,18.15c-10.14,15.37-22.6,24.58-27.4,25.08l-.5,0a3.3,3.3,0,0,1-2.46-1.07c-1.83-1.85-2.82-5.87-2.82-11.36,18.75-18.25,39.66-43.88,41.79-55.86,1.2-7-6.66-10.33-10.88-12.1a18.27,18.27,0,0,1-2.54-1.19,6.14,6.14,0,0,0-3.55-1c-10.44,0-35.59,21.13-45.36,55.67a59,59,0,0,0-1.92,9.89,12.24,12.24,0,0,0-2.29-5.86c-2.68-3.56-7.43-5.36-14.12-5.36a44.66,44.66,0,0,0-5.12.31c20.12-14.41,36.28-35.29,41.95-54.62,3.68-12.49,3.2-22-1.41-28.12-3.76-5-10-7.57-18.57-7.57v0a64.55,64.55,0,0,0-17.88,2.92c-40.73,11.92-82.06,46.44-96.14,80.3C-1.61,209-1.69,223.17,4.85,233c4.91,7.38,13.09,11.61,22.44,11.61a31.74,31.74,0,0,0,8.91-1.29c2.53-.74,11.81-17.77,11.51-19.85a1.53,1.53,0,0,0-1.51-1.33h0a1.7,1.7,0,0,0-.9.26c-8.4,5.24-15,7.88-19.65,7.88-2.76,0-4.7-.94-5.93-2.87-3.94-6.19-.58-22.09,9-42.54C39.94,160.7,54.45,144,74.27,133c-2.27,10.38-8.14,32.34-13.82,53.6-5.29,19.79-10.28,38.47-12.54,48.3-3,12.86-.21,20.22,2.7,24.14a14.78,14.78,0,0,0,10.71,6.11c.49,0,1,0,1.52,0,18.87,0,47.79-19.9,54.61-43.12a36.25,36.25,0,0,0,.94-4c.24,7.09,2.07,13.33,5.42,17.74,3.17,4.19,7.37,6.4,12.15,6.4a17,17,0,0,0,4.76-.71c10.1-3,23.86-15.08,34.87-30.57,2.62,9.3,8.64,14.94,16.22,14.94a16.87,16.87,0,0,0,4.74-.71c22.59-6.61,42.76-35.59,60-86.14a35.8,35.8,0,0,0,4.05.45l.85.06h0c-.2.81-.66,2.25-1.22,3.95-1.32,4.08-3.54,10.9-6.68,22.65a241.2,241.2,0,0,0-7.71,46.09c-28.13,6.23-58.06,18.43-76.5,31.22-15.68,10.81-16.66,24-14.77,30,.75,2.4,1.94,3.72,3.37,3.72a2.14,2.14,0,0,0,1.46-.58c23.86-21.92,57.42-42.11,86-51.85-.33,28.35,5,49.58,15.16,59.92a22.11,22.11,0,0,0,16.24,7,29.52,29.52,0,0,0,8.22-1.26c26.15-7.65,40.48-27.3,43.09-43.38,2.07-12.76-2.59-24.13-12.77-31.2-7.72-5.35-18.9-8.07-33.23-8.07-4.1,0-8.47.23-13,.68a278.36,278.36,0,0,1,8.21-47.62l.4-1.53c1.21-4.63,2.46-9.42,4.4-15.53,2.18-7.1,2.35-11,.62-13.46-2.13-3-6.68-3.24-13.56-3.57-1.57-.07-3.26-.15-5.1-.27-1.44,0-2.67-.13-3.72-.22,1.74-6.77,2.37-11.88,1.92-15.6v-1.32l-1.48,0ZM80.86,129.63A124.42,124.42,0,0,1,98.65,123a38.13,38.13,0,0,1,10.42-1.83c3.55,0,6,1,7.54,3,3.1,4.09,2.72,12.85-1.17,26.78-6.47,23.42-21.5,44.82-37.22,53.42,1.39-4.91,3.07-10.59,5.29-17.94,6-19.94,12.31-38,15.37-46.76,1-2.72,1.59-4.52,1.79-5.2a3.8,3.8,0,0,0-.53-3.47c-1.25-1.64-4-2.44-8.4-2.44A65.78,65.78,0,0,0,81,129.6l-.15,0Zm117.3,58.3c.5-2.79,1.12-5.61,1.86-8.44,6-22.46,17.06-40.55,22.25-40.55h.26c1.85,3.24-8.1,28.32-24.37,49Zm-55.82,16.33c.49-2.78,1.11-5.61,1.86-8.44,6-22.46,17.06-40.54,22.24-40.55l.26,0c1.85,3.24-8.1,28.32-24.36,49ZM75,215.54c4.88-1.92,10.29-3.8,14.28-3.8,2.25,0,3.79.59,4.73,1.81,1.74,2.28,1.68,6.95-.19,13.87C88.64,246.28,75,255.52,67,257.12a2.12,2.12,0,0,1-.53.08.63.63,0,0,1-.2,0c-.92-.77.61-7,1.62-11.07.75-3,1.59-6.43,2.19-9.83,1.19-6.55,2.67-12.79,4.92-20.74Zm193.43,3.38a69.56,69.56,0,0,1,10.25-.81c7.92,0,14.27,1.62,18.86,4.8,9.16,6.36,13.4,17.76,11.33,30.5-2.21,13.67-10.84,25-21.46,28.06a9.57,9.57,0,0,1-2.68.4,8.61,8.61,0,0,1-6.4-3c-7.53-7.95-11.31-30.85-9.9-59.91Z"/></g></g></g></svg>