<svg xmlns="http://www.w3.org/2000/svg" viewBox="0 0 96.41 64.27"><defs><style>.cls-1{fill:#465b65;}.cls-2{fill:#627e8b;}.cls-3{fill:#010101;}.cls-4{fill:#efa126;}</style></defs><g id="Capa_2" data-name="Capa 2"><g id="Capa_1-2" data-name="Capa 1"><path class="cls-1" d="M94.4,4H2A2,2,0,0,1,2,0H94.4a2,2,0,0,1,0,4Z"/><path class="cls-2" d="M94.4,16.07H2a2,2,0,0,1,0-4H94.4a2,2,0,0,1,0,4Z"/><path class="cls-1" d="M94.4,28.12H2a2,2,0,0,1,0-4H94.4a2,2,0,0,1,0,4Z"/><path class="cls-2" d="M94.4,40.17H2a2,2,0,1,1,0-4H94.4a2,2,0,0,1,0,4Z"/><path class="cls-1" d="M94.4,52.22H2a2,2,0,0,1,0-4H94.4a2,2,0,0,1,0,4Z"/><path class="cls-2" d="M66.28,64.27H2a2,2,0,0,1,0-4H66.28a2,2,0,1,1,0,4Z"/><path class="cls-3" d="M94.4,4H2A2,2,0,0,1,2,0H94.4a2,2,0,0,1,0,4Z"/><path class="cls-3" d="M94.4,16.07H2a2,2,0,0,1,0-4H94.4a2,2,0,0,1,0,4Z"/><path class="cls-3" d="M94.4,28.12H2a2,2,0,0,1,0-4H94.4a2,2,0,0,1,0,4Z"/><path class="cls-3" d="M94.4,40.17H2a2,2,0,1,1,0-4H94.4a2,2,0,0,1,0,4Z"/><path class="cls-3" d="M94.4,52.22H2a2,2,0,0,1,0-4H94.4a2,2,0,0,1,0,4Z"/><path class="cls-4" d="M66.28,64.27H2a2,2,0,0,1,0-4H66.28a2,2,0,1,1,0,4Z"/></g></g></svg>