<svg xmlns="http://www.w3.org/2000/svg" viewBox="0 0 70.99 85.38"><defs><style>.cls-1{fill:#efa126;}</style></defs><g id="Capa_2" data-name="Capa 2"><g id="Capa_1-2" data-name="Capa 1"><path d="M66.55,17.75H4.44A4.44,4.44,0,0,1,0,13.31V4.44A4.44,4.44,0,0,1,4.44,0H66.55A4.44,4.44,0,0,1,71,4.44v8.87a4.44,4.44,0,0,1-4.44,4.44ZM4.44,3A1.48,1.48,0,0,0,3,4.44v8.87a1.48,1.48,0,0,0,1.48,1.48H66.55A1.48,1.48,0,0,0,68,13.31V4.44A1.48,1.48,0,0,0,66.55,3Z"/><path d="M66.55,62.84H4.44A4.44,4.44,0,0,1,0,58.4V49.53a4.44,4.44,0,0,1,4.44-4.44H66.55A4.44,4.44,0,0,1,71,49.53V58.4a4.44,4.44,0,0,1-4.44,4.44ZM4.44,48.05A1.48,1.48,0,0,0,3,49.53V58.4a1.48,1.48,0,0,0,1.48,1.48H66.55A1.48,1.48,0,0,0,68,58.4V49.53a1.48,1.48,0,0,0-1.48-1.48Z"/><path class="cls-1" d="M66.55,40.29H4.44A4.44,4.44,0,0,1,0,35.86V27a4.45,4.45,0,0,1,4.44-4.44H66.55A4.45,4.45,0,0,1,71,27v8.88a4.44,4.44,0,0,1-4.44,4.43ZM4.44,25.5A1.48,1.48,0,0,0,3,27v8.88a1.47,1.47,0,0,0,1.48,1.47H66.55A1.47,1.47,0,0,0,68,35.86V27a1.48,1.48,0,0,0-1.48-1.48Z"/><path d="M66.55,85.38H4.44A4.44,4.44,0,0,1,0,81V72.07a4.45,4.45,0,0,1,4.44-4.44H66.55A4.45,4.45,0,0,1,71,72.07V81a4.44,4.44,0,0,1-4.44,4.43ZM4.44,70.59A1.48,1.48,0,0,0,3,72.07V81a1.47,1.47,0,0,0,1.48,1.47H66.55A1.47,1.47,0,0,0,68,81V72.07a1.48,1.48,0,0,0-1.48-1.48Z"/></g></g></svg>