<svg xmlns="http://www.w3.org/2000/svg" viewBox="0 0 77.06 77.06"><defs><style>.cls-1{fill:#efa126;}</style></defs><g id="Capa_2" data-name="Capa 2"><g id="Capa_1-2" data-name="Capa 1"><path d="M30.5,77.06H4.82A4.82,4.82,0,0,1,0,72.24V4.82A4.82,4.82,0,0,1,4.82,0H30.5a4.82,4.82,0,0,1,4.82,4.82V72.24a4.82,4.82,0,0,1-4.82,4.82ZM4.82,3.21A1.61,1.61,0,0,0,3.21,4.82V72.24a1.61,1.61,0,0,0,1.61,1.61H30.5a1.61,1.61,0,0,0,1.61-1.61V4.82A1.61,1.61,0,0,0,30.5,3.21Z"/><path class="cls-1" d="M72.24,28.9H46.55a4.83,4.83,0,0,1-4.81-4.82V4.82A4.82,4.82,0,0,1,46.55,0H72.24a4.82,4.82,0,0,1,4.82,4.82V24.08a4.83,4.83,0,0,1-4.82,4.82ZM46.55,3.21A1.61,1.61,0,0,0,45,4.82V24.08a1.61,1.61,0,0,0,1.6,1.61H72.24a1.61,1.61,0,0,0,1.61-1.61V4.82a1.61,1.61,0,0,0-1.61-1.61Z"/><path d="M75.45,48.16H43.34a1.61,1.61,0,0,1,0-3.21H75.45a1.61,1.61,0,1,1,0,3.21Z"/><path d="M75.45,38.53H43.34a1.61,1.61,0,0,1,0-3.21H75.45a1.61,1.61,0,1,1,0,3.21Z"/><path d="M75.45,57.79H43.34a1.61,1.61,0,0,1,0-3.21H75.45a1.61,1.61,0,1,1,0,3.21Z"/><path d="M75.45,67.42H43.34a1.61,1.61,0,0,1,0-3.21H75.45a1.61,1.61,0,1,1,0,3.21Z"/><path d="M75.45,77.06H43.34a1.61,1.61,0,0,1,0-3.21H75.45a1.61,1.61,0,1,1,0,3.21Z"/></g></g></svg>