<svg xmlns="http://www.w3.org/2000/svg" viewBox="0 0 102.63 52.58"><defs><style>.cls-1{fill:#010101;}.cls-2{fill:#efa126;}</style></defs><g id="Capa_2" data-name="Capa 2"><g id="Capa_1-2" data-name="Capa 1"><path class="cls-1" d="M100.5,28.36H2.14a2.14,2.14,0,0,1,0-4.28H100.5a2.14,2.14,0,0,1,0,4.28Z"/><path class="cls-2" d="M49.9,35.25a2,2,0,0,1,3.42,1.42v9.07L56,43a2,2,0,0,1,2.84,2.83L52.73,52a2,2,0,0,1-.84.5h0a2.08,2.08,0,0,1-1.21,0A1.92,1.92,0,0,1,49.9,52l-6.14-6.15A2,2,0,1,1,46.59,43l2.72,2.72V36.66a2,2,0,0,1,.59-1.41Z"/><path class="cls-2" d="M49.9,17.32a2,2,0,0,0,3.42-1.42V6.83L56,9.56a2,2,0,1,0,2.84-2.84L52.73.58h0a2,2,0,0,0-.84-.5h0a2.08,2.08,0,0,0-1.21,0,2.17,2.17,0,0,0-.78.48L43.76,6.73a2,2,0,1,0,2.83,2.83l2.72-2.73v9.08a2,2,0,0,0,.59,1.41Z"/></g></g></svg>