<svg xmlns="http://www.w3.org/2000/svg" viewBox="0 0 70.31 41.37"><defs><style>.cls-1{fill:#efa126;}</style></defs><g id="Capa_2" data-name="Capa 2"><g id="Capa_1-2" data-name="Capa 1"><path class="cls-1" d="M17.84,12.75H3.71c-2,0-3.71-2-3.71-4.44V4.44C0,2,1.66,0,3.71,0H17.84c2,0,3.71,2,3.71,4.44V8.31c0,2.45-1.67,4.44-3.71,4.44ZM3.71,3A1.37,1.37,0,0,0,2.47,4.44V8.31A1.37,1.37,0,0,0,3.71,9.79H17.84a1.37,1.37,0,0,0,1.23-1.48V4.44A1.37,1.37,0,0,0,17.84,3Z"/><path d="M41.72,12.75H27.59c-2.05,0-3.71-2-3.71-4.44V4.44C23.88,2,25.54,0,27.59,0H41.72c2,0,3.71,2,3.71,4.44V8.31c0,2.45-1.67,4.44-3.71,4.44ZM27.59,3a1.38,1.38,0,0,0-1.24,1.48V8.31a1.38,1.38,0,0,0,1.24,1.48H41.72A1.38,1.38,0,0,0,43,8.31V4.44A1.38,1.38,0,0,0,41.72,3Z"/><path d="M66.6,12.75H51.47c-2,0-3.71-2-3.71-4.44V4.44C47.76,2,49.42,0,51.47,0H66.6c2,0,3.71,2,3.71,4.44V8.31c0,2.45-1.67,4.44-3.71,4.44ZM51.47,3a1.38,1.38,0,0,0-1.24,1.48V8.31a1.38,1.38,0,0,0,1.24,1.48H66.6a1.38,1.38,0,0,0,1.24-1.48V4.44A1.38,1.38,0,0,0,66.6,3Z"/><path d="M68.81,23.62H1.34A1.37,1.37,0,0,1,.11,22.14a1.38,1.38,0,0,1,1.23-1.48H68.81a1.5,1.5,0,0,1,0,3Z"/><path d="M68.81,32.5H1.34a1.51,1.51,0,0,1,0-3H68.81a1.5,1.5,0,0,1,0,3Z"/><path d="M68.81,41.37H1.34a1.51,1.51,0,0,1,0-3H68.81a1.5,1.5,0,0,1,0,3Z"/></g></g></svg>