<svg xmlns="http://www.w3.org/2000/svg" viewBox="0 0 79.01 97.97">
<g id="Capa_2" data-name="Capa 2">
	<g id="Capa_1-2" data-name="Capa 1">
		<path fill="#fff" class="cls-1" d="M18.3,98A10.18,10.18,0,0,1,8.13,87.8v-.36a10.18,10.18,0,0,1,7.73-9.87l.91-13.75A19.42,19.42,0,0,1,0,44.6,19.22,19.22,0,0,1,6.65,30a11.1,11.1,0,0,1-.28-2.51,11.51,11.51,0,0,1,6.25-10.23,14.05,14.05,0,0,1-.09-1.72,15.52,15.52,0,0,1,29-7.78,11.11,11.11,0,0,1,1.83-.15,11.5,11.5,0,0,1,7.79,3.06,12.18,12.18,0,0,1,2.26-.21A11.89,11.89,0,0,1,64.93,25.12L65.39,32h3.45A10.18,10.18,0,0,1,79,42.2V60.55A10.18,10.18,0,0,1,68.84,70.72H68l.46,6.92a10.19,10.19,0,0,1,7.45,9.8v.36A10.18,10.18,0,0,1,65.7,98Z"/>
		<path class="cls-3" d="M68.84,67.67H57.77V63.6H68.84a3.06,3.06,0,0,0,3-3.05V42.2a3.06,3.06,0,0,0-3-3.05H55.16V35.08H68.84A7.14,7.14,0,0,1,76,42.2V60.55A7.13,7.13,0,0,1,68.84,67.67Z"/>
		<path class="cls-3" d="M63.63,82.36h-43l1.55-23.45h0a23,23,0,0,1,8.57-4.22,29.69,29.69,0,0,1,11.35-.77c12.53,1.48,18.5-13.57,18.67-14h0Z"/>
		<path fill="#fff" class="cls-1" d="M60.82,39.88h0c-.17.45-6.14,15.5-18.67,14a29.69,29.69,0,0,0-11.35.77,23,23,0,0,0-8.57,4.22h0l2.52-37.84H59.56Z"/>
		<rect class="cls-3" x="13.21" y="82.36" width="57.57" height="10.53" rx="5.09"/>
		<path fill="#fff" class="cls-5" d="M46.57,66.27a4,4,0,1,1-4-4A4,4,0,0,1,46.57,66.27Z"/>
		<path class="cls-5" d="M53.73,52.32a3.1,3.1,0,1,1-3.1-3.09A3.1,3.1,0,0,1,53.73,52.32Z"/>
		<path fill="#fff" class="cls-5" d="M42.5,42.86a1.74,1.74,0,1,1-1.74-1.74A1.74,1.74,0,0,1,42.5,42.86Z"/>
	</g>
</g>
</svg>
